# Original Yellow Coast study. Y up; 1 unit = 1 metre.
mtllib Coastline.mtl
o Cliffs
usemtl Chalk
v -2.50000 -0.08000 -2.50000
v -2.50000 0.86000 -2.50000
v -1.50000 0.86000 -2.50000
v -1.50000 -0.08000 -2.50000
f 1 2 3
f 1 3 4
usemtl Chalk
v -1.50000 -0.08000 -1.50000
v -1.50000 0.86000 -1.50000
v -2.50000 0.86000 -1.50000
v -2.50000 -0.08000 -1.50000
f 5 6 7
f 5 7 8
usemtl Chalk
v -2.50000 -0.08000 -1.50000
v -2.50000 0.86000 -1.50000
v -2.50000 0.86000 -2.50000
v -2.50000 -0.08000 -2.50000
f 9 10 11
f 9 11 12
usemtl Chalk
v -1.50000 -0.08000 -2.50000
v -1.50000 0.86000 -2.50000
v -1.50000 0.86000 -1.50000
v -1.50000 -0.08000 -1.50000
f 13 14 15
f 13 15 16
usemtl Chalk
v -2.50000 -0.08000 -1.50000
v -2.50000 -0.08000 -2.50000
v -1.50000 -0.08000 -2.50000
v -1.50000 -0.08000 -1.50000
f 17 18 19
f 17 19 20
usemtl ChalkLight
v -2.50000 0.86000 -2.50000
v -2.50000 0.86000 -1.50000
v -1.50000 0.86000 -1.50000
v -1.50000 0.86000 -2.50000
f 21 22 23
f 21 23 24
usemtl Stratum
v -2.51250 0.01500 -2.51250
v -2.51250 0.20500 -2.51250
v -1.48750 0.20500 -2.51250
v -1.48750 0.01500 -2.51250
f 25 26 27
f 25 27 28
usemtl Stratum
v -1.48750 0.01500 -1.48750
v -1.48750 0.20500 -1.48750
v -2.51250 0.20500 -1.48750
v -2.51250 0.01500 -1.48750
f 29 30 31
f 29 31 32
usemtl Stratum
v -2.51250 0.01500 -1.48750
v -2.51250 0.20500 -1.48750
v -2.51250 0.20500 -2.51250
v -2.51250 0.01500 -2.51250
f 33 34 35
f 33 35 36
usemtl Stratum
v -1.48750 0.01500 -2.51250
v -1.48750 0.20500 -2.51250
v -1.48750 0.20500 -1.48750
v -1.48750 0.01500 -1.48750
f 37 38 39
f 37 39 40
usemtl Stratum
v -2.51250 0.01500 -1.48750
v -2.51250 0.01500 -2.51250
v -1.48750 0.01500 -2.51250
v -1.48750 0.01500 -1.48750
f 41 42 43
f 41 43 44
usemtl Chalk
v -2.51250 0.20500 -2.51250
v -2.51250 0.20500 -1.48750
v -1.48750 0.20500 -1.48750
v -1.48750 0.20500 -2.51250
f 45 46 47
f 45 47 48
usemtl Chalk
v -1.50000 -0.08000 -2.50000
v -1.50000 0.86000 -2.50000
v -0.50000 0.86000 -2.50000
v -0.50000 -0.08000 -2.50000
f 49 50 51
f 49 51 52
usemtl Chalk
v -0.50000 -0.08000 -1.50000
v -0.50000 0.86000 -1.50000
v -1.50000 0.86000 -1.50000
v -1.50000 -0.08000 -1.50000
f 53 54 55
f 53 55 56
usemtl Chalk
v -1.50000 -0.08000 -1.50000
v -1.50000 0.86000 -1.50000
v -1.50000 0.86000 -2.50000
v -1.50000 -0.08000 -2.50000
f 57 58 59
f 57 59 60
usemtl Chalk
v -0.50000 -0.08000 -2.50000
v -0.50000 0.86000 -2.50000
v -0.50000 0.86000 -1.50000
v -0.50000 -0.08000 -1.50000
f 61 62 63
f 61 63 64
usemtl Chalk
v -1.50000 -0.08000 -1.50000
v -1.50000 -0.08000 -2.50000
v -0.50000 -0.08000 -2.50000
v -0.50000 -0.08000 -1.50000
f 65 66 67
f 65 67 68
usemtl ChalkLight
v -1.50000 0.86000 -2.50000
v -1.50000 0.86000 -1.50000
v -0.50000 0.86000 -1.50000
v -0.50000 0.86000 -2.50000
f 69 70 71
f 69 71 72
usemtl Stratum
v -1.51250 0.01500 -2.51250
v -1.51250 0.20500 -2.51250
v -0.48750 0.20500 -2.51250
v -0.48750 0.01500 -2.51250
f 73 74 75
f 73 75 76
usemtl Stratum
v -0.48750 0.01500 -1.48750
v -0.48750 0.20500 -1.48750
v -1.51250 0.20500 -1.48750
v -1.51250 0.01500 -1.48750
f 77 78 79
f 77 79 80
usemtl Stratum
v -1.51250 0.01500 -1.48750
v -1.51250 0.20500 -1.48750
v -1.51250 0.20500 -2.51250
v -1.51250 0.01500 -2.51250
f 81 82 83
f 81 83 84
usemtl Stratum
v -0.48750 0.01500 -2.51250
v -0.48750 0.20500 -2.51250
v -0.48750 0.20500 -1.48750
v -0.48750 0.01500 -1.48750
f 85 86 87
f 85 87 88
usemtl Stratum
v -1.51250 0.01500 -1.48750
v -1.51250 0.01500 -2.51250
v -0.48750 0.01500 -2.51250
v -0.48750 0.01500 -1.48750
f 89 90 91
f 89 91 92
usemtl Chalk
v -1.51250 0.20500 -2.51250
v -1.51250 0.20500 -1.48750
v -0.48750 0.20500 -1.48750
v -0.48750 0.20500 -2.51250
f 93 94 95
f 93 95 96
usemtl Chalk
v -3.50000 -0.08000 -1.50000
v -3.50000 0.86000 -1.50000
v -2.50000 0.86000 -1.50000
v -2.50000 -0.08000 -1.50000
f 97 98 99
f 97 99 100
usemtl Chalk
v -2.50000 -0.08000 -0.50000
v -2.50000 0.86000 -0.50000
v -3.50000 0.86000 -0.50000
v -3.50000 -0.08000 -0.50000
f 101 102 103
f 101 103 104
usemtl Chalk
v -3.50000 -0.08000 -0.50000
v -3.50000 0.86000 -0.50000
v -3.50000 0.86000 -1.50000
v -3.50000 -0.08000 -1.50000
f 105 106 107
f 105 107 108
usemtl Chalk
v -2.50000 -0.08000 -1.50000
v -2.50000 0.86000 -1.50000
v -2.50000 0.86000 -0.50000
v -2.50000 -0.08000 -0.50000
f 109 110 111
f 109 111 112
usemtl Chalk
v -3.50000 -0.08000 -0.50000
v -3.50000 -0.08000 -1.50000
v -2.50000 -0.08000 -1.50000
v -2.50000 -0.08000 -0.50000
f 113 114 115
f 113 115 116
usemtl ChalkLight
v -3.50000 0.86000 -1.50000
v -3.50000 0.86000 -0.50000
v -2.50000 0.86000 -0.50000
v -2.50000 0.86000 -1.50000
f 117 118 119
f 117 119 120
usemtl Stratum
v -3.51250 0.01500 -1.51250
v -3.51250 0.20500 -1.51250
v -2.48750 0.20500 -1.51250
v -2.48750 0.01500 -1.51250
f 121 122 123
f 121 123 124
usemtl Stratum
v -2.48750 0.01500 -0.48750
v -2.48750 0.20500 -0.48750
v -3.51250 0.20500 -0.48750
v -3.51250 0.01500 -0.48750
f 125 126 127
f 125 127 128
usemtl Stratum
v -3.51250 0.01500 -0.48750
v -3.51250 0.20500 -0.48750
v -3.51250 0.20500 -1.51250
v -3.51250 0.01500 -1.51250
f 129 130 131
f 129 131 132
usemtl Stratum
v -2.48750 0.01500 -1.51250
v -2.48750 0.20500 -1.51250
v -2.48750 0.20500 -0.48750
v -2.48750 0.01500 -0.48750
f 133 134 135
f 133 135 136
usemtl Stratum
v -3.51250 0.01500 -0.48750
v -3.51250 0.01500 -1.51250
v -2.48750 0.01500 -1.51250
v -2.48750 0.01500 -0.48750
f 137 138 139
f 137 139 140
usemtl Chalk
v -3.51250 0.20500 -1.51250
v -3.51250 0.20500 -0.48750
v -2.48750 0.20500 -0.48750
v -2.48750 0.20500 -1.51250
f 141 142 143
f 141 143 144
usemtl Chalk
v -2.50000 -0.08000 -1.50000
v -2.50000 1.47000 -1.50000
v -1.50000 1.47000 -1.50000
v -1.50000 -0.08000 -1.50000
f 145 146 147
f 145 147 148
usemtl Chalk
v -1.50000 -0.08000 -0.50000
v -1.50000 1.47000 -0.50000
v -2.50000 1.47000 -0.50000
v -2.50000 -0.08000 -0.50000
f 149 150 151
f 149 151 152
usemtl Chalk
v -2.50000 -0.08000 -0.50000
v -2.50000 1.47000 -0.50000
v -2.50000 1.47000 -1.50000
v -2.50000 -0.08000 -1.50000
f 153 154 155
f 153 155 156
usemtl Chalk
v -1.50000 -0.08000 -1.50000
v -1.50000 1.47000 -1.50000
v -1.50000 1.47000 -0.50000
v -1.50000 -0.08000 -0.50000
f 157 158 159
f 157 159 160
usemtl Chalk
v -2.50000 -0.08000 -0.50000
v -2.50000 -0.08000 -1.50000
v -1.50000 -0.08000 -1.50000
v -1.50000 -0.08000 -0.50000
f 161 162 163
f 161 163 164
usemtl ChalkLight
v -2.50000 1.47000 -1.50000
v -2.50000 1.47000 -0.50000
v -1.50000 1.47000 -0.50000
v -1.50000 1.47000 -1.50000
f 165 166 167
f 165 167 168
usemtl Stratum
v -2.51250 0.01500 -1.51250
v -2.51250 0.20500 -1.51250
v -1.48750 0.20500 -1.51250
v -1.48750 0.01500 -1.51250
f 169 170 171
f 169 171 172
usemtl Stratum
v -1.48750 0.01500 -0.48750
v -1.48750 0.20500 -0.48750
v -2.51250 0.20500 -0.48750
v -2.51250 0.01500 -0.48750
f 173 174 175
f 173 175 176
usemtl Stratum
v -2.51250 0.01500 -0.48750
v -2.51250 0.20500 -0.48750
v -2.51250 0.20500 -1.51250
v -2.51250 0.01500 -1.51250
f 177 178 179
f 177 179 180
usemtl Stratum
v -1.48750 0.01500 -1.51250
v -1.48750 0.20500 -1.51250
v -1.48750 0.20500 -0.48750
v -1.48750 0.01500 -0.48750
f 181 182 183
f 181 183 184
usemtl Stratum
v -2.51250 0.01500 -0.48750
v -2.51250 0.01500 -1.51250
v -1.48750 0.01500 -1.51250
v -1.48750 0.01500 -0.48750
f 185 186 187
f 185 187 188
usemtl Chalk
v -2.51250 0.20500 -1.51250
v -2.51250 0.20500 -0.48750
v -1.48750 0.20500 -0.48750
v -1.48750 0.20500 -1.51250
f 189 190 191
f 189 191 192
usemtl Chalk
v -1.50000 -0.08000 -1.50000
v -1.50000 1.47000 -1.50000
v -0.50000 1.47000 -1.50000
v -0.50000 -0.08000 -1.50000
f 193 194 195
f 193 195 196
usemtl Chalk
v -0.50000 -0.08000 -0.50000
v -0.50000 1.47000 -0.50000
v -1.50000 1.47000 -0.50000
v -1.50000 -0.08000 -0.50000
f 197 198 199
f 197 199 200
usemtl Chalk
v -1.50000 -0.08000 -0.50000
v -1.50000 1.47000 -0.50000
v -1.50000 1.47000 -1.50000
v -1.50000 -0.08000 -1.50000
f 201 202 203
f 201 203 204
usemtl Chalk
v -0.50000 -0.08000 -1.50000
v -0.50000 1.47000 -1.50000
v -0.50000 1.47000 -0.50000
v -0.50000 -0.08000 -0.50000
f 205 206 207
f 205 207 208
usemtl Chalk
v -1.50000 -0.08000 -0.50000
v -1.50000 -0.08000 -1.50000
v -0.50000 -0.08000 -1.50000
v -0.50000 -0.08000 -0.50000
f 209 210 211
f 209 211 212
usemtl ChalkLight
v -1.50000 1.47000 -1.50000
v -1.50000 1.47000 -0.50000
v -0.50000 1.47000 -0.50000
v -0.50000 1.47000 -1.50000
f 213 214 215
f 213 215 216
usemtl Stratum
v -1.51250 0.01500 -1.51250
v -1.51250 0.20500 -1.51250
v -0.48750 0.20500 -1.51250
v -0.48750 0.01500 -1.51250
f 217 218 219
f 217 219 220
usemtl Stratum
v -0.48750 0.01500 -0.48750
v -0.48750 0.20500 -0.48750
v -1.51250 0.20500 -0.48750
v -1.51250 0.01500 -0.48750
f 221 222 223
f 221 223 224
usemtl Stratum
v -1.51250 0.01500 -0.48750
v -1.51250 0.20500 -0.48750
v -1.51250 0.20500 -1.51250
v -1.51250 0.01500 -1.51250
f 225 226 227
f 225 227 228
usemtl Stratum
v -0.48750 0.01500 -1.51250
v -0.48750 0.20500 -1.51250
v -0.48750 0.20500 -0.48750
v -0.48750 0.01500 -0.48750
f 229 230 231
f 229 231 232
usemtl Stratum
v -1.51250 0.01500 -0.48750
v -1.51250 0.01500 -1.51250
v -0.48750 0.01500 -1.51250
v -0.48750 0.01500 -0.48750
f 233 234 235
f 233 235 236
usemtl Chalk
v -1.51250 0.20500 -1.51250
v -1.51250 0.20500 -0.48750
v -0.48750 0.20500 -0.48750
v -0.48750 0.20500 -1.51250
f 237 238 239
f 237 239 240
usemtl Chalk
v -0.50000 -0.08000 -1.50000
v -0.50000 1.47000 -1.50000
v 0.50000 1.47000 -1.50000
v 0.50000 -0.08000 -1.50000
f 241 242 243
f 241 243 244
usemtl Chalk
v 0.50000 -0.08000 -0.50000
v 0.50000 1.47000 -0.50000
v -0.50000 1.47000 -0.50000
v -0.50000 -0.08000 -0.50000
f 245 246 247
f 245 247 248
usemtl Chalk
v -0.50000 -0.08000 -0.50000
v -0.50000 1.47000 -0.50000
v -0.50000 1.47000 -1.50000
v -0.50000 -0.08000 -1.50000
f 249 250 251
f 249 251 252
usemtl Chalk
v 0.50000 -0.08000 -1.50000
v 0.50000 1.47000 -1.50000
v 0.50000 1.47000 -0.50000
v 0.50000 -0.08000 -0.50000
f 253 254 255
f 253 255 256
usemtl Chalk
v -0.50000 -0.08000 -0.50000
v -0.50000 -0.08000 -1.50000
v 0.50000 -0.08000 -1.50000
v 0.50000 -0.08000 -0.50000
f 257 258 259
f 257 259 260
usemtl ChalkLight
v -0.50000 1.47000 -1.50000
v -0.50000 1.47000 -0.50000
v 0.50000 1.47000 -0.50000
v 0.50000 1.47000 -1.50000
f 261 262 263
f 261 263 264
usemtl Stratum
v -0.51250 0.01500 -1.51250
v -0.51250 0.20500 -1.51250
v 0.51250 0.20500 -1.51250
v 0.51250 0.01500 -1.51250
f 265 266 267
f 265 267 268
usemtl Stratum
v 0.51250 0.01500 -0.48750
v 0.51250 0.20500 -0.48750
v -0.51250 0.20500 -0.48750
v -0.51250 0.01500 -0.48750
f 269 270 271
f 269 271 272
usemtl Stratum
v -0.51250 0.01500 -0.48750
v -0.51250 0.20500 -0.48750
v -0.51250 0.20500 -1.51250
v -0.51250 0.01500 -1.51250
f 273 274 275
f 273 275 276
usemtl Stratum
v 0.51250 0.01500 -1.51250
v 0.51250 0.20500 -1.51250
v 0.51250 0.20500 -0.48750
v 0.51250 0.01500 -0.48750
f 277 278 279
f 277 279 280
usemtl Stratum
v -0.51250 0.01500 -0.48750
v -0.51250 0.01500 -1.51250
v 0.51250 0.01500 -1.51250
v 0.51250 0.01500 -0.48750
f 281 282 283
f 281 283 284
usemtl Chalk
v -0.51250 0.20500 -1.51250
v -0.51250 0.20500 -0.48750
v 0.51250 0.20500 -0.48750
v 0.51250 0.20500 -1.51250
f 285 286 287
f 285 287 288
usemtl Chalk
v 0.50000 -0.08000 -1.50000
v 0.50000 0.86000 -1.50000
v 1.50000 0.86000 -1.50000
v 1.50000 -0.08000 -1.50000
f 289 290 291
f 289 291 292
usemtl Chalk
v 1.50000 -0.08000 -0.50000
v 1.50000 0.86000 -0.50000
v 0.50000 0.86000 -0.50000
v 0.50000 -0.08000 -0.50000
f 293 294 295
f 293 295 296
usemtl Chalk
v 0.50000 -0.08000 -0.50000
v 0.50000 0.86000 -0.50000
v 0.50000 0.86000 -1.50000
v 0.50000 -0.08000 -1.50000
f 297 298 299
f 297 299 300
usemtl Chalk
v 1.50000 -0.08000 -1.50000
v 1.50000 0.86000 -1.50000
v 1.50000 0.86000 -0.50000
v 1.50000 -0.08000 -0.50000
f 301 302 303
f 301 303 304
usemtl Chalk
v 0.50000 -0.08000 -0.50000
v 0.50000 -0.08000 -1.50000
v 1.50000 -0.08000 -1.50000
v 1.50000 -0.08000 -0.50000
f 305 306 307
f 305 307 308
usemtl ChalkLight
v 0.50000 0.86000 -1.50000
v 0.50000 0.86000 -0.50000
v 1.50000 0.86000 -0.50000
v 1.50000 0.86000 -1.50000
f 309 310 311
f 309 311 312
usemtl Stratum
v 0.48750 0.01500 -1.51250
v 0.48750 0.20500 -1.51250
v 1.51250 0.20500 -1.51250
v 1.51250 0.01500 -1.51250
f 313 314 315
f 313 315 316
usemtl Stratum
v 1.51250 0.01500 -0.48750
v 1.51250 0.20500 -0.48750
v 0.48750 0.20500 -0.48750
v 0.48750 0.01500 -0.48750
f 317 318 319
f 317 319 320
usemtl Stratum
v 0.48750 0.01500 -0.48750
v 0.48750 0.20500 -0.48750
v 0.48750 0.20500 -1.51250
v 0.48750 0.01500 -1.51250
f 321 322 323
f 321 323 324
usemtl Stratum
v 1.51250 0.01500 -1.51250
v 1.51250 0.20500 -1.51250
v 1.51250 0.20500 -0.48750
v 1.51250 0.01500 -0.48750
f 325 326 327
f 325 327 328
usemtl Stratum
v 0.48750 0.01500 -0.48750
v 0.48750 0.01500 -1.51250
v 1.51250 0.01500 -1.51250
v 1.51250 0.01500 -0.48750
f 329 330 331
f 329 331 332
usemtl Chalk
v 0.48750 0.20500 -1.51250
v 0.48750 0.20500 -0.48750
v 1.51250 0.20500 -0.48750
v 1.51250 0.20500 -1.51250
f 333 334 335
f 333 335 336
usemtl Chalk
v -3.50000 -0.08000 -0.50000
v -3.50000 0.86000 -0.50000
v -2.50000 0.86000 -0.50000
v -2.50000 -0.08000 -0.50000
f 337 338 339
f 337 339 340
usemtl Chalk
v -2.50000 -0.08000 0.50000
v -2.50000 0.86000 0.50000
v -3.50000 0.86000 0.50000
v -3.50000 -0.08000 0.50000
f 341 342 343
f 341 343 344
usemtl Chalk
v -3.50000 -0.08000 0.50000
v -3.50000 0.86000 0.50000
v -3.50000 0.86000 -0.50000
v -3.50000 -0.08000 -0.50000
f 345 346 347
f 345 347 348
usemtl Chalk
v -2.50000 -0.08000 -0.50000
v -2.50000 0.86000 -0.50000
v -2.50000 0.86000 0.50000
v -2.50000 -0.08000 0.50000
f 349 350 351
f 349 351 352
usemtl Chalk
v -3.50000 -0.08000 0.50000
v -3.50000 -0.08000 -0.50000
v -2.50000 -0.08000 -0.50000
v -2.50000 -0.08000 0.50000
f 353 354 355
f 353 355 356
usemtl ChalkLight
v -3.50000 0.86000 -0.50000
v -3.50000 0.86000 0.50000
v -2.50000 0.86000 0.50000
v -2.50000 0.86000 -0.50000
f 357 358 359
f 357 359 360
usemtl Stratum
v -3.51250 0.01500 -0.51250
v -3.51250 0.20500 -0.51250
v -2.48750 0.20500 -0.51250
v -2.48750 0.01500 -0.51250
f 361 362 363
f 361 363 364
usemtl Stratum
v -2.48750 0.01500 0.51250
v -2.48750 0.20500 0.51250
v -3.51250 0.20500 0.51250
v -3.51250 0.01500 0.51250
f 365 366 367
f 365 367 368
usemtl Stratum
v -3.51250 0.01500 0.51250
v -3.51250 0.20500 0.51250
v -3.51250 0.20500 -0.51250
v -3.51250 0.01500 -0.51250
f 369 370 371
f 369 371 372
usemtl Stratum
v -2.48750 0.01500 -0.51250
v -2.48750 0.20500 -0.51250
v -2.48750 0.20500 0.51250
v -2.48750 0.01500 0.51250
f 373 374 375
f 373 375 376
usemtl Stratum
v -3.51250 0.01500 0.51250
v -3.51250 0.01500 -0.51250
v -2.48750 0.01500 -0.51250
v -2.48750 0.01500 0.51250
f 377 378 379
f 377 379 380
usemtl Chalk
v -3.51250 0.20500 -0.51250
v -3.51250 0.20500 0.51250
v -2.48750 0.20500 0.51250
v -2.48750 0.20500 -0.51250
f 381 382 383
f 381 383 384
usemtl Chalk
v -2.50000 -0.08000 -0.50000
v -2.50000 1.47000 -0.50000
v -1.50000 1.47000 -0.50000
v -1.50000 -0.08000 -0.50000
f 385 386 387
f 385 387 388
usemtl Chalk
v -1.50000 -0.08000 0.50000
v -1.50000 1.47000 0.50000
v -2.50000 1.47000 0.50000
v -2.50000 -0.08000 0.50000
f 389 390 391
f 389 391 392
usemtl Chalk
v -2.50000 -0.08000 0.50000
v -2.50000 1.47000 0.50000
v -2.50000 1.47000 -0.50000
v -2.50000 -0.08000 -0.50000
f 393 394 395
f 393 395 396
usemtl Chalk
v -1.50000 -0.08000 -0.50000
v -1.50000 1.47000 -0.50000
v -1.50000 1.47000 0.50000
v -1.50000 -0.08000 0.50000
f 397 398 399
f 397 399 400
usemtl Chalk
v -2.50000 -0.08000 0.50000
v -2.50000 -0.08000 -0.50000
v -1.50000 -0.08000 -0.50000
v -1.50000 -0.08000 0.50000
f 401 402 403
f 401 403 404
usemtl ChalkLight
v -2.50000 1.47000 -0.50000
v -2.50000 1.47000 0.50000
v -1.50000 1.47000 0.50000
v -1.50000 1.47000 -0.50000
f 405 406 407
f 405 407 408
usemtl Stratum
v -2.51250 0.01500 -0.51250
v -2.51250 0.20500 -0.51250
v -1.48750 0.20500 -0.51250
v -1.48750 0.01500 -0.51250
f 409 410 411
f 409 411 412
usemtl Stratum
v -1.48750 0.01500 0.51250
v -1.48750 0.20500 0.51250
v -2.51250 0.20500 0.51250
v -2.51250 0.01500 0.51250
f 413 414 415
f 413 415 416
usemtl Stratum
v -2.51250 0.01500 0.51250
v -2.51250 0.20500 0.51250
v -2.51250 0.20500 -0.51250
v -2.51250 0.01500 -0.51250
f 417 418 419
f 417 419 420
usemtl Stratum
v -1.48750 0.01500 -0.51250
v -1.48750 0.20500 -0.51250
v -1.48750 0.20500 0.51250
v -1.48750 0.01500 0.51250
f 421 422 423
f 421 423 424
usemtl Stratum
v -2.51250 0.01500 0.51250
v -2.51250 0.01500 -0.51250
v -1.48750 0.01500 -0.51250
v -1.48750 0.01500 0.51250
f 425 426 427
f 425 427 428
usemtl Chalk
v -2.51250 0.20500 -0.51250
v -2.51250 0.20500 0.51250
v -1.48750 0.20500 0.51250
v -1.48750 0.20500 -0.51250
f 429 430 431
f 429 431 432
usemtl Chalk
v -1.50000 -0.08000 -0.50000
v -1.50000 2.08000 -0.50000
v -0.50000 2.08000 -0.50000
v -0.50000 -0.08000 -0.50000
f 433 434 435
f 433 435 436
usemtl Chalk
v -0.50000 -0.08000 0.50000
v -0.50000 2.08000 0.50000
v -1.50000 2.08000 0.50000
v -1.50000 -0.08000 0.50000
f 437 438 439
f 437 439 440
usemtl Chalk
v -1.50000 -0.08000 0.50000
v -1.50000 2.08000 0.50000
v -1.50000 2.08000 -0.50000
v -1.50000 -0.08000 -0.50000
f 441 442 443
f 441 443 444
usemtl Chalk
v -0.50000 -0.08000 -0.50000
v -0.50000 2.08000 -0.50000
v -0.50000 2.08000 0.50000
v -0.50000 -0.08000 0.50000
f 445 446 447
f 445 447 448
usemtl Chalk
v -1.50000 -0.08000 0.50000
v -1.50000 -0.08000 -0.50000
v -0.50000 -0.08000 -0.50000
v -0.50000 -0.08000 0.50000
f 449 450 451
f 449 451 452
usemtl ChalkLight
v -1.50000 2.08000 -0.50000
v -1.50000 2.08000 0.50000
v -0.50000 2.08000 0.50000
v -0.50000 2.08000 -0.50000
f 453 454 455
f 453 455 456
usemtl Stratum
v -1.51250 0.01500 -0.51250
v -1.51250 0.20500 -0.51250
v -0.48750 0.20500 -0.51250
v -0.48750 0.01500 -0.51250
f 457 458 459
f 457 459 460
usemtl Stratum
v -0.48750 0.01500 0.51250
v -0.48750 0.20500 0.51250
v -1.51250 0.20500 0.51250
v -1.51250 0.01500 0.51250
f 461 462 463
f 461 463 464
usemtl Stratum
v -1.51250 0.01500 0.51250
v -1.51250 0.20500 0.51250
v -1.51250 0.20500 -0.51250
v -1.51250 0.01500 -0.51250
f 465 466 467
f 465 467 468
usemtl Stratum
v -0.48750 0.01500 -0.51250
v -0.48750 0.20500 -0.51250
v -0.48750 0.20500 0.51250
v -0.48750 0.01500 0.51250
f 469 470 471
f 469 471 472
usemtl Stratum
v -1.51250 0.01500 0.51250
v -1.51250 0.01500 -0.51250
v -0.48750 0.01500 -0.51250
v -0.48750 0.01500 0.51250
f 473 474 475
f 473 475 476
usemtl Chalk
v -1.51250 0.20500 -0.51250
v -1.51250 0.20500 0.51250
v -0.48750 0.20500 0.51250
v -0.48750 0.20500 -0.51250
f 477 478 479
f 477 479 480
usemtl Chalk
v -0.50000 -0.08000 -0.50000
v -0.50000 2.08000 -0.50000
v 0.50000 2.08000 -0.50000
v 0.50000 -0.08000 -0.50000
f 481 482 483
f 481 483 484
usemtl Chalk
v 0.50000 -0.08000 0.50000
v 0.50000 2.08000 0.50000
v -0.50000 2.08000 0.50000
v -0.50000 -0.08000 0.50000
f 485 486 487
f 485 487 488
usemtl Chalk
v -0.50000 -0.08000 0.50000
v -0.50000 2.08000 0.50000
v -0.50000 2.08000 -0.50000
v -0.50000 -0.08000 -0.50000
f 489 490 491
f 489 491 492
usemtl Chalk
v 0.50000 -0.08000 -0.50000
v 0.50000 2.08000 -0.50000
v 0.50000 2.08000 0.50000
v 0.50000 -0.08000 0.50000
f 493 494 495
f 493 495 496
usemtl Chalk
v -0.50000 -0.08000 0.50000
v -0.50000 -0.08000 -0.50000
v 0.50000 -0.08000 -0.50000
v 0.50000 -0.08000 0.50000
f 497 498 499
f 497 499 500
usemtl ChalkLight
v -0.50000 2.08000 -0.50000
v -0.50000 2.08000 0.50000
v 0.50000 2.08000 0.50000
v 0.50000 2.08000 -0.50000
f 501 502 503
f 501 503 504
usemtl Stratum
v -0.51250 0.01500 -0.51250
v -0.51250 0.20500 -0.51250
v 0.51250 0.20500 -0.51250
v 0.51250 0.01500 -0.51250
f 505 506 507
f 505 507 508
usemtl Stratum
v 0.51250 0.01500 0.51250
v 0.51250 0.20500 0.51250
v -0.51250 0.20500 0.51250
v -0.51250 0.01500 0.51250
f 509 510 511
f 509 511 512
usemtl Stratum
v -0.51250 0.01500 0.51250
v -0.51250 0.20500 0.51250
v -0.51250 0.20500 -0.51250
v -0.51250 0.01500 -0.51250
f 513 514 515
f 513 515 516
usemtl Stratum
v 0.51250 0.01500 -0.51250
v 0.51250 0.20500 -0.51250
v 0.51250 0.20500 0.51250
v 0.51250 0.01500 0.51250
f 517 518 519
f 517 519 520
usemtl Stratum
v -0.51250 0.01500 0.51250
v -0.51250 0.01500 -0.51250
v 0.51250 0.01500 -0.51250
v 0.51250 0.01500 0.51250
f 521 522 523
f 521 523 524
usemtl Chalk
v -0.51250 0.20500 -0.51250
v -0.51250 0.20500 0.51250
v 0.51250 0.20500 0.51250
v 0.51250 0.20500 -0.51250
f 525 526 527
f 525 527 528
usemtl Chalk
v 0.50000 -0.08000 -0.50000
v 0.50000 1.47000 -0.50000
v 1.50000 1.47000 -0.50000
v 1.50000 -0.08000 -0.50000
f 529 530 531
f 529 531 532
usemtl Chalk
v 1.50000 -0.08000 0.50000
v 1.50000 1.47000 0.50000
v 0.50000 1.47000 0.50000
v 0.50000 -0.08000 0.50000
f 533 534 535
f 533 535 536
usemtl Chalk
v 0.50000 -0.08000 0.50000
v 0.50000 1.47000 0.50000
v 0.50000 1.47000 -0.50000
v 0.50000 -0.08000 -0.50000
f 537 538 539
f 537 539 540
usemtl Chalk
v 1.50000 -0.08000 -0.50000
v 1.50000 1.47000 -0.50000
v 1.50000 1.47000 0.50000
v 1.50000 -0.08000 0.50000
f 541 542 543
f 541 543 544
usemtl Chalk
v 0.50000 -0.08000 0.50000
v 0.50000 -0.08000 -0.50000
v 1.50000 -0.08000 -0.50000
v 1.50000 -0.08000 0.50000
f 545 546 547
f 545 547 548
usemtl ChalkLight
v 0.50000 1.47000 -0.50000
v 0.50000 1.47000 0.50000
v 1.50000 1.47000 0.50000
v 1.50000 1.47000 -0.50000
f 549 550 551
f 549 551 552
usemtl Stratum
v 0.48750 0.01500 -0.51250
v 0.48750 0.20500 -0.51250
v 1.51250 0.20500 -0.51250
v 1.51250 0.01500 -0.51250
f 553 554 555
f 553 555 556
usemtl Stratum
v 1.51250 0.01500 0.51250
v 1.51250 0.20500 0.51250
v 0.48750 0.20500 0.51250
v 0.48750 0.01500 0.51250
f 557 558 559
f 557 559 560
usemtl Stratum
v 0.48750 0.01500 0.51250
v 0.48750 0.20500 0.51250
v 0.48750 0.20500 -0.51250
v 0.48750 0.01500 -0.51250
f 561 562 563
f 561 563 564
usemtl Stratum
v 1.51250 0.01500 -0.51250
v 1.51250 0.20500 -0.51250
v 1.51250 0.20500 0.51250
v 1.51250 0.01500 0.51250
f 565 566 567
f 565 567 568
usemtl Stratum
v 0.48750 0.01500 0.51250
v 0.48750 0.01500 -0.51250
v 1.51250 0.01500 -0.51250
v 1.51250 0.01500 0.51250
f 569 570 571
f 569 571 572
usemtl Chalk
v 0.48750 0.20500 -0.51250
v 0.48750 0.20500 0.51250
v 1.51250 0.20500 0.51250
v 1.51250 0.20500 -0.51250
f 573 574 575
f 573 575 576
usemtl Chalk
v 1.50000 -0.08000 -0.50000
v 1.50000 0.86000 -0.50000
v 2.50000 0.86000 -0.50000
v 2.50000 -0.08000 -0.50000
f 577 578 579
f 577 579 580
usemtl Chalk
v 2.50000 -0.08000 0.50000
v 2.50000 0.86000 0.50000
v 1.50000 0.86000 0.50000
v 1.50000 -0.08000 0.50000
f 581 582 583
f 581 583 584
usemtl Chalk
v 1.50000 -0.08000 0.50000
v 1.50000 0.86000 0.50000
v 1.50000 0.86000 -0.50000
v 1.50000 -0.08000 -0.50000
f 585 586 587
f 585 587 588
usemtl Chalk
v 2.50000 -0.08000 -0.50000
v 2.50000 0.86000 -0.50000
v 2.50000 0.86000 0.50000
v 2.50000 -0.08000 0.50000
f 589 590 591
f 589 591 592
usemtl Chalk
v 1.50000 -0.08000 0.50000
v 1.50000 -0.08000 -0.50000
v 2.50000 -0.08000 -0.50000
v 2.50000 -0.08000 0.50000
f 593 594 595
f 593 595 596
usemtl ChalkLight
v 1.50000 0.86000 -0.50000
v 1.50000 0.86000 0.50000
v 2.50000 0.86000 0.50000
v 2.50000 0.86000 -0.50000
f 597 598 599
f 597 599 600
usemtl Stratum
v 1.48750 0.01500 -0.51250
v 1.48750 0.20500 -0.51250
v 2.51250 0.20500 -0.51250
v 2.51250 0.01500 -0.51250
f 601 602 603
f 601 603 604
usemtl Stratum
v 2.51250 0.01500 0.51250
v 2.51250 0.20500 0.51250
v 1.48750 0.20500 0.51250
v 1.48750 0.01500 0.51250
f 605 606 607
f 605 607 608
usemtl Stratum
v 1.48750 0.01500 0.51250
v 1.48750 0.20500 0.51250
v 1.48750 0.20500 -0.51250
v 1.48750 0.01500 -0.51250
f 609 610 611
f 609 611 612
usemtl Stratum
v 2.51250 0.01500 -0.51250
v 2.51250 0.20500 -0.51250
v 2.51250 0.20500 0.51250
v 2.51250 0.01500 0.51250
f 613 614 615
f 613 615 616
usemtl Stratum
v 1.48750 0.01500 0.51250
v 1.48750 0.01500 -0.51250
v 2.51250 0.01500 -0.51250
v 2.51250 0.01500 0.51250
f 617 618 619
f 617 619 620
usemtl Chalk
v 1.48750 0.20500 -0.51250
v 1.48750 0.20500 0.51250
v 2.51250 0.20500 0.51250
v 2.51250 0.20500 -0.51250
f 621 622 623
f 621 623 624
usemtl Chalk
v -2.50000 -0.08000 0.50000
v -2.50000 1.47000 0.50000
v -1.50000 1.47000 0.50000
v -1.50000 -0.08000 0.50000
f 625 626 627
f 625 627 628
usemtl Chalk
v -1.50000 -0.08000 1.50000
v -1.50000 1.47000 1.50000
v -2.50000 1.47000 1.50000
v -2.50000 -0.08000 1.50000
f 629 630 631
f 629 631 632
usemtl Chalk
v -2.50000 -0.08000 1.50000
v -2.50000 1.47000 1.50000
v -2.50000 1.47000 0.50000
v -2.50000 -0.08000 0.50000
f 633 634 635
f 633 635 636
usemtl Chalk
v -1.50000 -0.08000 0.50000
v -1.50000 1.47000 0.50000
v -1.50000 1.47000 1.50000
v -1.50000 -0.08000 1.50000
f 637 638 639
f 637 639 640
usemtl Chalk
v -2.50000 -0.08000 1.50000
v -2.50000 -0.08000 0.50000
v -1.50000 -0.08000 0.50000
v -1.50000 -0.08000 1.50000
f 641 642 643
f 641 643 644
usemtl ChalkLight
v -2.50000 1.47000 0.50000
v -2.50000 1.47000 1.50000
v -1.50000 1.47000 1.50000
v -1.50000 1.47000 0.50000
f 645 646 647
f 645 647 648
usemtl Stratum
v -2.51250 0.01500 0.48750
v -2.51250 0.20500 0.48750
v -1.48750 0.20500 0.48750
v -1.48750 0.01500 0.48750
f 649 650 651
f 649 651 652
usemtl Stratum
v -1.48750 0.01500 1.51250
v -1.48750 0.20500 1.51250
v -2.51250 0.20500 1.51250
v -2.51250 0.01500 1.51250
f 653 654 655
f 653 655 656
usemtl Stratum
v -2.51250 0.01500 1.51250
v -2.51250 0.20500 1.51250
v -2.51250 0.20500 0.48750
v -2.51250 0.01500 0.48750
f 657 658 659
f 657 659 660
usemtl Stratum
v -1.48750 0.01500 0.48750
v -1.48750 0.20500 0.48750
v -1.48750 0.20500 1.51250
v -1.48750 0.01500 1.51250
f 661 662 663
f 661 663 664
usemtl Stratum
v -2.51250 0.01500 1.51250
v -2.51250 0.01500 0.48750
v -1.48750 0.01500 0.48750
v -1.48750 0.01500 1.51250
f 665 666 667
f 665 667 668
usemtl Chalk
v -2.51250 0.20500 0.48750
v -2.51250 0.20500 1.51250
v -1.48750 0.20500 1.51250
v -1.48750 0.20500 0.48750
f 669 670 671
f 669 671 672
usemtl Chalk
v -1.50000 -0.08000 0.50000
v -1.50000 2.08000 0.50000
v -0.50000 2.08000 0.50000
v -0.50000 -0.08000 0.50000
f 673 674 675
f 673 675 676
usemtl Chalk
v -0.50000 -0.08000 1.50000
v -0.50000 2.08000 1.50000
v -1.50000 2.08000 1.50000
v -1.50000 -0.08000 1.50000
f 677 678 679
f 677 679 680
usemtl Chalk
v -1.50000 -0.08000 1.50000
v -1.50000 2.08000 1.50000
v -1.50000 2.08000 0.50000
v -1.50000 -0.08000 0.50000
f 681 682 683
f 681 683 684
usemtl Chalk
v -0.50000 -0.08000 0.50000
v -0.50000 2.08000 0.50000
v -0.50000 2.08000 1.50000
v -0.50000 -0.08000 1.50000
f 685 686 687
f 685 687 688
usemtl Chalk
v -1.50000 -0.08000 1.50000
v -1.50000 -0.08000 0.50000
v -0.50000 -0.08000 0.50000
v -0.50000 -0.08000 1.50000
f 689 690 691
f 689 691 692
usemtl ChalkLight
v -1.50000 2.08000 0.50000
v -1.50000 2.08000 1.50000
v -0.50000 2.08000 1.50000
v -0.50000 2.08000 0.50000
f 693 694 695
f 693 695 696
usemtl Stratum
v -1.51250 0.01500 0.48750
v -1.51250 0.20500 0.48750
v -0.48750 0.20500 0.48750
v -0.48750 0.01500 0.48750
f 697 698 699
f 697 699 700
usemtl Stratum
v -0.48750 0.01500 1.51250
v -0.48750 0.20500 1.51250
v -1.51250 0.20500 1.51250
v -1.51250 0.01500 1.51250
f 701 702 703
f 701 703 704
usemtl Stratum
v -1.51250 0.01500 1.51250
v -1.51250 0.20500 1.51250
v -1.51250 0.20500 0.48750
v -1.51250 0.01500 0.48750
f 705 706 707
f 705 707 708
usemtl Stratum
v -0.48750 0.01500 0.48750
v -0.48750 0.20500 0.48750
v -0.48750 0.20500 1.51250
v -0.48750 0.01500 1.51250
f 709 710 711
f 709 711 712
usemtl Stratum
v -1.51250 0.01500 1.51250
v -1.51250 0.01500 0.48750
v -0.48750 0.01500 0.48750
v -0.48750 0.01500 1.51250
f 713 714 715
f 713 715 716
usemtl Chalk
v -1.51250 0.20500 0.48750
v -1.51250 0.20500 1.51250
v -0.48750 0.20500 1.51250
v -0.48750 0.20500 0.48750
f 717 718 719
f 717 719 720
usemtl Chalk
v -0.50000 -0.08000 0.50000
v -0.50000 3.30000 0.50000
v 0.50000 3.30000 0.50000
v 0.50000 -0.08000 0.50000
f 721 722 723
f 721 723 724
usemtl Chalk
v 0.50000 -0.08000 1.50000
v 0.50000 3.30000 1.50000
v -0.50000 3.30000 1.50000
v -0.50000 -0.08000 1.50000
f 725 726 727
f 725 727 728
usemtl Chalk
v -0.50000 -0.08000 1.50000
v -0.50000 3.30000 1.50000
v -0.50000 3.30000 0.50000
v -0.50000 -0.08000 0.50000
f 729 730 731
f 729 731 732
usemtl Chalk
v 0.50000 -0.08000 0.50000
v 0.50000 3.30000 0.50000
v 0.50000 3.30000 1.50000
v 0.50000 -0.08000 1.50000
f 733 734 735
f 733 735 736
usemtl Chalk
v -0.50000 -0.08000 1.50000
v -0.50000 -0.08000 0.50000
v 0.50000 -0.08000 0.50000
v 0.50000 -0.08000 1.50000
f 737 738 739
f 737 739 740
usemtl ChalkLight
v -0.50000 3.30000 0.50000
v -0.50000 3.30000 1.50000
v 0.50000 3.30000 1.50000
v 0.50000 3.30000 0.50000
f 741 742 743
f 741 743 744
usemtl Stratum
v -0.51250 0.01500 0.48750
v -0.51250 0.20500 0.48750
v 0.51250 0.20500 0.48750
v 0.51250 0.01500 0.48750
f 745 746 747
f 745 747 748
usemtl Stratum
v 0.51250 0.01500 1.51250
v 0.51250 0.20500 1.51250
v -0.51250 0.20500 1.51250
v -0.51250 0.01500 1.51250
f 749 750 751
f 749 751 752
usemtl Stratum
v -0.51250 0.01500 1.51250
v -0.51250 0.20500 1.51250
v -0.51250 0.20500 0.48750
v -0.51250 0.01500 0.48750
f 753 754 755
f 753 755 756
usemtl Stratum
v 0.51250 0.01500 0.48750
v 0.51250 0.20500 0.48750
v 0.51250 0.20500 1.51250
v 0.51250 0.01500 1.51250
f 757 758 759
f 757 759 760
usemtl Stratum
v -0.51250 0.01500 1.51250
v -0.51250 0.01500 0.48750
v 0.51250 0.01500 0.48750
v 0.51250 0.01500 1.51250
f 761 762 763
f 761 763 764
usemtl Chalk
v -0.51250 0.20500 0.48750
v -0.51250 0.20500 1.51250
v 0.51250 0.20500 1.51250
v 0.51250 0.20500 0.48750
f 765 766 767
f 765 767 768
usemtl Chalk
v 0.50000 -0.08000 0.50000
v 0.50000 2.08000 0.50000
v 1.50000 2.08000 0.50000
v 1.50000 -0.08000 0.50000
f 769 770 771
f 769 771 772
usemtl Chalk
v 1.50000 -0.08000 1.50000
v 1.50000 2.08000 1.50000
v 0.50000 2.08000 1.50000
v 0.50000 -0.08000 1.50000
f 773 774 775
f 773 775 776
usemtl Chalk
v 0.50000 -0.08000 1.50000
v 0.50000 2.08000 1.50000
v 0.50000 2.08000 0.50000
v 0.50000 -0.08000 0.50000
f 777 778 779
f 777 779 780
usemtl Chalk
v 1.50000 -0.08000 0.50000
v 1.50000 2.08000 0.50000
v 1.50000 2.08000 1.50000
v 1.50000 -0.08000 1.50000
f 781 782 783
f 781 783 784
usemtl Chalk
v 0.50000 -0.08000 1.50000
v 0.50000 -0.08000 0.50000
v 1.50000 -0.08000 0.50000
v 1.50000 -0.08000 1.50000
f 785 786 787
f 785 787 788
usemtl ChalkLight
v 0.50000 2.08000 0.50000
v 0.50000 2.08000 1.50000
v 1.50000 2.08000 1.50000
v 1.50000 2.08000 0.50000
f 789 790 791
f 789 791 792
usemtl Stratum
v 0.48750 0.01500 0.48750
v 0.48750 0.20500 0.48750
v 1.51250 0.20500 0.48750
v 1.51250 0.01500 0.48750
f 793 794 795
f 793 795 796
usemtl Stratum
v 1.51250 0.01500 1.51250
v 1.51250 0.20500 1.51250
v 0.48750 0.20500 1.51250
v 0.48750 0.01500 1.51250
f 797 798 799
f 797 799 800
usemtl Stratum
v 0.48750 0.01500 1.51250
v 0.48750 0.20500 1.51250
v 0.48750 0.20500 0.48750
v 0.48750 0.01500 0.48750
f 801 802 803
f 801 803 804
usemtl Stratum
v 1.51250 0.01500 0.48750
v 1.51250 0.20500 0.48750
v 1.51250 0.20500 1.51250
v 1.51250 0.01500 1.51250
f 805 806 807
f 805 807 808
usemtl Stratum
v 0.48750 0.01500 1.51250
v 0.48750 0.01500 0.48750
v 1.51250 0.01500 0.48750
v 1.51250 0.01500 1.51250
f 809 810 811
f 809 811 812
usemtl Chalk
v 0.48750 0.20500 0.48750
v 0.48750 0.20500 1.51250
v 1.51250 0.20500 1.51250
v 1.51250 0.20500 0.48750
f 813 814 815
f 813 815 816
usemtl Chalk
v 1.50000 -0.08000 0.50000
v 1.50000 1.47000 0.50000
v 2.50000 1.47000 0.50000
v 2.50000 -0.08000 0.50000
f 817 818 819
f 817 819 820
usemtl Chalk
v 2.50000 -0.08000 1.50000
v 2.50000 1.47000 1.50000
v 1.50000 1.47000 1.50000
v 1.50000 -0.08000 1.50000
f 821 822 823
f 821 823 824
usemtl Chalk
v 1.50000 -0.08000 1.50000
v 1.50000 1.47000 1.50000
v 1.50000 1.47000 0.50000
v 1.50000 -0.08000 0.50000
f 825 826 827
f 825 827 828
usemtl Chalk
v 2.50000 -0.08000 0.50000
v 2.50000 1.47000 0.50000
v 2.50000 1.47000 1.50000
v 2.50000 -0.08000 1.50000
f 829 830 831
f 829 831 832
usemtl Chalk
v 1.50000 -0.08000 1.50000
v 1.50000 -0.08000 0.50000
v 2.50000 -0.08000 0.50000
v 2.50000 -0.08000 1.50000
f 833 834 835
f 833 835 836
usemtl ChalkLight
v 1.50000 1.47000 0.50000
v 1.50000 1.47000 1.50000
v 2.50000 1.47000 1.50000
v 2.50000 1.47000 0.50000
f 837 838 839
f 837 839 840
usemtl Stratum
v 1.48750 0.01500 0.48750
v 1.48750 0.20500 0.48750
v 2.51250 0.20500 0.48750
v 2.51250 0.01500 0.48750
f 841 842 843
f 841 843 844
usemtl Stratum
v 2.51250 0.01500 1.51250
v 2.51250 0.20500 1.51250
v 1.48750 0.20500 1.51250
v 1.48750 0.01500 1.51250
f 845 846 847
f 845 847 848
usemtl Stratum
v 1.48750 0.01500 1.51250
v 1.48750 0.20500 1.51250
v 1.48750 0.20500 0.48750
v 1.48750 0.01500 0.48750
f 849 850 851
f 849 851 852
usemtl Stratum
v 2.51250 0.01500 0.48750
v 2.51250 0.20500 0.48750
v 2.51250 0.20500 1.51250
v 2.51250 0.01500 1.51250
f 853 854 855
f 853 855 856
usemtl Stratum
v 1.48750 0.01500 1.51250
v 1.48750 0.01500 0.48750
v 2.51250 0.01500 0.48750
v 2.51250 0.01500 1.51250
f 857 858 859
f 857 859 860
usemtl Chalk
v 1.48750 0.20500 0.48750
v 1.48750 0.20500 1.51250
v 2.51250 0.20500 1.51250
v 2.51250 0.20500 0.48750
f 861 862 863
f 861 863 864
usemtl Chalk
v 2.50000 -0.08000 0.50000
v 2.50000 0.86000 0.50000
v 3.50000 0.86000 0.50000
v 3.50000 -0.08000 0.50000
f 865 866 867
f 865 867 868
usemtl Chalk
v 3.50000 -0.08000 1.50000
v 3.50000 0.86000 1.50000
v 2.50000 0.86000 1.50000
v 2.50000 -0.08000 1.50000
f 869 870 871
f 869 871 872
usemtl Chalk
v 2.50000 -0.08000 1.50000
v 2.50000 0.86000 1.50000
v 2.50000 0.86000 0.50000
v 2.50000 -0.08000 0.50000
f 873 874 875
f 873 875 876
usemtl Chalk
v 3.50000 -0.08000 0.50000
v 3.50000 0.86000 0.50000
v 3.50000 0.86000 1.50000
v 3.50000 -0.08000 1.50000
f 877 878 879
f 877 879 880
usemtl Chalk
v 2.50000 -0.08000 1.50000
v 2.50000 -0.08000 0.50000
v 3.50000 -0.08000 0.50000
v 3.50000 -0.08000 1.50000
f 881 882 883
f 881 883 884
usemtl ChalkLight
v 2.50000 0.86000 0.50000
v 2.50000 0.86000 1.50000
v 3.50000 0.86000 1.50000
v 3.50000 0.86000 0.50000
f 885 886 887
f 885 887 888
usemtl Stratum
v 2.48750 0.01500 0.48750
v 2.48750 0.20500 0.48750
v 3.51250 0.20500 0.48750
v 3.51250 0.01500 0.48750
f 889 890 891
f 889 891 892
usemtl Stratum
v 3.51250 0.01500 1.51250
v 3.51250 0.20500 1.51250
v 2.48750 0.20500 1.51250
v 2.48750 0.01500 1.51250
f 893 894 895
f 893 895 896
usemtl Stratum
v 2.48750 0.01500 1.51250
v 2.48750 0.20500 1.51250
v 2.48750 0.20500 0.48750
v 2.48750 0.01500 0.48750
f 897 898 899
f 897 899 900
usemtl Stratum
v 3.51250 0.01500 0.48750
v 3.51250 0.20500 0.48750
v 3.51250 0.20500 1.51250
v 3.51250 0.01500 1.51250
f 901 902 903
f 901 903 904
usemtl Stratum
v 2.48750 0.01500 1.51250
v 2.48750 0.01500 0.48750
v 3.51250 0.01500 0.48750
v 3.51250 0.01500 1.51250
f 905 906 907
f 905 907 908
usemtl Chalk
v 2.48750 0.20500 0.48750
v 2.48750 0.20500 1.51250
v 3.51250 0.20500 1.51250
v 3.51250 0.20500 0.48750
f 909 910 911
f 909 911 912
usemtl Chalk
v -2.50000 -0.08000 1.50000
v -2.50000 0.86000 1.50000
v -1.50000 0.86000 1.50000
v -1.50000 -0.08000 1.50000
f 913 914 915
f 913 915 916
usemtl Chalk
v -1.50000 -0.08000 2.50000
v -1.50000 0.86000 2.50000
v -2.50000 0.86000 2.50000
v -2.50000 -0.08000 2.50000
f 917 918 919
f 917 919 920
usemtl Chalk
v -2.50000 -0.08000 2.50000
v -2.50000 0.86000 2.50000
v -2.50000 0.86000 1.50000
v -2.50000 -0.08000 1.50000
f 921 922 923
f 921 923 924
usemtl Chalk
v -1.50000 -0.08000 1.50000
v -1.50000 0.86000 1.50000
v -1.50000 0.86000 2.50000
v -1.50000 -0.08000 2.50000
f 925 926 927
f 925 927 928
usemtl Chalk
v -2.50000 -0.08000 2.50000
v -2.50000 -0.08000 1.50000
v -1.50000 -0.08000 1.50000
v -1.50000 -0.08000 2.50000
f 929 930 931
f 929 931 932
usemtl ChalkLight
v -2.50000 0.86000 1.50000
v -2.50000 0.86000 2.50000
v -1.50000 0.86000 2.50000
v -1.50000 0.86000 1.50000
f 933 934 935
f 933 935 936
usemtl Stratum
v -2.51250 0.01500 1.48750
v -2.51250 0.20500 1.48750
v -1.48750 0.20500 1.48750
v -1.48750 0.01500 1.48750
f 937 938 939
f 937 939 940
usemtl Stratum
v -1.48750 0.01500 2.51250
v -1.48750 0.20500 2.51250
v -2.51250 0.20500 2.51250
v -2.51250 0.01500 2.51250
f 941 942 943
f 941 943 944
usemtl Stratum
v -2.51250 0.01500 2.51250
v -2.51250 0.20500 2.51250
v -2.51250 0.20500 1.48750
v -2.51250 0.01500 1.48750
f 945 946 947
f 945 947 948
usemtl Stratum
v -1.48750 0.01500 1.48750
v -1.48750 0.20500 1.48750
v -1.48750 0.20500 2.51250
v -1.48750 0.01500 2.51250
f 949 950 951
f 949 951 952
usemtl Stratum
v -2.51250 0.01500 2.51250
v -2.51250 0.01500 1.48750
v -1.48750 0.01500 1.48750
v -1.48750 0.01500 2.51250
f 953 954 955
f 953 955 956
usemtl Chalk
v -2.51250 0.20500 1.48750
v -2.51250 0.20500 2.51250
v -1.48750 0.20500 2.51250
v -1.48750 0.20500 1.48750
f 957 958 959
f 957 959 960
usemtl Chalk
v -1.50000 -0.08000 1.50000
v -1.50000 1.47000 1.50000
v -0.50000 1.47000 1.50000
v -0.50000 -0.08000 1.50000
f 961 962 963
f 961 963 964
usemtl Chalk
v -0.50000 -0.08000 2.50000
v -0.50000 1.47000 2.50000
v -1.50000 1.47000 2.50000
v -1.50000 -0.08000 2.50000
f 965 966 967
f 965 967 968
usemtl Chalk
v -1.50000 -0.08000 2.50000
v -1.50000 1.47000 2.50000
v -1.50000 1.47000 1.50000
v -1.50000 -0.08000 1.50000
f 969 970 971
f 969 971 972
usemtl Chalk
v -0.50000 -0.08000 1.50000
v -0.50000 1.47000 1.50000
v -0.50000 1.47000 2.50000
v -0.50000 -0.08000 2.50000
f 973 974 975
f 973 975 976
usemtl Chalk
v -1.50000 -0.08000 2.50000
v -1.50000 -0.08000 1.50000
v -0.50000 -0.08000 1.50000
v -0.50000 -0.08000 2.50000
f 977 978 979
f 977 979 980
usemtl ChalkLight
v -1.50000 1.47000 1.50000
v -1.50000 1.47000 2.50000
v -0.50000 1.47000 2.50000
v -0.50000 1.47000 1.50000
f 981 982 983
f 981 983 984
usemtl Stratum
v -1.51250 0.01500 1.48750
v -1.51250 0.20500 1.48750
v -0.48750 0.20500 1.48750
v -0.48750 0.01500 1.48750
f 985 986 987
f 985 987 988
usemtl Stratum
v -0.48750 0.01500 2.51250
v -0.48750 0.20500 2.51250
v -1.51250 0.20500 2.51250
v -1.51250 0.01500 2.51250
f 989 990 991
f 989 991 992
usemtl Stratum
v -1.51250 0.01500 2.51250
v -1.51250 0.20500 2.51250
v -1.51250 0.20500 1.48750
v -1.51250 0.01500 1.48750
f 993 994 995
f 993 995 996
usemtl Stratum
v -0.48750 0.01500 1.48750
v -0.48750 0.20500 1.48750
v -0.48750 0.20500 2.51250
v -0.48750 0.01500 2.51250
f 997 998 999
f 997 999 1000
usemtl Stratum
v -1.51250 0.01500 2.51250
v -1.51250 0.01500 1.48750
v -0.48750 0.01500 1.48750
v -0.48750 0.01500 2.51250
f 1001 1002 1003
f 1001 1003 1004
usemtl Chalk
v -1.51250 0.20500 1.48750
v -1.51250 0.20500 2.51250
v -0.48750 0.20500 2.51250
v -0.48750 0.20500 1.48750
f 1005 1006 1007
f 1005 1007 1008
usemtl Chalk
v -0.50000 -0.08000 1.50000
v -0.50000 2.08000 1.50000
v 0.50000 2.08000 1.50000
v 0.50000 -0.08000 1.50000
f 1009 1010 1011
f 1009 1011 1012
usemtl Chalk
v 0.50000 -0.08000 2.50000
v 0.50000 2.08000 2.50000
v -0.50000 2.08000 2.50000
v -0.50000 -0.08000 2.50000
f 1013 1014 1015
f 1013 1015 1016
usemtl Chalk
v -0.50000 -0.08000 2.50000
v -0.50000 2.08000 2.50000
v -0.50000 2.08000 1.50000
v -0.50000 -0.08000 1.50000
f 1017 1018 1019
f 1017 1019 1020
usemtl Chalk
v 0.50000 -0.08000 1.50000
v 0.50000 2.08000 1.50000
v 0.50000 2.08000 2.50000
v 0.50000 -0.08000 2.50000
f 1021 1022 1023
f 1021 1023 1024
usemtl Chalk
v -0.50000 -0.08000 2.50000
v -0.50000 -0.08000 1.50000
v 0.50000 -0.08000 1.50000
v 0.50000 -0.08000 2.50000
f 1025 1026 1027
f 1025 1027 1028
usemtl ChalkLight
v -0.50000 2.08000 1.50000
v -0.50000 2.08000 2.50000
v 0.50000 2.08000 2.50000
v 0.50000 2.08000 1.50000
f 1029 1030 1031
f 1029 1031 1032
usemtl Stratum
v -0.51250 0.01500 1.48750
v -0.51250 0.20500 1.48750
v 0.51250 0.20500 1.48750
v 0.51250 0.01500 1.48750
f 1033 1034 1035
f 1033 1035 1036
usemtl Stratum
v 0.51250 0.01500 2.51250
v 0.51250 0.20500 2.51250
v -0.51250 0.20500 2.51250
v -0.51250 0.01500 2.51250
f 1037 1038 1039
f 1037 1039 1040
usemtl Stratum
v -0.51250 0.01500 2.51250
v -0.51250 0.20500 2.51250
v -0.51250 0.20500 1.48750
v -0.51250 0.01500 1.48750
f 1041 1042 1043
f 1041 1043 1044
usemtl Stratum
v 0.51250 0.01500 1.48750
v 0.51250 0.20500 1.48750
v 0.51250 0.20500 2.51250
v 0.51250 0.01500 2.51250
f 1045 1046 1047
f 1045 1047 1048
usemtl Stratum
v -0.51250 0.01500 2.51250
v -0.51250 0.01500 1.48750
v 0.51250 0.01500 1.48750
v 0.51250 0.01500 2.51250
f 1049 1050 1051
f 1049 1051 1052
usemtl Chalk
v -0.51250 0.20500 1.48750
v -0.51250 0.20500 2.51250
v 0.51250 0.20500 2.51250
v 0.51250 0.20500 1.48750
f 1053 1054 1055
f 1053 1055 1056
usemtl Chalk
v 0.50000 -0.08000 1.50000
v 0.50000 2.08000 1.50000
v 1.50000 2.08000 1.50000
v 1.50000 -0.08000 1.50000
f 1057 1058 1059
f 1057 1059 1060
usemtl Chalk
v 1.50000 -0.08000 2.50000
v 1.50000 2.08000 2.50000
v 0.50000 2.08000 2.50000
v 0.50000 -0.08000 2.50000
f 1061 1062 1063
f 1061 1063 1064
usemtl Chalk
v 0.50000 -0.08000 2.50000
v 0.50000 2.08000 2.50000
v 0.50000 2.08000 1.50000
v 0.50000 -0.08000 1.50000
f 1065 1066 1067
f 1065 1067 1068
usemtl Chalk
v 1.50000 -0.08000 1.50000
v 1.50000 2.08000 1.50000
v 1.50000 2.08000 2.50000
v 1.50000 -0.08000 2.50000
f 1069 1070 1071
f 1069 1071 1072
usemtl Chalk
v 0.50000 -0.08000 2.50000
v 0.50000 -0.08000 1.50000
v 1.50000 -0.08000 1.50000
v 1.50000 -0.08000 2.50000
f 1073 1074 1075
f 1073 1075 1076
usemtl ChalkLight
v 0.50000 2.08000 1.50000
v 0.50000 2.08000 2.50000
v 1.50000 2.08000 2.50000
v 1.50000 2.08000 1.50000
f 1077 1078 1079
f 1077 1079 1080
usemtl Stratum
v 0.48750 0.01500 1.48750
v 0.48750 0.20500 1.48750
v 1.51250 0.20500 1.48750
v 1.51250 0.01500 1.48750
f 1081 1082 1083
f 1081 1083 1084
usemtl Stratum
v 1.51250 0.01500 2.51250
v 1.51250 0.20500 2.51250
v 0.48750 0.20500 2.51250
v 0.48750 0.01500 2.51250
f 1085 1086 1087
f 1085 1087 1088
usemtl Stratum
v 0.48750 0.01500 2.51250
v 0.48750 0.20500 2.51250
v 0.48750 0.20500 1.48750
v 0.48750 0.01500 1.48750
f 1089 1090 1091
f 1089 1091 1092
usemtl Stratum
v 1.51250 0.01500 1.48750
v 1.51250 0.20500 1.48750
v 1.51250 0.20500 2.51250
v 1.51250 0.01500 2.51250
f 1093 1094 1095
f 1093 1095 1096
usemtl Stratum
v 0.48750 0.01500 2.51250
v 0.48750 0.01500 1.48750
v 1.51250 0.01500 1.48750
v 1.51250 0.01500 2.51250
f 1097 1098 1099
f 1097 1099 1100
usemtl Chalk
v 0.48750 0.20500 1.48750
v 0.48750 0.20500 2.51250
v 1.51250 0.20500 2.51250
v 1.51250 0.20500 1.48750
f 1101 1102 1103
f 1101 1103 1104
usemtl Chalk
v 1.50000 -0.08000 1.50000
v 1.50000 1.47000 1.50000
v 2.50000 1.47000 1.50000
v 2.50000 -0.08000 1.50000
f 1105 1106 1107
f 1105 1107 1108
usemtl Chalk
v 2.50000 -0.08000 2.50000
v 2.50000 1.47000 2.50000
v 1.50000 1.47000 2.50000
v 1.50000 -0.08000 2.50000
f 1109 1110 1111
f 1109 1111 1112
usemtl Chalk
v 1.50000 -0.08000 2.50000
v 1.50000 1.47000 2.50000
v 1.50000 1.47000 1.50000
v 1.50000 -0.08000 1.50000
f 1113 1114 1115
f 1113 1115 1116
usemtl Chalk
v 2.50000 -0.08000 1.50000
v 2.50000 1.47000 1.50000
v 2.50000 1.47000 2.50000
v 2.50000 -0.08000 2.50000
f 1117 1118 1119
f 1117 1119 1120
usemtl Chalk
v 1.50000 -0.08000 2.50000
v 1.50000 -0.08000 1.50000
v 2.50000 -0.08000 1.50000
v 2.50000 -0.08000 2.50000
f 1121 1122 1123
f 1121 1123 1124
usemtl ChalkLight
v 1.50000 1.47000 1.50000
v 1.50000 1.47000 2.50000
v 2.50000 1.47000 2.50000
v 2.50000 1.47000 1.50000
f 1125 1126 1127
f 1125 1127 1128
usemtl Stratum
v 1.48750 0.01500 1.48750
v 1.48750 0.20500 1.48750
v 2.51250 0.20500 1.48750
v 2.51250 0.01500 1.48750
f 1129 1130 1131
f 1129 1131 1132
usemtl Stratum
v 2.51250 0.01500 2.51250
v 2.51250 0.20500 2.51250
v 1.48750 0.20500 2.51250
v 1.48750 0.01500 2.51250
f 1133 1134 1135
f 1133 1135 1136
usemtl Stratum
v 1.48750 0.01500 2.51250
v 1.48750 0.20500 2.51250
v 1.48750 0.20500 1.48750
v 1.48750 0.01500 1.48750
f 1137 1138 1139
f 1137 1139 1140
usemtl Stratum
v 2.51250 0.01500 1.48750
v 2.51250 0.20500 1.48750
v 2.51250 0.20500 2.51250
v 2.51250 0.01500 2.51250
f 1141 1142 1143
f 1141 1143 1144
usemtl Stratum
v 1.48750 0.01500 2.51250
v 1.48750 0.01500 1.48750
v 2.51250 0.01500 1.48750
v 2.51250 0.01500 2.51250
f 1145 1146 1147
f 1145 1147 1148
usemtl Chalk
v 1.48750 0.20500 1.48750
v 1.48750 0.20500 2.51250
v 2.51250 0.20500 2.51250
v 2.51250 0.20500 1.48750
f 1149 1150 1151
f 1149 1151 1152
usemtl Chalk
v 2.50000 -0.08000 1.50000
v 2.50000 0.86000 1.50000
v 3.50000 0.86000 1.50000
v 3.50000 -0.08000 1.50000
f 1153 1154 1155
f 1153 1155 1156
usemtl Chalk
v 3.50000 -0.08000 2.50000
v 3.50000 0.86000 2.50000
v 2.50000 0.86000 2.50000
v 2.50000 -0.08000 2.50000
f 1157 1158 1159
f 1157 1159 1160
usemtl Chalk
v 2.50000 -0.08000 2.50000
v 2.50000 0.86000 2.50000
v 2.50000 0.86000 1.50000
v 2.50000 -0.08000 1.50000
f 1161 1162 1163
f 1161 1163 1164
usemtl Chalk
v 3.50000 -0.08000 1.50000
v 3.50000 0.86000 1.50000
v 3.50000 0.86000 2.50000
v 3.50000 -0.08000 2.50000
f 1165 1166 1167
f 1165 1167 1168
usemtl Chalk
v 2.50000 -0.08000 2.50000
v 2.50000 -0.08000 1.50000
v 3.50000 -0.08000 1.50000
v 3.50000 -0.08000 2.50000
f 1169 1170 1171
f 1169 1171 1172
usemtl ChalkLight
v 2.50000 0.86000 1.50000
v 2.50000 0.86000 2.50000
v 3.50000 0.86000 2.50000
v 3.50000 0.86000 1.50000
f 1173 1174 1175
f 1173 1175 1176
usemtl Stratum
v 2.48750 0.01500 1.48750
v 2.48750 0.20500 1.48750
v 3.51250 0.20500 1.48750
v 3.51250 0.01500 1.48750
f 1177 1178 1179
f 1177 1179 1180
usemtl Stratum
v 3.51250 0.01500 2.51250
v 3.51250 0.20500 2.51250
v 2.48750 0.20500 2.51250
v 2.48750 0.01500 2.51250
f 1181 1182 1183
f 1181 1183 1184
usemtl Stratum
v 2.48750 0.01500 2.51250
v 2.48750 0.20500 2.51250
v 2.48750 0.20500 1.48750
v 2.48750 0.01500 1.48750
f 1185 1186 1187
f 1185 1187 1188
usemtl Stratum
v 3.51250 0.01500 1.48750
v 3.51250 0.20500 1.48750
v 3.51250 0.20500 2.51250
v 3.51250 0.01500 2.51250
f 1189 1190 1191
f 1189 1191 1192
usemtl Stratum
v 2.48750 0.01500 2.51250
v 2.48750 0.01500 1.48750
v 3.51250 0.01500 1.48750
v 3.51250 0.01500 2.51250
f 1193 1194 1195
f 1193 1195 1196
usemtl Chalk
v 2.48750 0.20500 1.48750
v 2.48750 0.20500 2.51250
v 3.51250 0.20500 2.51250
v 3.51250 0.20500 1.48750
f 1197 1198 1199
f 1197 1199 1200
usemtl Chalk
v -1.50000 -0.08000 2.50000
v -1.50000 0.86000 2.50000
v -0.50000 0.86000 2.50000
v -0.50000 -0.08000 2.50000
f 1201 1202 1203
f 1201 1203 1204
usemtl Chalk
v -0.50000 -0.08000 3.50000
v -0.50000 0.86000 3.50000
v -1.50000 0.86000 3.50000
v -1.50000 -0.08000 3.50000
f 1205 1206 1207
f 1205 1207 1208
usemtl Chalk
v -1.50000 -0.08000 3.50000
v -1.50000 0.86000 3.50000
v -1.50000 0.86000 2.50000
v -1.50000 -0.08000 2.50000
f 1209 1210 1211
f 1209 1211 1212
usemtl Chalk
v -0.50000 -0.08000 2.50000
v -0.50000 0.86000 2.50000
v -0.50000 0.86000 3.50000
v -0.50000 -0.08000 3.50000
f 1213 1214 1215
f 1213 1215 1216
usemtl Chalk
v -1.50000 -0.08000 3.50000
v -1.50000 -0.08000 2.50000
v -0.50000 -0.08000 2.50000
v -0.50000 -0.08000 3.50000
f 1217 1218 1219
f 1217 1219 1220
usemtl ChalkLight
v -1.50000 0.86000 2.50000
v -1.50000 0.86000 3.50000
v -0.50000 0.86000 3.50000
v -0.50000 0.86000 2.50000
f 1221 1222 1223
f 1221 1223 1224
usemtl Stratum
v -1.51250 0.01500 2.48750
v -1.51250 0.20500 2.48750
v -0.48750 0.20500 2.48750
v -0.48750 0.01500 2.48750
f 1225 1226 1227
f 1225 1227 1228
usemtl Stratum
v -0.48750 0.01500 3.51250
v -0.48750 0.20500 3.51250
v -1.51250 0.20500 3.51250
v -1.51250 0.01500 3.51250
f 1229 1230 1231
f 1229 1231 1232
usemtl Stratum
v -1.51250 0.01500 3.51250
v -1.51250 0.20500 3.51250
v -1.51250 0.20500 2.48750
v -1.51250 0.01500 2.48750
f 1233 1234 1235
f 1233 1235 1236
usemtl Stratum
v -0.48750 0.01500 2.48750
v -0.48750 0.20500 2.48750
v -0.48750 0.20500 3.51250
v -0.48750 0.01500 3.51250
f 1237 1238 1239
f 1237 1239 1240
usemtl Stratum
v -1.51250 0.01500 3.51250
v -1.51250 0.01500 2.48750
v -0.48750 0.01500 2.48750
v -0.48750 0.01500 3.51250
f 1241 1242 1243
f 1241 1243 1244
usemtl Chalk
v -1.51250 0.20500 2.48750
v -1.51250 0.20500 3.51250
v -0.48750 0.20500 3.51250
v -0.48750 0.20500 2.48750
f 1245 1246 1247
f 1245 1247 1248
usemtl Chalk
v -0.50000 -0.08000 2.50000
v -0.50000 1.47000 2.50000
v 0.50000 1.47000 2.50000
v 0.50000 -0.08000 2.50000
f 1249 1250 1251
f 1249 1251 1252
usemtl Chalk
v 0.50000 -0.08000 3.50000
v 0.50000 1.47000 3.50000
v -0.50000 1.47000 3.50000
v -0.50000 -0.08000 3.50000
f 1253 1254 1255
f 1253 1255 1256
usemtl Chalk
v -0.50000 -0.08000 3.50000
v -0.50000 1.47000 3.50000
v -0.50000 1.47000 2.50000
v -0.50000 -0.08000 2.50000
f 1257 1258 1259
f 1257 1259 1260
usemtl Chalk
v 0.50000 -0.08000 2.50000
v 0.50000 1.47000 2.50000
v 0.50000 1.47000 3.50000
v 0.50000 -0.08000 3.50000
f 1261 1262 1263
f 1261 1263 1264
usemtl Chalk
v -0.50000 -0.08000 3.50000
v -0.50000 -0.08000 2.50000
v 0.50000 -0.08000 2.50000
v 0.50000 -0.08000 3.50000
f 1265 1266 1267
f 1265 1267 1268
usemtl ChalkLight
v -0.50000 1.47000 2.50000
v -0.50000 1.47000 3.50000
v 0.50000 1.47000 3.50000
v 0.50000 1.47000 2.50000
f 1269 1270 1271
f 1269 1271 1272
usemtl Stratum
v -0.51250 0.01500 2.48750
v -0.51250 0.20500 2.48750
v 0.51250 0.20500 2.48750
v 0.51250 0.01500 2.48750
f 1273 1274 1275
f 1273 1275 1276
usemtl Stratum
v 0.51250 0.01500 3.51250
v 0.51250 0.20500 3.51250
v -0.51250 0.20500 3.51250
v -0.51250 0.01500 3.51250
f 1277 1278 1279
f 1277 1279 1280
usemtl Stratum
v -0.51250 0.01500 3.51250
v -0.51250 0.20500 3.51250
v -0.51250 0.20500 2.48750
v -0.51250 0.01500 2.48750
f 1281 1282 1283
f 1281 1283 1284
usemtl Stratum
v 0.51250 0.01500 2.48750
v 0.51250 0.20500 2.48750
v 0.51250 0.20500 3.51250
v 0.51250 0.01500 3.51250
f 1285 1286 1287
f 1285 1287 1288
usemtl Stratum
v -0.51250 0.01500 3.51250
v -0.51250 0.01500 2.48750
v 0.51250 0.01500 2.48750
v 0.51250 0.01500 3.51250
f 1289 1290 1291
f 1289 1291 1292
usemtl Chalk
v -0.51250 0.20500 2.48750
v -0.51250 0.20500 3.51250
v 0.51250 0.20500 3.51250
v 0.51250 0.20500 2.48750
f 1293 1294 1295
f 1293 1295 1296
usemtl Chalk
v 0.50000 -0.08000 2.50000
v 0.50000 1.47000 2.50000
v 1.50000 1.47000 2.50000
v 1.50000 -0.08000 2.50000
f 1297 1298 1299
f 1297 1299 1300
usemtl Chalk
v 1.50000 -0.08000 3.50000
v 1.50000 1.47000 3.50000
v 0.50000 1.47000 3.50000
v 0.50000 -0.08000 3.50000
f 1301 1302 1303
f 1301 1303 1304
usemtl Chalk
v 0.50000 -0.08000 3.50000
v 0.50000 1.47000 3.50000
v 0.50000 1.47000 2.50000
v 0.50000 -0.08000 2.50000
f 1305 1306 1307
f 1305 1307 1308
usemtl Chalk
v 1.50000 -0.08000 2.50000
v 1.50000 1.47000 2.50000
v 1.50000 1.47000 3.50000
v 1.50000 -0.08000 3.50000
f 1309 1310 1311
f 1309 1311 1312
usemtl Chalk
v 0.50000 -0.08000 3.50000
v 0.50000 -0.08000 2.50000
v 1.50000 -0.08000 2.50000
v 1.50000 -0.08000 3.50000
f 1313 1314 1315
f 1313 1315 1316
usemtl ChalkLight
v 0.50000 1.47000 2.50000
v 0.50000 1.47000 3.50000
v 1.50000 1.47000 3.50000
v 1.50000 1.47000 2.50000
f 1317 1318 1319
f 1317 1319 1320
usemtl Stratum
v 0.48750 0.01500 2.48750
v 0.48750 0.20500 2.48750
v 1.51250 0.20500 2.48750
v 1.51250 0.01500 2.48750
f 1321 1322 1323
f 1321 1323 1324
usemtl Stratum
v 1.51250 0.01500 3.51250
v 1.51250 0.20500 3.51250
v 0.48750 0.20500 3.51250
v 0.48750 0.01500 3.51250
f 1325 1326 1327
f 1325 1327 1328
usemtl Stratum
v 0.48750 0.01500 3.51250
v 0.48750 0.20500 3.51250
v 0.48750 0.20500 2.48750
v 0.48750 0.01500 2.48750
f 1329 1330 1331
f 1329 1331 1332
usemtl Stratum
v 1.51250 0.01500 2.48750
v 1.51250 0.20500 2.48750
v 1.51250 0.20500 3.51250
v 1.51250 0.01500 3.51250
f 1333 1334 1335
f 1333 1335 1336
usemtl Stratum
v 0.48750 0.01500 3.51250
v 0.48750 0.01500 2.48750
v 1.51250 0.01500 2.48750
v 1.51250 0.01500 3.51250
f 1337 1338 1339
f 1337 1339 1340
usemtl Chalk
v 0.48750 0.20500 2.48750
v 0.48750 0.20500 3.51250
v 1.51250 0.20500 3.51250
v 1.51250 0.20500 2.48750
f 1341 1342 1343
f 1341 1343 1344
usemtl Chalk
v 1.50000 -0.08000 2.50000
v 1.50000 0.86000 2.50000
v 2.50000 0.86000 2.50000
v 2.50000 -0.08000 2.50000
f 1345 1346 1347
f 1345 1347 1348
usemtl Chalk
v 2.50000 -0.08000 3.50000
v 2.50000 0.86000 3.50000
v 1.50000 0.86000 3.50000
v 1.50000 -0.08000 3.50000
f 1349 1350 1351
f 1349 1351 1352
usemtl Chalk
v 1.50000 -0.08000 3.50000
v 1.50000 0.86000 3.50000
v 1.50000 0.86000 2.50000
v 1.50000 -0.08000 2.50000
f 1353 1354 1355
f 1353 1355 1356
usemtl Chalk
v 2.50000 -0.08000 2.50000
v 2.50000 0.86000 2.50000
v 2.50000 0.86000 3.50000
v 2.50000 -0.08000 3.50000
f 1357 1358 1359
f 1357 1359 1360
usemtl Chalk
v 1.50000 -0.08000 3.50000
v 1.50000 -0.08000 2.50000
v 2.50000 -0.08000 2.50000
v 2.50000 -0.08000 3.50000
f 1361 1362 1363
f 1361 1363 1364
usemtl ChalkLight
v 1.50000 0.86000 2.50000
v 1.50000 0.86000 3.50000
v 2.50000 0.86000 3.50000
v 2.50000 0.86000 2.50000
f 1365 1366 1367
f 1365 1367 1368
usemtl Stratum
v 1.48750 0.01500 2.48750
v 1.48750 0.20500 2.48750
v 2.51250 0.20500 2.48750
v 2.51250 0.01500 2.48750
f 1369 1370 1371
f 1369 1371 1372
usemtl Stratum
v 2.51250 0.01500 3.51250
v 2.51250 0.20500 3.51250
v 1.48750 0.20500 3.51250
v 1.48750 0.01500 3.51250
f 1373 1374 1375
f 1373 1375 1376
usemtl Stratum
v 1.48750 0.01500 3.51250
v 1.48750 0.20500 3.51250
v 1.48750 0.20500 2.48750
v 1.48750 0.01500 2.48750
f 1377 1378 1379
f 1377 1379 1380
usemtl Stratum
v 2.51250 0.01500 2.48750
v 2.51250 0.20500 2.48750
v 2.51250 0.20500 3.51250
v 2.51250 0.01500 3.51250
f 1381 1382 1383
f 1381 1383 1384
usemtl Stratum
v 1.48750 0.01500 3.51250
v 1.48750 0.01500 2.48750
v 2.51250 0.01500 2.48750
v 2.51250 0.01500 3.51250
f 1385 1386 1387
f 1385 1387 1388
usemtl Chalk
v 1.48750 0.20500 2.48750
v 1.48750 0.20500 3.51250
v 2.51250 0.20500 3.51250
v 2.51250 0.20500 2.48750
f 1389 1390 1391
f 1389 1391 1392
usemtl Chalk
v -4.50000 -0.08000 1.50000
v -4.50000 2.69000 1.50000
v -3.50000 2.69000 1.50000
v -3.50000 -0.08000 1.50000
f 1393 1394 1395
f 1393 1395 1396
usemtl Chalk
v -3.50000 -0.08000 2.50000
v -3.50000 2.69000 2.50000
v -4.50000 2.69000 2.50000
v -4.50000 -0.08000 2.50000
f 1397 1398 1399
f 1397 1399 1400
usemtl Chalk
v -4.50000 -0.08000 2.50000
v -4.50000 2.69000 2.50000
v -4.50000 2.69000 1.50000
v -4.50000 -0.08000 1.50000
f 1401 1402 1403
f 1401 1403 1404
usemtl Chalk
v -3.50000 -0.08000 1.50000
v -3.50000 2.69000 1.50000
v -3.50000 2.69000 2.50000
v -3.50000 -0.08000 2.50000
f 1405 1406 1407
f 1405 1407 1408
usemtl Chalk
v -4.50000 -0.08000 2.50000
v -4.50000 -0.08000 1.50000
v -3.50000 -0.08000 1.50000
v -3.50000 -0.08000 2.50000
f 1409 1410 1411
f 1409 1411 1412
usemtl ChalkLight
v -4.50000 2.69000 1.50000
v -4.50000 2.69000 2.50000
v -3.50000 2.69000 2.50000
v -3.50000 2.69000 1.50000
f 1413 1414 1415
f 1413 1415 1416
usemtl Stratum
v -4.51250 0.01500 1.48750
v -4.51250 0.20500 1.48750
v -3.48750 0.20500 1.48750
v -3.48750 0.01500 1.48750
f 1417 1418 1419
f 1417 1419 1420
usemtl Stratum
v -3.48750 0.01500 2.51250
v -3.48750 0.20500 2.51250
v -4.51250 0.20500 2.51250
v -4.51250 0.01500 2.51250
f 1421 1422 1423
f 1421 1423 1424
usemtl Stratum
v -4.51250 0.01500 2.51250
v -4.51250 0.20500 2.51250
v -4.51250 0.20500 1.48750
v -4.51250 0.01500 1.48750
f 1425 1426 1427
f 1425 1427 1428
usemtl Stratum
v -3.48750 0.01500 1.48750
v -3.48750 0.20500 1.48750
v -3.48750 0.20500 2.51250
v -3.48750 0.01500 2.51250
f 1429 1430 1431
f 1429 1431 1432
usemtl Stratum
v -4.51250 0.01500 2.51250
v -4.51250 0.01500 1.48750
v -3.48750 0.01500 1.48750
v -3.48750 0.01500 2.51250
f 1433 1434 1435
f 1433 1435 1436
usemtl Chalk
v -4.51250 0.20500 1.48750
v -4.51250 0.20500 2.51250
v -3.48750 0.20500 2.51250
v -3.48750 0.20500 1.48750
f 1437 1438 1439
f 1437 1439 1440
usemtl Chalk
v -4.50000 -0.08000 2.50000
v -4.50000 2.69000 2.50000
v -3.50000 2.69000 2.50000
v -3.50000 -0.08000 2.50000
f 1441 1442 1443
f 1441 1443 1444
usemtl Chalk
v -3.50000 -0.08000 3.50000
v -3.50000 2.69000 3.50000
v -4.50000 2.69000 3.50000
v -4.50000 -0.08000 3.50000
f 1445 1446 1447
f 1445 1447 1448
usemtl Chalk
v -4.50000 -0.08000 3.50000
v -4.50000 2.69000 3.50000
v -4.50000 2.69000 2.50000
v -4.50000 -0.08000 2.50000
f 1449 1450 1451
f 1449 1451 1452
usemtl Chalk
v -3.50000 -0.08000 2.50000
v -3.50000 2.69000 2.50000
v -3.50000 2.69000 3.50000
v -3.50000 -0.08000 3.50000
f 1453 1454 1455
f 1453 1455 1456
usemtl Chalk
v -4.50000 -0.08000 3.50000
v -4.50000 -0.08000 2.50000
v -3.50000 -0.08000 2.50000
v -3.50000 -0.08000 3.50000
f 1457 1458 1459
f 1457 1459 1460
usemtl ChalkLight
v -4.50000 2.69000 2.50000
v -4.50000 2.69000 3.50000
v -3.50000 2.69000 3.50000
v -3.50000 2.69000 2.50000
f 1461 1462 1463
f 1461 1463 1464
usemtl Stratum
v -4.51250 0.01500 2.48750
v -4.51250 0.20500 2.48750
v -3.48750 0.20500 2.48750
v -3.48750 0.01500 2.48750
f 1465 1466 1467
f 1465 1467 1468
usemtl Stratum
v -3.48750 0.01500 3.51250
v -3.48750 0.20500 3.51250
v -4.51250 0.20500 3.51250
v -4.51250 0.01500 3.51250
f 1469 1470 1471
f 1469 1471 1472
usemtl Stratum
v -4.51250 0.01500 3.51250
v -4.51250 0.20500 3.51250
v -4.51250 0.20500 2.48750
v -4.51250 0.01500 2.48750
f 1473 1474 1475
f 1473 1475 1476
usemtl Stratum
v -3.48750 0.01500 2.48750
v -3.48750 0.20500 2.48750
v -3.48750 0.20500 3.51250
v -3.48750 0.01500 3.51250
f 1477 1478 1479
f 1477 1479 1480
usemtl Stratum
v -4.51250 0.01500 3.51250
v -4.51250 0.01500 2.48750
v -3.48750 0.01500 2.48750
v -3.48750 0.01500 3.51250
f 1481 1482 1483
f 1481 1483 1484
usemtl Chalk
v -4.51250 0.20500 2.48750
v -4.51250 0.20500 3.51250
v -3.48750 0.20500 3.51250
v -3.48750 0.20500 2.48750
f 1485 1486 1487
f 1485 1487 1488
usemtl Chalk
v -3.50000 -0.08000 2.50000
v -3.50000 1.47000 2.50000
v -2.50000 1.47000 2.50000
v -2.50000 -0.08000 2.50000
f 1489 1490 1491
f 1489 1491 1492
usemtl Chalk
v -2.50000 -0.08000 3.50000
v -2.50000 1.47000 3.50000
v -3.50000 1.47000 3.50000
v -3.50000 -0.08000 3.50000
f 1493 1494 1495
f 1493 1495 1496
usemtl Chalk
v -3.50000 -0.08000 3.50000
v -3.50000 1.47000 3.50000
v -3.50000 1.47000 2.50000
v -3.50000 -0.08000 2.50000
f 1497 1498 1499
f 1497 1499 1500
usemtl Chalk
v -2.50000 -0.08000 2.50000
v -2.50000 1.47000 2.50000
v -2.50000 1.47000 3.50000
v -2.50000 -0.08000 3.50000
f 1501 1502 1503
f 1501 1503 1504
usemtl Chalk
v -3.50000 -0.08000 3.50000
v -3.50000 -0.08000 2.50000
v -2.50000 -0.08000 2.50000
v -2.50000 -0.08000 3.50000
f 1505 1506 1507
f 1505 1507 1508
usemtl ChalkLight
v -3.50000 1.47000 2.50000
v -3.50000 1.47000 3.50000
v -2.50000 1.47000 3.50000
v -2.50000 1.47000 2.50000
f 1509 1510 1511
f 1509 1511 1512
usemtl Stratum
v -3.51250 0.01500 2.48750
v -3.51250 0.20500 2.48750
v -2.48750 0.20500 2.48750
v -2.48750 0.01500 2.48750
f 1513 1514 1515
f 1513 1515 1516
usemtl Stratum
v -2.48750 0.01500 3.51250
v -2.48750 0.20500 3.51250
v -3.51250 0.20500 3.51250
v -3.51250 0.01500 3.51250
f 1517 1518 1519
f 1517 1519 1520
usemtl Stratum
v -3.51250 0.01500 3.51250
v -3.51250 0.20500 3.51250
v -3.51250 0.20500 2.48750
v -3.51250 0.01500 2.48750
f 1521 1522 1523
f 1521 1523 1524
usemtl Stratum
v -2.48750 0.01500 2.48750
v -2.48750 0.20500 2.48750
v -2.48750 0.20500 3.51250
v -2.48750 0.01500 3.51250
f 1525 1526 1527
f 1525 1527 1528
usemtl Stratum
v -3.51250 0.01500 3.51250
v -3.51250 0.01500 2.48750
v -2.48750 0.01500 2.48750
v -2.48750 0.01500 3.51250
f 1529 1530 1531
f 1529 1531 1532
usemtl Chalk
v -3.51250 0.20500 2.48750
v -3.51250 0.20500 3.51250
v -2.48750 0.20500 3.51250
v -2.48750 0.20500 2.48750
f 1533 1534 1535
f 1533 1535 1536
usemtl Chalk
v 2.50000 -0.08000 2.50000
v 2.50000 2.08000 2.50000
v 3.50000 2.08000 2.50000
v 3.50000 -0.08000 2.50000
f 1537 1538 1539
f 1537 1539 1540
usemtl Chalk
v 3.50000 -0.08000 3.50000
v 3.50000 2.08000 3.50000
v 2.50000 2.08000 3.50000
v 2.50000 -0.08000 3.50000
f 1541 1542 1543
f 1541 1543 1544
usemtl Chalk
v 2.50000 -0.08000 3.50000
v 2.50000 2.08000 3.50000
v 2.50000 2.08000 2.50000
v 2.50000 -0.08000 2.50000
f 1545 1546 1547
f 1545 1547 1548
usemtl Chalk
v 3.50000 -0.08000 2.50000
v 3.50000 2.08000 2.50000
v 3.50000 2.08000 3.50000
v 3.50000 -0.08000 3.50000
f 1549 1550 1551
f 1549 1551 1552
usemtl Chalk
v 2.50000 -0.08000 3.50000
v 2.50000 -0.08000 2.50000
v 3.50000 -0.08000 2.50000
v 3.50000 -0.08000 3.50000
f 1553 1554 1555
f 1553 1555 1556
usemtl ChalkLight
v 2.50000 2.08000 2.50000
v 2.50000 2.08000 3.50000
v 3.50000 2.08000 3.50000
v 3.50000 2.08000 2.50000
f 1557 1558 1559
f 1557 1559 1560
usemtl Stratum
v 2.48750 0.01500 2.48750
v 2.48750 0.20500 2.48750
v 3.51250 0.20500 2.48750
v 3.51250 0.01500 2.48750
f 1561 1562 1563
f 1561 1563 1564
usemtl Stratum
v 3.51250 0.01500 3.51250
v 3.51250 0.20500 3.51250
v 2.48750 0.20500 3.51250
v 2.48750 0.01500 3.51250
f 1565 1566 1567
f 1565 1567 1568
usemtl Stratum
v 2.48750 0.01500 3.51250
v 2.48750 0.20500 3.51250
v 2.48750 0.20500 2.48750
v 2.48750 0.01500 2.48750
f 1569 1570 1571
f 1569 1571 1572
usemtl Stratum
v 3.51250 0.01500 2.48750
v 3.51250 0.20500 2.48750
v 3.51250 0.20500 3.51250
v 3.51250 0.01500 3.51250
f 1573 1574 1575
f 1573 1575 1576
usemtl Stratum
v 2.48750 0.01500 3.51250
v 2.48750 0.01500 2.48750
v 3.51250 0.01500 2.48750
v 3.51250 0.01500 3.51250
f 1577 1578 1579
f 1577 1579 1580
usemtl Chalk
v 2.48750 0.20500 2.48750
v 2.48750 0.20500 3.51250
v 3.51250 0.20500 3.51250
v 3.51250 0.20500 2.48750
f 1581 1582 1583
f 1581 1583 1584
usemtl Chalk
v 2.50000 -0.08000 3.50000
v 2.50000 2.08000 3.50000
v 3.50000 2.08000 3.50000
v 3.50000 -0.08000 3.50000
f 1585 1586 1587
f 1585 1587 1588
usemtl Chalk
v 3.50000 -0.08000 4.50000
v 3.50000 2.08000 4.50000
v 2.50000 2.08000 4.50000
v 2.50000 -0.08000 4.50000
f 1589 1590 1591
f 1589 1591 1592
usemtl Chalk
v 2.50000 -0.08000 4.50000
v 2.50000 2.08000 4.50000
v 2.50000 2.08000 3.50000
v 2.50000 -0.08000 3.50000
f 1593 1594 1595
f 1593 1595 1596
usemtl Chalk
v 3.50000 -0.08000 3.50000
v 3.50000 2.08000 3.50000
v 3.50000 2.08000 4.50000
v 3.50000 -0.08000 4.50000
f 1597 1598 1599
f 1597 1599 1600
usemtl Chalk
v 2.50000 -0.08000 4.50000
v 2.50000 -0.08000 3.50000
v 3.50000 -0.08000 3.50000
v 3.50000 -0.08000 4.50000
f 1601 1602 1603
f 1601 1603 1604
usemtl ChalkLight
v 2.50000 2.08000 3.50000
v 2.50000 2.08000 4.50000
v 3.50000 2.08000 4.50000
v 3.50000 2.08000 3.50000
f 1605 1606 1607
f 1605 1607 1608
usemtl Stratum
v 2.48750 0.01500 3.48750
v 2.48750 0.20500 3.48750
v 3.51250 0.20500 3.48750
v 3.51250 0.01500 3.48750
f 1609 1610 1611
f 1609 1611 1612
usemtl Stratum
v 3.51250 0.01500 4.51250
v 3.51250 0.20500 4.51250
v 2.48750 0.20500 4.51250
v 2.48750 0.01500 4.51250
f 1613 1614 1615
f 1613 1615 1616
usemtl Stratum
v 2.48750 0.01500 4.51250
v 2.48750 0.20500 4.51250
v 2.48750 0.20500 3.48750
v 2.48750 0.01500 3.48750
f 1617 1618 1619
f 1617 1619 1620
usemtl Stratum
v 3.51250 0.01500 3.48750
v 3.51250 0.20500 3.48750
v 3.51250 0.20500 4.51250
v 3.51250 0.01500 4.51250
f 1621 1622 1623
f 1621 1623 1624
usemtl Stratum
v 2.48750 0.01500 4.51250
v 2.48750 0.01500 3.48750
v 3.51250 0.01500 3.48750
v 3.51250 0.01500 4.51250
f 1625 1626 1627
f 1625 1627 1628
usemtl Chalk
v 2.48750 0.20500 3.48750
v 2.48750 0.20500 4.51250
v 3.51250 0.20500 4.51250
v 3.51250 0.20500 3.48750
f 1629 1630 1631
f 1629 1631 1632
usemtl Chalk
v 1.50000 -0.08000 3.50000
v 1.50000 2.08000 3.50000
v 2.50000 2.08000 3.50000
v 2.50000 -0.08000 3.50000
f 1633 1634 1635
f 1633 1635 1636
usemtl Chalk
v 2.50000 -0.08000 4.50000
v 2.50000 2.08000 4.50000
v 1.50000 2.08000 4.50000
v 1.50000 -0.08000 4.50000
f 1637 1638 1639
f 1637 1639 1640
usemtl Chalk
v 1.50000 -0.08000 4.50000
v 1.50000 2.08000 4.50000
v 1.50000 2.08000 3.50000
v 1.50000 -0.08000 3.50000
f 1641 1642 1643
f 1641 1643 1644
usemtl Chalk
v 2.50000 -0.08000 3.50000
v 2.50000 2.08000 3.50000
v 2.50000 2.08000 4.50000
v 2.50000 -0.08000 4.50000
f 1645 1646 1647
f 1645 1647 1648
usemtl Chalk
v 1.50000 -0.08000 4.50000
v 1.50000 -0.08000 3.50000
v 2.50000 -0.08000 3.50000
v 2.50000 -0.08000 4.50000
f 1649 1650 1651
f 1649 1651 1652
usemtl ChalkLight
v 1.50000 2.08000 3.50000
v 1.50000 2.08000 4.50000
v 2.50000 2.08000 4.50000
v 2.50000 2.08000 3.50000
f 1653 1654 1655
f 1653 1655 1656
usemtl Stratum
v 1.48750 0.01500 3.48750
v 1.48750 0.20500 3.48750
v 2.51250 0.20500 3.48750
v 2.51250 0.01500 3.48750
f 1657 1658 1659
f 1657 1659 1660
usemtl Stratum
v 2.51250 0.01500 4.51250
v 2.51250 0.20500 4.51250
v 1.48750 0.20500 4.51250
v 1.48750 0.01500 4.51250
f 1661 1662 1663
f 1661 1663 1664
usemtl Stratum
v 1.48750 0.01500 4.51250
v 1.48750 0.20500 4.51250
v 1.48750 0.20500 3.48750
v 1.48750 0.01500 3.48750
f 1665 1666 1667
f 1665 1667 1668
usemtl Stratum
v 2.51250 0.01500 3.48750
v 2.51250 0.20500 3.48750
v 2.51250 0.20500 4.51250
v 2.51250 0.01500 4.51250
f 1669 1670 1671
f 1669 1671 1672
usemtl Stratum
v 1.48750 0.01500 4.51250
v 1.48750 0.01500 3.48750
v 2.51250 0.01500 3.48750
v 2.51250 0.01500 4.51250
f 1673 1674 1675
f 1673 1675 1676
usemtl Chalk
v 1.48750 0.20500 3.48750
v 1.48750 0.20500 4.51250
v 2.51250 0.20500 4.51250
v 2.51250 0.20500 3.48750
f 1677 1678 1679
f 1677 1679 1680
usemtl Chalk
v -4.00000 0.40000 -2.30000
v -3.84384 0.32092 -2.11690
v -3.74954 0.32092 -2.30000
f 1681 1682 1683
usemtl Chalk
v -3.74954 0.32092 -2.30000
v -3.84384 0.32092 -2.11690
v -3.77916 0.13000 -2.04106
v -3.64580 0.13000 -2.30000
f 1684 1685 1686
f 1684 1686 1687
usemtl Chalk
v -3.64580 0.13000 -2.30000
v -3.77916 0.13000 -2.04106
v -3.84384 -0.06092 -2.11690
v -3.74954 -0.06092 -2.30000
f 1688 1689 1690
f 1688 1690 1691
usemtl Chalk
v -3.74954 -0.06092 -2.30000
v -3.84384 -0.06092 -2.11690
v -4.00000 -0.14000 -2.30000
f 1692 1693 1694
usemtl Chalk
v -4.00000 0.40000 -2.30000
v -4.05573 0.32092 -2.07168
v -3.84384 0.32092 -2.11690
f 1695 1696 1697
usemtl Chalk
v -3.84384 0.32092 -2.11690
v -4.05573 0.32092 -2.07168
v -4.07882 0.13000 -1.97710
v -3.77916 0.13000 -2.04106
f 1698 1699 1700
f 1698 1700 1701
usemtl Chalk
v -3.77916 0.13000 -2.04106
v -4.07882 0.13000 -1.97710
v -4.05573 -0.06092 -2.07168
v -3.84384 -0.06092 -2.11690
f 1702 1703 1704
f 1702 1704 1705
usemtl Chalk
v -3.84384 -0.06092 -2.11690
v -4.05573 -0.06092 -2.07168
v -4.00000 -0.14000 -2.30000
f 1706 1707 1708
usemtl Chalk
v -4.00000 0.40000 -2.30000
v -4.22565 0.32092 -2.19839
v -4.05573 0.32092 -2.07168
f 1709 1710 1711
usemtl Chalk
v -4.05573 0.32092 -2.07168
v -4.22565 0.32092 -2.19839
v -4.31912 0.13000 -2.15630
v -4.07882 0.13000 -1.97710
f 1712 1713 1714
f 1712 1714 1715
usemtl Chalk
v -4.07882 0.13000 -1.97710
v -4.31912 0.13000 -2.15630
v -4.22565 -0.06092 -2.19839
v -4.05573 -0.06092 -2.07168
f 1716 1717 1718
f 1716 1718 1719
usemtl Chalk
v -4.05573 -0.06092 -2.07168
v -4.22565 -0.06092 -2.19839
v -4.00000 -0.14000 -2.30000
f 1720 1721 1722
usemtl Chalk
v -4.00000 0.40000 -2.30000
v -4.22565 0.32092 -2.40161
v -4.22565 0.32092 -2.19839
f 1723 1724 1725
usemtl Chalk
v -4.22565 0.32092 -2.19839
v -4.22565 0.32092 -2.40161
v -4.31912 0.13000 -2.44370
v -4.31912 0.13000 -2.15630
f 1726 1727 1728
f 1726 1728 1729
usemtl Chalk
v -4.31912 0.13000 -2.15630
v -4.31912 0.13000 -2.44370
v -4.22565 -0.06092 -2.40161
v -4.22565 -0.06092 -2.19839
f 1730 1731 1732
f 1730 1732 1733
usemtl Chalk
v -4.22565 -0.06092 -2.19839
v -4.22565 -0.06092 -2.40161
v -4.00000 -0.14000 -2.30000
f 1734 1735 1736
usemtl Chalk
v -4.00000 0.40000 -2.30000
v -4.05573 0.32092 -2.52832
v -4.22565 0.32092 -2.40161
f 1737 1738 1739
usemtl Chalk
v -4.22565 0.32092 -2.40161
v -4.05573 0.32092 -2.52832
v -4.07882 0.13000 -2.62290
v -4.31912 0.13000 -2.44370
f 1740 1741 1742
f 1740 1742 1743
usemtl Chalk
v -4.31912 0.13000 -2.44370
v -4.07882 0.13000 -2.62290
v -4.05573 -0.06092 -2.52832
v -4.22565 -0.06092 -2.40161
f 1744 1745 1746
f 1744 1746 1747
usemtl Chalk
v -4.22565 -0.06092 -2.40161
v -4.05573 -0.06092 -2.52832
v -4.00000 -0.14000 -2.30000
f 1748 1749 1750
usemtl Chalk
v -4.00000 0.40000 -2.30000
v -3.84384 0.32092 -2.48310
v -4.05573 0.32092 -2.52832
f 1751 1752 1753
usemtl Chalk
v -4.05573 0.32092 -2.52832
v -3.84384 0.32092 -2.48310
v -3.77916 0.13000 -2.55894
v -4.07882 0.13000 -2.62290
f 1754 1755 1756
f 1754 1756 1757
usemtl Chalk
v -4.07882 0.13000 -2.62290
v -3.77916 0.13000 -2.55894
v -3.84384 -0.06092 -2.48310
v -4.05573 -0.06092 -2.52832
f 1758 1759 1760
f 1758 1760 1761
usemtl Chalk
v -4.05573 -0.06092 -2.52832
v -3.84384 -0.06092 -2.48310
v -4.00000 -0.14000 -2.30000
f 1762 1763 1764
usemtl Chalk
v -4.00000 0.40000 -2.30000
v -3.74954 0.32092 -2.30000
v -3.84384 0.32092 -2.48310
f 1765 1766 1767
usemtl Chalk
v -3.84384 0.32092 -2.48310
v -3.74954 0.32092 -2.30000
v -3.64580 0.13000 -2.30000
v -3.77916 0.13000 -2.55894
f 1768 1769 1770
f 1768 1770 1771
usemtl Chalk
v -3.77916 0.13000 -2.55894
v -3.64580 0.13000 -2.30000
v -3.74954 -0.06092 -2.30000
v -3.84384 -0.06092 -2.48310
f 1772 1773 1774
f 1772 1774 1775
usemtl Chalk
v -3.84384 -0.06092 -2.48310
v -3.74954 -0.06092 -2.30000
v -4.00000 -0.14000 -2.30000
f 1776 1777 1778
usemtl Chalk
v -3.30000 0.40000 -3.50000
v -3.18458 0.32092 -3.36467
v -3.11488 0.32092 -3.50000
f 1779 1780 1781
usemtl Chalk
v -3.11488 0.32092 -3.50000
v -3.18458 0.32092 -3.36467
v -3.13677 0.13000 -3.30861
v -3.03820 0.13000 -3.50000
f 1782 1783 1784
f 1782 1784 1785
usemtl Chalk
v -3.03820 0.13000 -3.50000
v -3.13677 0.13000 -3.30861
v -3.18458 -0.06092 -3.36467
v -3.11488 -0.06092 -3.50000
f 1786 1787 1788
f 1786 1788 1789
usemtl Chalk
v -3.11488 -0.06092 -3.50000
v -3.18458 -0.06092 -3.36467
v -3.30000 -0.14000 -3.50000
f 1790 1791 1792
usemtl Chalk
v -3.30000 0.40000 -3.50000
v -3.34119 0.32092 -3.33124
v -3.18458 0.32092 -3.36467
f 1793 1794 1795
usemtl Chalk
v -3.18458 0.32092 -3.36467
v -3.34119 0.32092 -3.33124
v -3.35826 0.13000 -3.26134
v -3.13677 0.13000 -3.30861
f 1796 1797 1798
f 1796 1798 1799
usemtl Chalk
v -3.13677 0.13000 -3.30861
v -3.35826 0.13000 -3.26134
v -3.34119 -0.06092 -3.33124
v -3.18458 -0.06092 -3.36467
f 1800 1801 1802
f 1800 1802 1803
usemtl Chalk
v -3.18458 -0.06092 -3.36467
v -3.34119 -0.06092 -3.33124
v -3.30000 -0.14000 -3.50000
f 1804 1805 1806
usemtl Chalk
v -3.30000 0.40000 -3.50000
v -3.46679 0.32092 -3.42489
v -3.34119 0.32092 -3.33124
f 1807 1808 1809
usemtl Chalk
v -3.34119 0.32092 -3.33124
v -3.46679 0.32092 -3.42489
v -3.53587 0.13000 -3.39379
v -3.35826 0.13000 -3.26134
f 1810 1811 1812
f 1810 1812 1813
usemtl Chalk
v -3.35826 0.13000 -3.26134
v -3.53587 0.13000 -3.39379
v -3.46679 -0.06092 -3.42489
v -3.34119 -0.06092 -3.33124
f 1814 1815 1816
f 1814 1816 1817
usemtl Chalk
v -3.34119 -0.06092 -3.33124
v -3.46679 -0.06092 -3.42489
v -3.30000 -0.14000 -3.50000
f 1818 1819 1820
usemtl Chalk
v -3.30000 0.40000 -3.50000
v -3.46679 0.32092 -3.57511
v -3.46679 0.32092 -3.42489
f 1821 1822 1823
usemtl Chalk
v -3.46679 0.32092 -3.42489
v -3.46679 0.32092 -3.57511
v -3.53587 0.13000 -3.60621
v -3.53587 0.13000 -3.39379
f 1824 1825 1826
f 1824 1826 1827
usemtl Chalk
v -3.53587 0.13000 -3.39379
v -3.53587 0.13000 -3.60621
v -3.46679 -0.06092 -3.57511
v -3.46679 -0.06092 -3.42489
f 1828 1829 1830
f 1828 1830 1831
usemtl Chalk
v -3.46679 -0.06092 -3.42489
v -3.46679 -0.06092 -3.57511
v -3.30000 -0.14000 -3.50000
f 1832 1833 1834
usemtl Chalk
v -3.30000 0.40000 -3.50000
v -3.34119 0.32092 -3.66876
v -3.46679 0.32092 -3.57511
f 1835 1836 1837
usemtl Chalk
v -3.46679 0.32092 -3.57511
v -3.34119 0.32092 -3.66876
v -3.35826 0.13000 -3.73866
v -3.53587 0.13000 -3.60621
f 1838 1839 1840
f 1838 1840 1841
usemtl Chalk
v -3.53587 0.13000 -3.60621
v -3.35826 0.13000 -3.73866
v -3.34119 -0.06092 -3.66876
v -3.46679 -0.06092 -3.57511
f 1842 1843 1844
f 1842 1844 1845
usemtl Chalk
v -3.46679 -0.06092 -3.57511
v -3.34119 -0.06092 -3.66876
v -3.30000 -0.14000 -3.50000
f 1846 1847 1848
usemtl Chalk
v -3.30000 0.40000 -3.50000
v -3.18458 0.32092 -3.63533
v -3.34119 0.32092 -3.66876
f 1849 1850 1851
usemtl Chalk
v -3.34119 0.32092 -3.66876
v -3.18458 0.32092 -3.63533
v -3.13677 0.13000 -3.69139
v -3.35826 0.13000 -3.73866
f 1852 1853 1854
f 1852 1854 1855
usemtl Chalk
v -3.35826 0.13000 -3.73866
v -3.13677 0.13000 -3.69139
v -3.18458 -0.06092 -3.63533
v -3.34119 -0.06092 -3.66876
f 1856 1857 1858
f 1856 1858 1859
usemtl Chalk
v -3.34119 -0.06092 -3.66876
v -3.18458 -0.06092 -3.63533
v -3.30000 -0.14000 -3.50000
f 1860 1861 1862
usemtl Chalk
v -3.30000 0.40000 -3.50000
v -3.11488 0.32092 -3.50000
v -3.18458 0.32092 -3.63533
f 1863 1864 1865
usemtl Chalk
v -3.18458 0.32092 -3.63533
v -3.11488 0.32092 -3.50000
v -3.03820 0.13000 -3.50000
v -3.13677 0.13000 -3.69139
f 1866 1867 1868
f 1866 1868 1869
usemtl Chalk
v -3.13677 0.13000 -3.69139
v -3.03820 0.13000 -3.50000
v -3.11488 -0.06092 -3.50000
v -3.18458 -0.06092 -3.63533
f 1870 1871 1872
f 1870 1872 1873
usemtl Chalk
v -3.18458 -0.06092 -3.63533
v -3.11488 -0.06092 -3.50000
v -3.30000 -0.14000 -3.50000
f 1874 1875 1876
usemtl Chalk
v -1.80000 0.40000 -3.80000
v -1.69816 0.32092 -3.68059
v -1.63666 0.32092 -3.80000
f 1877 1878 1879
usemtl Chalk
v -1.63666 0.32092 -3.80000
v -1.69816 0.32092 -3.68059
v -1.65597 0.13000 -3.63112
v -1.56900 0.13000 -3.80000
f 1880 1881 1882
f 1880 1882 1883
usemtl Chalk
v -1.56900 0.13000 -3.80000
v -1.65597 0.13000 -3.63112
v -1.69816 -0.06092 -3.68059
v -1.63666 -0.06092 -3.80000
f 1884 1885 1886
f 1884 1886 1887
usemtl Chalk
v -1.63666 -0.06092 -3.80000
v -1.69816 -0.06092 -3.68059
v -1.80000 -0.14000 -3.80000
f 1888 1889 1890
usemtl Chalk
v -1.80000 0.40000 -3.80000
v -1.83635 0.32092 -3.65109
v -1.69816 0.32092 -3.68059
f 1891 1892 1893
usemtl Chalk
v -1.69816 0.32092 -3.68059
v -1.83635 0.32092 -3.65109
v -1.85140 0.13000 -3.58942
v -1.65597 0.13000 -3.63112
f 1894 1895 1896
f 1894 1896 1897
usemtl Chalk
v -1.65597 0.13000 -3.63112
v -1.85140 0.13000 -3.58942
v -1.83635 -0.06092 -3.65109
v -1.69816 -0.06092 -3.68059
f 1898 1899 1900
f 1898 1900 1901
usemtl Chalk
v -1.69816 -0.06092 -3.68059
v -1.83635 -0.06092 -3.65109
v -1.80000 -0.14000 -3.80000
f 1902 1903 1904
usemtl Chalk
v -1.80000 0.40000 -3.80000
v -1.94717 0.32092 -3.73373
v -1.83635 0.32092 -3.65109
f 1905 1906 1907
usemtl Chalk
v -1.83635 0.32092 -3.65109
v -1.94717 0.32092 -3.73373
v -2.00812 0.13000 -3.70628
v -1.85140 0.13000 -3.58942
f 1908 1909 1910
f 1908 1910 1911
usemtl Chalk
v -1.85140 0.13000 -3.58942
v -2.00812 0.13000 -3.70628
v -1.94717 -0.06092 -3.73373
v -1.83635 -0.06092 -3.65109
f 1912 1913 1914
f 1912 1914 1915
usemtl Chalk
v -1.83635 -0.06092 -3.65109
v -1.94717 -0.06092 -3.73373
v -1.80000 -0.14000 -3.80000
f 1916 1917 1918
usemtl Chalk
v -1.80000 0.40000 -3.80000
v -1.94717 0.32092 -3.86627
v -1.94717 0.32092 -3.73373
f 1919 1920 1921
usemtl Chalk
v -1.94717 0.32092 -3.73373
v -1.94717 0.32092 -3.86627
v -2.00812 0.13000 -3.89372
v -2.00812 0.13000 -3.70628
f 1922 1923 1924
f 1922 1924 1925
usemtl Chalk
v -2.00812 0.13000 -3.70628
v -2.00812 0.13000 -3.89372
v -1.94717 -0.06092 -3.86627
v -1.94717 -0.06092 -3.73373
f 1926 1927 1928
f 1926 1928 1929
usemtl Chalk
v -1.94717 -0.06092 -3.73373
v -1.94717 -0.06092 -3.86627
v -1.80000 -0.14000 -3.80000
f 1930 1931 1932
usemtl Chalk
v -1.80000 0.40000 -3.80000
v -1.83635 0.32092 -3.94891
v -1.94717 0.32092 -3.86627
f 1933 1934 1935
usemtl Chalk
v -1.94717 0.32092 -3.86627
v -1.83635 0.32092 -3.94891
v -1.85140 0.13000 -4.01058
v -2.00812 0.13000 -3.89372
f 1936 1937 1938
f 1936 1938 1939
usemtl Chalk
v -2.00812 0.13000 -3.89372
v -1.85140 0.13000 -4.01058
v -1.83635 -0.06092 -3.94891
v -1.94717 -0.06092 -3.86627
f 1940 1941 1942
f 1940 1942 1943
usemtl Chalk
v -1.94717 -0.06092 -3.86627
v -1.83635 -0.06092 -3.94891
v -1.80000 -0.14000 -3.80000
f 1944 1945 1946
usemtl Chalk
v -1.80000 0.40000 -3.80000
v -1.69816 0.32092 -3.91941
v -1.83635 0.32092 -3.94891
f 1947 1948 1949
usemtl Chalk
v -1.83635 0.32092 -3.94891
v -1.69816 0.32092 -3.91941
v -1.65597 0.13000 -3.96888
v -1.85140 0.13000 -4.01058
f 1950 1951 1952
f 1950 1952 1953
usemtl Chalk
v -1.85140 0.13000 -4.01058
v -1.65597 0.13000 -3.96888
v -1.69816 -0.06092 -3.91941
v -1.83635 -0.06092 -3.94891
f 1954 1955 1956
f 1954 1956 1957
usemtl Chalk
v -1.83635 -0.06092 -3.94891
v -1.69816 -0.06092 -3.91941
v -1.80000 -0.14000 -3.80000
f 1958 1959 1960
usemtl Chalk
v -1.80000 0.40000 -3.80000
v -1.63666 0.32092 -3.80000
v -1.69816 0.32092 -3.91941
f 1961 1962 1963
usemtl Chalk
v -1.69816 0.32092 -3.91941
v -1.63666 0.32092 -3.80000
v -1.56900 0.13000 -3.80000
v -1.65597 0.13000 -3.96888
f 1964 1965 1966
f 1964 1966 1967
usemtl Chalk
v -1.65597 0.13000 -3.96888
v -1.56900 0.13000 -3.80000
v -1.63666 -0.06092 -3.80000
v -1.69816 -0.06092 -3.91941
f 1968 1969 1970
f 1968 1970 1971
usemtl Chalk
v -1.69816 -0.06092 -3.91941
v -1.63666 -0.06092 -3.80000
v -1.80000 -0.14000 -3.80000
f 1972 1973 1974
usemtl Chalk
v -0.15000 0.40000 -3.40000
v -0.02100 0.32092 -3.24874
v 0.05690 0.32092 -3.40000
f 1975 1976 1977
usemtl Chalk
v 0.05690 0.32092 -3.40000
v -0.02100 0.32092 -3.24874
v 0.03243 0.13000 -3.18609
v 0.14260 0.13000 -3.40000
f 1978 1979 1980
f 1978 1980 1981
usemtl Chalk
v 0.14260 0.13000 -3.40000
v 0.03243 0.13000 -3.18609
v -0.02100 -0.06092 -3.24874
v 0.05690 -0.06092 -3.40000
f 1982 1983 1984
f 1982 1984 1985
usemtl Chalk
v 0.05690 -0.06092 -3.40000
v -0.02100 -0.06092 -3.24874
v -0.15000 -0.14000 -3.40000
f 1986 1987 1988
usemtl Chalk
v -0.15000 0.40000 -3.40000
v -0.19604 0.32092 -3.21139
v -0.02100 0.32092 -3.24874
f 1989 1990 1991
usemtl Chalk
v -0.02100 0.32092 -3.24874
v -0.19604 0.32092 -3.21139
v -0.21511 0.13000 -3.13326
v 0.03243 0.13000 -3.18609
f 1992 1993 1994
f 1992 1994 1995
usemtl Chalk
v 0.03243 0.13000 -3.18609
v -0.21511 0.13000 -3.13326
v -0.19604 -0.06092 -3.21139
v -0.02100 -0.06092 -3.24874
f 1996 1997 1998
f 1996 1998 1999
usemtl Chalk
v -0.02100 -0.06092 -3.24874
v -0.19604 -0.06092 -3.21139
v -0.15000 -0.14000 -3.40000
f 2000 2001 2002
usemtl Chalk
v -0.15000 0.40000 -3.40000
v -0.33641 0.32092 -3.31606
v -0.19604 0.32092 -3.21139
f 2003 2004 2005
usemtl Chalk
v -0.19604 0.32092 -3.21139
v -0.33641 0.32092 -3.31606
v -0.41362 0.13000 -3.28129
v -0.21511 0.13000 -3.13326
f 2006 2007 2008
f 2006 2008 2009
usemtl Chalk
v -0.21511 0.13000 -3.13326
v -0.41362 0.13000 -3.28129
v -0.33641 -0.06092 -3.31606
v -0.19604 -0.06092 -3.21139
f 2010 2011 2012
f 2010 2012 2013
usemtl Chalk
v -0.19604 -0.06092 -3.21139
v -0.33641 -0.06092 -3.31606
v -0.15000 -0.14000 -3.40000
f 2014 2015 2016
usemtl Chalk
v -0.15000 0.40000 -3.40000
v -0.33641 0.32092 -3.48394
v -0.33641 0.32092 -3.31606
f 2017 2018 2019
usemtl Chalk
v -0.33641 0.32092 -3.31606
v -0.33641 0.32092 -3.48394
v -0.41362 0.13000 -3.51871
v -0.41362 0.13000 -3.28129
f 2020 2021 2022
f 2020 2022 2023
usemtl Chalk
v -0.41362 0.13000 -3.28129
v -0.41362 0.13000 -3.51871
v -0.33641 -0.06092 -3.48394
v -0.33641 -0.06092 -3.31606
f 2024 2025 2026
f 2024 2026 2027
usemtl Chalk
v -0.33641 -0.06092 -3.31606
v -0.33641 -0.06092 -3.48394
v -0.15000 -0.14000 -3.40000
f 2028 2029 2030
usemtl Chalk
v -0.15000 0.40000 -3.40000
v -0.19604 0.32092 -3.58861
v -0.33641 0.32092 -3.48394
f 2031 2032 2033
usemtl Chalk
v -0.33641 0.32092 -3.48394
v -0.19604 0.32092 -3.58861
v -0.21511 0.13000 -3.66674
v -0.41362 0.13000 -3.51871
f 2034 2035 2036
f 2034 2036 2037
usemtl Chalk
v -0.41362 0.13000 -3.51871
v -0.21511 0.13000 -3.66674
v -0.19604 -0.06092 -3.58861
v -0.33641 -0.06092 -3.48394
f 2038 2039 2040
f 2038 2040 2041
usemtl Chalk
v -0.33641 -0.06092 -3.48394
v -0.19604 -0.06092 -3.58861
v -0.15000 -0.14000 -3.40000
f 2042 2043 2044
usemtl Chalk
v -0.15000 0.40000 -3.40000
v -0.02100 0.32092 -3.55126
v -0.19604 0.32092 -3.58861
f 2045 2046 2047
usemtl Chalk
v -0.19604 0.32092 -3.58861
v -0.02100 0.32092 -3.55126
v 0.03243 0.13000 -3.61391
v -0.21511 0.13000 -3.66674
f 2048 2049 2050
f 2048 2050 2051
usemtl Chalk
v -0.21511 0.13000 -3.66674
v 0.03243 0.13000 -3.61391
v -0.02100 -0.06092 -3.55126
v -0.19604 -0.06092 -3.58861
f 2052 2053 2054
f 2052 2054 2055
usemtl Chalk
v -0.19604 -0.06092 -3.58861
v -0.02100 -0.06092 -3.55126
v -0.15000 -0.14000 -3.40000
f 2056 2057 2058
usemtl Chalk
v -0.15000 0.40000 -3.40000
v 0.05690 0.32092 -3.40000
v -0.02100 0.32092 -3.55126
f 2059 2060 2061
usemtl Chalk
v -0.02100 0.32092 -3.55126
v 0.05690 0.32092 -3.40000
v 0.14260 0.13000 -3.40000
v 0.03243 0.13000 -3.61391
f 2062 2063 2064
f 2062 2064 2065
usemtl Chalk
v 0.03243 0.13000 -3.61391
v 0.14260 0.13000 -3.40000
v 0.05690 -0.06092 -3.40000
v -0.02100 -0.06092 -3.55126
f 2066 2067 2068
f 2066 2068 2069
usemtl Chalk
v -0.02100 -0.06092 -3.55126
v 0.05690 -0.06092 -3.40000
v -0.15000 -0.14000 -3.40000
f 2070 2071 2072
usemtl Chalk
v 1.55000 0.40000 -3.80000
v 1.69258 0.32092 -3.63282
v 1.77868 0.32092 -3.80000
f 2073 2074 2075
usemtl Chalk
v 1.77868 0.32092 -3.80000
v 1.69258 0.32092 -3.63282
v 1.75164 0.13000 -3.56357
v 1.87340 0.13000 -3.80000
f 2076 2077 2078
f 2076 2078 2079
usemtl Chalk
v 1.87340 0.13000 -3.80000
v 1.75164 0.13000 -3.56357
v 1.69258 -0.06092 -3.63282
v 1.77868 -0.06092 -3.80000
f 2080 2081 2082
f 2080 2082 2083
usemtl Chalk
v 1.77868 -0.06092 -3.80000
v 1.69258 -0.06092 -3.63282
v 1.55000 -0.14000 -3.80000
f 2084 2085 2086
usemtl Chalk
v 1.55000 0.40000 -3.80000
v 1.49911 0.32092 -3.59153
v 1.69258 0.32092 -3.63282
f 2087 2088 2089
usemtl Chalk
v 1.69258 0.32092 -3.63282
v 1.49911 0.32092 -3.59153
v 1.47804 0.13000 -3.50518
v 1.75164 0.13000 -3.56357
f 2090 2091 2092
f 2090 2092 2093
usemtl Chalk
v 1.75164 0.13000 -3.56357
v 1.47804 0.13000 -3.50518
v 1.49911 -0.06092 -3.59153
v 1.69258 -0.06092 -3.63282
f 2094 2095 2096
f 2094 2096 2097
usemtl Chalk
v 1.69258 -0.06092 -3.63282
v 1.49911 -0.06092 -3.59153
v 1.55000 -0.14000 -3.80000
f 2098 2099 2100
usemtl Chalk
v 1.55000 0.40000 -3.80000
v 1.34397 0.32092 -3.70722
v 1.49911 0.32092 -3.59153
f 2101 2102 2103
usemtl Chalk
v 1.49911 0.32092 -3.59153
v 1.34397 0.32092 -3.70722
v 1.25863 0.13000 -3.66879
v 1.47804 0.13000 -3.50518
f 2104 2105 2106
f 2104 2106 2107
usemtl Chalk
v 1.47804 0.13000 -3.50518
v 1.25863 0.13000 -3.66879
v 1.34397 -0.06092 -3.70722
v 1.49911 -0.06092 -3.59153
f 2108 2109 2110
f 2108 2110 2111
usemtl Chalk
v 1.49911 -0.06092 -3.59153
v 1.34397 -0.06092 -3.70722
v 1.55000 -0.14000 -3.80000
f 2112 2113 2114
usemtl Chalk
v 1.55000 0.40000 -3.80000
v 1.34397 0.32092 -3.89278
v 1.34397 0.32092 -3.70722
f 2115 2116 2117
usemtl Chalk
v 1.34397 0.32092 -3.70722
v 1.34397 0.32092 -3.89278
v 1.25863 0.13000 -3.93121
v 1.25863 0.13000 -3.66879
f 2118 2119 2120
f 2118 2120 2121
usemtl Chalk
v 1.25863 0.13000 -3.66879
v 1.25863 0.13000 -3.93121
v 1.34397 -0.06092 -3.89278
v 1.34397 -0.06092 -3.70722
f 2122 2123 2124
f 2122 2124 2125
usemtl Chalk
v 1.34397 -0.06092 -3.70722
v 1.34397 -0.06092 -3.89278
v 1.55000 -0.14000 -3.80000
f 2126 2127 2128
usemtl Chalk
v 1.55000 0.40000 -3.80000
v 1.49911 0.32092 -4.00847
v 1.34397 0.32092 -3.89278
f 2129 2130 2131
usemtl Chalk
v 1.34397 0.32092 -3.89278
v 1.49911 0.32092 -4.00847
v 1.47804 0.13000 -4.09482
v 1.25863 0.13000 -3.93121
f 2132 2133 2134
f 2132 2134 2135
usemtl Chalk
v 1.25863 0.13000 -3.93121
v 1.47804 0.13000 -4.09482
v 1.49911 -0.06092 -4.00847
v 1.34397 -0.06092 -3.89278
f 2136 2137 2138
f 2136 2138 2139
usemtl Chalk
v 1.34397 -0.06092 -3.89278
v 1.49911 -0.06092 -4.00847
v 1.55000 -0.14000 -3.80000
f 2140 2141 2142
usemtl Chalk
v 1.55000 0.40000 -3.80000
v 1.69258 0.32092 -3.96718
v 1.49911 0.32092 -4.00847
f 2143 2144 2145
usemtl Chalk
v 1.49911 0.32092 -4.00847
v 1.69258 0.32092 -3.96718
v 1.75164 0.13000 -4.03643
v 1.47804 0.13000 -4.09482
f 2146 2147 2148
f 2146 2148 2149
usemtl Chalk
v 1.47804 0.13000 -4.09482
v 1.75164 0.13000 -4.03643
v 1.69258 -0.06092 -3.96718
v 1.49911 -0.06092 -4.00847
f 2150 2151 2152
f 2150 2152 2153
usemtl Chalk
v 1.49911 -0.06092 -4.00847
v 1.69258 -0.06092 -3.96718
v 1.55000 -0.14000 -3.80000
f 2154 2155 2156
usemtl Chalk
v 1.55000 0.40000 -3.80000
v 1.77868 0.32092 -3.80000
v 1.69258 0.32092 -3.96718
f 2157 2158 2159
usemtl Chalk
v 1.69258 0.32092 -3.96718
v 1.77868 0.32092 -3.80000
v 1.87340 0.13000 -3.80000
v 1.75164 0.13000 -4.03643
f 2160 2161 2162
f 2160 2162 2163
usemtl Chalk
v 1.75164 0.13000 -4.03643
v 1.87340 0.13000 -3.80000
v 1.77868 -0.06092 -3.80000
v 1.69258 -0.06092 -3.96718
f 2164 2165 2166
f 2164 2166 2167
usemtl Chalk
v 1.69258 -0.06092 -3.96718
v 1.77868 -0.06092 -3.80000
v 1.55000 -0.14000 -3.80000
f 2168 2169 2170
usemtl Chalk
v 3.10000 0.40000 -2.70000
v 3.21542 0.32092 -2.56467
v 3.28512 0.32092 -2.70000
f 2171 2172 2173
usemtl Chalk
v 3.28512 0.32092 -2.70000
v 3.21542 0.32092 -2.56467
v 3.26323 0.13000 -2.50861
v 3.36180 0.13000 -2.70000
f 2174 2175 2176
f 2174 2176 2177
usemtl Chalk
v 3.36180 0.13000 -2.70000
v 3.26323 0.13000 -2.50861
v 3.21542 -0.06092 -2.56467
v 3.28512 -0.06092 -2.70000
f 2178 2179 2180
f 2178 2180 2181
usemtl Chalk
v 3.28512 -0.06092 -2.70000
v 3.21542 -0.06092 -2.56467
v 3.10000 -0.14000 -2.70000
f 2182 2183 2184
usemtl Chalk
v 3.10000 0.40000 -2.70000
v 3.05881 0.32092 -2.53124
v 3.21542 0.32092 -2.56467
f 2185 2186 2187
usemtl Chalk
v 3.21542 0.32092 -2.56467
v 3.05881 0.32092 -2.53124
v 3.04174 0.13000 -2.46134
v 3.26323 0.13000 -2.50861
f 2188 2189 2190
f 2188 2190 2191
usemtl Chalk
v 3.26323 0.13000 -2.50861
v 3.04174 0.13000 -2.46134
v 3.05881 -0.06092 -2.53124
v 3.21542 -0.06092 -2.56467
f 2192 2193 2194
f 2192 2194 2195
usemtl Chalk
v 3.21542 -0.06092 -2.56467
v 3.05881 -0.06092 -2.53124
v 3.10000 -0.14000 -2.70000
f 2196 2197 2198
usemtl Chalk
v 3.10000 0.40000 -2.70000
v 2.93321 0.32092 -2.62489
v 3.05881 0.32092 -2.53124
f 2199 2200 2201
usemtl Chalk
v 3.05881 0.32092 -2.53124
v 2.93321 0.32092 -2.62489
v 2.86413 0.13000 -2.59379
v 3.04174 0.13000 -2.46134
f 2202 2203 2204
f 2202 2204 2205
usemtl Chalk
v 3.04174 0.13000 -2.46134
v 2.86413 0.13000 -2.59379
v 2.93321 -0.06092 -2.62489
v 3.05881 -0.06092 -2.53124
f 2206 2207 2208
f 2206 2208 2209
usemtl Chalk
v 3.05881 -0.06092 -2.53124
v 2.93321 -0.06092 -2.62489
v 3.10000 -0.14000 -2.70000
f 2210 2211 2212
usemtl Chalk
v 3.10000 0.40000 -2.70000
v 2.93321 0.32092 -2.77511
v 2.93321 0.32092 -2.62489
f 2213 2214 2215
usemtl Chalk
v 2.93321 0.32092 -2.62489
v 2.93321 0.32092 -2.77511
v 2.86413 0.13000 -2.80621
v 2.86413 0.13000 -2.59379
f 2216 2217 2218
f 2216 2218 2219
usemtl Chalk
v 2.86413 0.13000 -2.59379
v 2.86413 0.13000 -2.80621
v 2.93321 -0.06092 -2.77511
v 2.93321 -0.06092 -2.62489
f 2220 2221 2222
f 2220 2222 2223
usemtl Chalk
v 2.93321 -0.06092 -2.62489
v 2.93321 -0.06092 -2.77511
v 3.10000 -0.14000 -2.70000
f 2224 2225 2226
usemtl Chalk
v 3.10000 0.40000 -2.70000
v 3.05881 0.32092 -2.86876
v 2.93321 0.32092 -2.77511
f 2227 2228 2229
usemtl Chalk
v 2.93321 0.32092 -2.77511
v 3.05881 0.32092 -2.86876
v 3.04174 0.13000 -2.93866
v 2.86413 0.13000 -2.80621
f 2230 2231 2232
f 2230 2232 2233
usemtl Chalk
v 2.86413 0.13000 -2.80621
v 3.04174 0.13000 -2.93866
v 3.05881 -0.06092 -2.86876
v 2.93321 -0.06092 -2.77511
f 2234 2235 2236
f 2234 2236 2237
usemtl Chalk
v 2.93321 -0.06092 -2.77511
v 3.05881 -0.06092 -2.86876
v 3.10000 -0.14000 -2.70000
f 2238 2239 2240
usemtl Chalk
v 3.10000 0.40000 -2.70000
v 3.21542 0.32092 -2.83533
v 3.05881 0.32092 -2.86876
f 2241 2242 2243
usemtl Chalk
v 3.05881 0.32092 -2.86876
v 3.21542 0.32092 -2.83533
v 3.26323 0.13000 -2.89139
v 3.04174 0.13000 -2.93866
f 2244 2245 2246
f 2244 2246 2247
usemtl Chalk
v 3.04174 0.13000 -2.93866
v 3.26323 0.13000 -2.89139
v 3.21542 -0.06092 -2.83533
v 3.05881 -0.06092 -2.86876
f 2248 2249 2250
f 2248 2250 2251
usemtl Chalk
v 3.05881 -0.06092 -2.86876
v 3.21542 -0.06092 -2.83533
v 3.10000 -0.14000 -2.70000
f 2252 2253 2254
usemtl Chalk
v 3.10000 0.40000 -2.70000
v 3.28512 0.32092 -2.70000
v 3.21542 0.32092 -2.83533
f 2255 2256 2257
usemtl Chalk
v 3.21542 0.32092 -2.83533
v 3.28512 0.32092 -2.70000
v 3.36180 0.13000 -2.70000
v 3.26323 0.13000 -2.89139
f 2258 2259 2260
f 2258 2260 2261
usemtl Chalk
v 3.26323 0.13000 -2.89139
v 3.36180 0.13000 -2.70000
v 3.28512 -0.06092 -2.70000
v 3.21542 -0.06092 -2.83533
f 2262 2263 2264
f 2262 2264 2265
usemtl Chalk
v 3.21542 -0.06092 -2.83533
v 3.28512 -0.06092 -2.70000
v 3.10000 -0.14000 -2.70000
f 2266 2267 2268
usemtl Chalk
v 4.10000 0.40000 -1.20000
v 4.24597 0.32092 -1.02884
v 4.33412 0.32092 -1.20000
f 2269 2270 2271
usemtl Chalk
v 4.33412 0.32092 -1.20000
v 4.24597 0.32092 -1.02884
v 4.30644 0.13000 -0.95794
v 4.43110 0.13000 -1.20000
f 2272 2273 2274
f 2272 2274 2275
usemtl Chalk
v 4.43110 0.13000 -1.20000
v 4.30644 0.13000 -0.95794
v 4.24597 -0.06092 -1.02884
v 4.33412 -0.06092 -1.20000
f 2276 2277 2278
f 2276 2278 2279
usemtl Chalk
v 4.33412 -0.06092 -1.20000
v 4.24597 -0.06092 -1.02884
v 4.10000 -0.14000 -1.20000
f 2280 2281 2282
usemtl Chalk
v 4.10000 0.40000 -1.20000
v 4.04790 0.32092 -0.98657
v 4.24597 0.32092 -1.02884
f 2283 2284 2285
usemtl Chalk
v 4.24597 0.32092 -1.02884
v 4.04790 0.32092 -0.98657
v 4.02632 0.13000 -0.89816
v 4.30644 0.13000 -0.95794
f 2286 2287 2288
f 2286 2288 2289
usemtl Chalk
v 4.30644 0.13000 -0.95794
v 4.02632 0.13000 -0.89816
v 4.04790 -0.06092 -0.98657
v 4.24597 -0.06092 -1.02884
f 2290 2291 2292
f 2290 2292 2293
usemtl Chalk
v 4.24597 -0.06092 -1.02884
v 4.04790 -0.06092 -0.98657
v 4.10000 -0.14000 -1.20000
f 2294 2295 2296
usemtl Chalk
v 4.10000 0.40000 -1.20000
v 3.88906 0.32092 -1.10501
v 4.04790 0.32092 -0.98657
f 2297 2298 2299
usemtl Chalk
v 4.04790 0.32092 -0.98657
v 3.88906 0.32092 -1.10501
v 3.80169 0.13000 -1.06567
v 4.02632 0.13000 -0.89816
f 2300 2301 2302
f 2300 2302 2303
usemtl Chalk
v 4.02632 0.13000 -0.89816
v 3.80169 0.13000 -1.06567
v 3.88906 -0.06092 -1.10501
v 4.04790 -0.06092 -0.98657
f 2304 2305 2306
f 2304 2306 2307
usemtl Chalk
v 4.04790 -0.06092 -0.98657
v 3.88906 -0.06092 -1.10501
v 4.10000 -0.14000 -1.20000
f 2308 2309 2310
usemtl Chalk
v 4.10000 0.40000 -1.20000
v 3.88906 0.32092 -1.29499
v 3.88906 0.32092 -1.10501
f 2311 2312 2313
usemtl Chalk
v 3.88906 0.32092 -1.10501
v 3.88906 0.32092 -1.29499
v 3.80169 0.13000 -1.33433
v 3.80169 0.13000 -1.06567
f 2314 2315 2316
f 2314 2316 2317
usemtl Chalk
v 3.80169 0.13000 -1.06567
v 3.80169 0.13000 -1.33433
v 3.88906 -0.06092 -1.29499
v 3.88906 -0.06092 -1.10501
f 2318 2319 2320
f 2318 2320 2321
usemtl Chalk
v 3.88906 -0.06092 -1.10501
v 3.88906 -0.06092 -1.29499
v 4.10000 -0.14000 -1.20000
f 2322 2323 2324
usemtl Chalk
v 4.10000 0.40000 -1.20000
v 4.04790 0.32092 -1.41343
v 3.88906 0.32092 -1.29499
f 2325 2326 2327
usemtl Chalk
v 3.88906 0.32092 -1.29499
v 4.04790 0.32092 -1.41343
v 4.02632 0.13000 -1.50184
v 3.80169 0.13000 -1.33433
f 2328 2329 2330
f 2328 2330 2331
usemtl Chalk
v 3.80169 0.13000 -1.33433
v 4.02632 0.13000 -1.50184
v 4.04790 -0.06092 -1.41343
v 3.88906 -0.06092 -1.29499
f 2332 2333 2334
f 2332 2334 2335
usemtl Chalk
v 3.88906 -0.06092 -1.29499
v 4.04790 -0.06092 -1.41343
v 4.10000 -0.14000 -1.20000
f 2336 2337 2338
usemtl Chalk
v 4.10000 0.40000 -1.20000
v 4.24597 0.32092 -1.37116
v 4.04790 0.32092 -1.41343
f 2339 2340 2341
usemtl Chalk
v 4.04790 0.32092 -1.41343
v 4.24597 0.32092 -1.37116
v 4.30644 0.13000 -1.44206
v 4.02632 0.13000 -1.50184
f 2342 2343 2344
f 2342 2344 2345
usemtl Chalk
v 4.02632 0.13000 -1.50184
v 4.30644 0.13000 -1.44206
v 4.24597 -0.06092 -1.37116
v 4.04790 -0.06092 -1.41343
f 2346 2347 2348
f 2346 2348 2349
usemtl Chalk
v 4.04790 -0.06092 -1.41343
v 4.24597 -0.06092 -1.37116
v 4.10000 -0.14000 -1.20000
f 2350 2351 2352
usemtl Chalk
v 4.10000 0.40000 -1.20000
v 4.33412 0.32092 -1.20000
v 4.24597 0.32092 -1.37116
f 2353 2354 2355
usemtl Chalk
v 4.24597 0.32092 -1.37116
v 4.33412 0.32092 -1.20000
v 4.43110 0.13000 -1.20000
v 4.30644 0.13000 -1.44206
f 2356 2357 2358
f 2356 2358 2359
usemtl Chalk
v 4.30644 0.13000 -1.44206
v 4.43110 0.13000 -1.20000
v 4.33412 -0.06092 -1.20000
v 4.24597 -0.06092 -1.37116
f 2360 2361 2362
f 2360 2362 2363
usemtl Chalk
v 4.24597 -0.06092 -1.37116
v 4.33412 -0.06092 -1.20000
v 4.10000 -0.14000 -1.20000
f 2364 2365 2366
usemtl Chalk
v 4.60000 0.40000 1.20000
v 4.71203 0.32092 1.33135
v 4.77968 0.32092 1.20000
f 2367 2368 2369
usemtl Chalk
v 4.77968 0.32092 1.20000
v 4.71203 0.32092 1.33135
v 4.75843 0.13000 1.38576
v 4.85410 0.13000 1.20000
f 2370 2371 2372
f 2370 2372 2373
usemtl Chalk
v 4.85410 0.13000 1.20000
v 4.75843 0.13000 1.38576
v 4.71203 -0.06092 1.33135
v 4.77968 -0.06092 1.20000
f 2374 2375 2376
f 2374 2376 2377
usemtl Chalk
v 4.77968 -0.06092 1.20000
v 4.71203 -0.06092 1.33135
v 4.60000 -0.14000 1.20000
f 2378 2379 2380
usemtl Chalk
v 4.60000 0.40000 1.20000
v 4.56002 0.32092 1.36380
v 4.71203 0.32092 1.33135
f 2381 2382 2383
usemtl Chalk
v 4.71203 0.32092 1.33135
v 4.56002 0.32092 1.36380
v 4.54346 0.13000 1.43164
v 4.75843 0.13000 1.38576
f 2384 2385 2386
f 2384 2386 2387
usemtl Chalk
v 4.75843 0.13000 1.38576
v 4.54346 0.13000 1.43164
v 4.56002 -0.06092 1.36380
v 4.71203 -0.06092 1.33135
f 2388 2389 2390
f 2388 2390 2391
usemtl Chalk
v 4.71203 -0.06092 1.33135
v 4.56002 -0.06092 1.36380
v 4.60000 -0.14000 1.20000
f 2392 2393 2394
usemtl Chalk
v 4.60000 0.40000 1.20000
v 4.43812 0.32092 1.27290
v 4.56002 0.32092 1.36380
f 2395 2396 2397
usemtl Chalk
v 4.56002 0.32092 1.36380
v 4.43812 0.32092 1.27290
v 4.37106 0.13000 1.30309
v 4.54346 0.13000 1.43164
f 2398 2399 2400
f 2398 2400 2401
usemtl Chalk
v 4.54346 0.13000 1.43164
v 4.37106 0.13000 1.30309
v 4.43812 -0.06092 1.27290
v 4.56002 -0.06092 1.36380
f 2402 2403 2404
f 2402 2404 2405
usemtl Chalk
v 4.56002 -0.06092 1.36380
v 4.43812 -0.06092 1.27290
v 4.60000 -0.14000 1.20000
f 2406 2407 2408
usemtl Chalk
v 4.60000 0.40000 1.20000
v 4.43812 0.32092 1.12710
v 4.43812 0.32092 1.27290
f 2409 2410 2411
usemtl Chalk
v 4.43812 0.32092 1.27290
v 4.43812 0.32092 1.12710
v 4.37106 0.13000 1.09691
v 4.37106 0.13000 1.30309
f 2412 2413 2414
f 2412 2414 2415
usemtl Chalk
v 4.37106 0.13000 1.30309
v 4.37106 0.13000 1.09691
v 4.43812 -0.06092 1.12710
v 4.43812 -0.06092 1.27290
f 2416 2417 2418
f 2416 2418 2419
usemtl Chalk
v 4.43812 -0.06092 1.27290
v 4.43812 -0.06092 1.12710
v 4.60000 -0.14000 1.20000
f 2420 2421 2422
usemtl Chalk
v 4.60000 0.40000 1.20000
v 4.56002 0.32092 1.03620
v 4.43812 0.32092 1.12710
f 2423 2424 2425
usemtl Chalk
v 4.43812 0.32092 1.12710
v 4.56002 0.32092 1.03620
v 4.54346 0.13000 0.96836
v 4.37106 0.13000 1.09691
f 2426 2427 2428
f 2426 2428 2429
usemtl Chalk
v 4.37106 0.13000 1.09691
v 4.54346 0.13000 0.96836
v 4.56002 -0.06092 1.03620
v 4.43812 -0.06092 1.12710
f 2430 2431 2432
f 2430 2432 2433
usemtl Chalk
v 4.43812 -0.06092 1.12710
v 4.56002 -0.06092 1.03620
v 4.60000 -0.14000 1.20000
f 2434 2435 2436
usemtl Chalk
v 4.60000 0.40000 1.20000
v 4.71203 0.32092 1.06865
v 4.56002 0.32092 1.03620
f 2437 2438 2439
usemtl Chalk
v 4.56002 0.32092 1.03620
v 4.71203 0.32092 1.06865
v 4.75843 0.13000 1.01424
v 4.54346 0.13000 0.96836
f 2440 2441 2442
f 2440 2442 2443
usemtl Chalk
v 4.54346 0.13000 0.96836
v 4.75843 0.13000 1.01424
v 4.71203 -0.06092 1.06865
v 4.56002 -0.06092 1.03620
f 2444 2445 2446
f 2444 2446 2447
usemtl Chalk
v 4.56002 -0.06092 1.03620
v 4.71203 -0.06092 1.06865
v 4.60000 -0.14000 1.20000
f 2448 2449 2450
usemtl Chalk
v 4.60000 0.40000 1.20000
v 4.77968 0.32092 1.20000
v 4.71203 0.32092 1.06865
f 2451 2452 2453
usemtl Chalk
v 4.71203 0.32092 1.06865
v 4.77968 0.32092 1.20000
v 4.85410 0.13000 1.20000
v 4.75843 0.13000 1.01424
f 2454 2455 2456
f 2454 2456 2457
usemtl Chalk
v 4.75843 0.13000 1.01424
v 4.85410 0.13000 1.20000
v 4.77968 -0.06092 1.20000
v 4.71203 -0.06092 1.06865
f 2458 2459 2460
f 2458 2460 2461
usemtl Chalk
v 4.71203 -0.06092 1.06865
v 4.77968 -0.06092 1.20000
v 4.60000 -0.14000 1.20000
f 2462 2463 2464
usemtl Chalk
v -4.60000 0.40000 0.00000
v -4.50834 0.32092 0.10747
v -4.45299 0.32092 0.00000
f 2465 2466 2467
usemtl Chalk
v -4.45299 0.32092 0.00000
v -4.50834 0.32092 0.10747
v -4.47038 0.13000 0.15199
v -4.39210 0.13000 0.00000
f 2468 2469 2470
f 2468 2470 2471
usemtl Chalk
v -4.39210 0.13000 0.00000
v -4.47038 0.13000 0.15199
v -4.50834 -0.06092 0.10747
v -4.45299 -0.06092 0.00000
f 2472 2473 2474
f 2472 2474 2475
usemtl Chalk
v -4.45299 -0.06092 0.00000
v -4.50834 -0.06092 0.10747
v -4.60000 -0.14000 0.00000
f 2476 2477 2478
usemtl Chalk
v -4.60000 0.40000 0.00000
v -4.63271 0.32092 0.13402
v -4.50834 0.32092 0.10747
f 2479 2480 2481
usemtl Chalk
v -4.50834 0.32092 0.10747
v -4.63271 0.32092 0.13402
v -4.64626 0.13000 0.18953
v -4.47038 0.13000 0.15199
f 2482 2483 2484
f 2482 2484 2485
usemtl Chalk
v -4.47038 0.13000 0.15199
v -4.64626 0.13000 0.18953
v -4.63271 -0.06092 0.13402
v -4.50834 -0.06092 0.10747
f 2486 2487 2488
f 2486 2488 2489
usemtl Chalk
v -4.50834 -0.06092 0.10747
v -4.63271 -0.06092 0.13402
v -4.60000 -0.14000 0.00000
f 2490 2491 2492
usemtl Chalk
v -4.60000 0.40000 0.00000
v -4.73245 0.32092 0.05964
v -4.63271 0.32092 0.13402
f 2493 2494 2495
usemtl Chalk
v -4.63271 0.32092 0.13402
v -4.73245 0.32092 0.05964
v -4.78731 0.13000 0.08435
v -4.64626 0.13000 0.18953
f 2496 2497 2498
f 2496 2498 2499
usemtl Chalk
v -4.64626 0.13000 0.18953
v -4.78731 0.13000 0.08435
v -4.73245 -0.06092 0.05964
v -4.63271 -0.06092 0.13402
f 2500 2501 2502
f 2500 2502 2503
usemtl Chalk
v -4.63271 -0.06092 0.13402
v -4.73245 -0.06092 0.05964
v -4.60000 -0.14000 0.00000
f 2504 2505 2506
usemtl Chalk
v -4.60000 0.40000 0.00000
v -4.73245 0.32092 -0.05964
v -4.73245 0.32092 0.05964
f 2507 2508 2509
usemtl Chalk
v -4.73245 0.32092 0.05964
v -4.73245 0.32092 -0.05964
v -4.78731 0.13000 -0.08435
v -4.78731 0.13000 0.08435
f 2510 2511 2512
f 2510 2512 2513
usemtl Chalk
v -4.78731 0.13000 0.08435
v -4.78731 0.13000 -0.08435
v -4.73245 -0.06092 -0.05964
v -4.73245 -0.06092 0.05964
f 2514 2515 2516
f 2514 2516 2517
usemtl Chalk
v -4.73245 -0.06092 0.05964
v -4.73245 -0.06092 -0.05964
v -4.60000 -0.14000 0.00000
f 2518 2519 2520
usemtl Chalk
v -4.60000 0.40000 0.00000
v -4.63271 0.32092 -0.13402
v -4.73245 0.32092 -0.05964
f 2521 2522 2523
usemtl Chalk
v -4.73245 0.32092 -0.05964
v -4.63271 0.32092 -0.13402
v -4.64626 0.13000 -0.18953
v -4.78731 0.13000 -0.08435
f 2524 2525 2526
f 2524 2526 2527
usemtl Chalk
v -4.78731 0.13000 -0.08435
v -4.64626 0.13000 -0.18953
v -4.63271 -0.06092 -0.13402
v -4.73245 -0.06092 -0.05964
f 2528 2529 2530
f 2528 2530 2531
usemtl Chalk
v -4.73245 -0.06092 -0.05964
v -4.63271 -0.06092 -0.13402
v -4.60000 -0.14000 0.00000
f 2532 2533 2534
usemtl Chalk
v -4.60000 0.40000 0.00000
v -4.50834 0.32092 -0.10747
v -4.63271 0.32092 -0.13402
f 2535 2536 2537
usemtl Chalk
v -4.63271 0.32092 -0.13402
v -4.50834 0.32092 -0.10747
v -4.47038 0.13000 -0.15199
v -4.64626 0.13000 -0.18953
f 2538 2539 2540
f 2538 2540 2541
usemtl Chalk
v -4.64626 0.13000 -0.18953
v -4.47038 0.13000 -0.15199
v -4.50834 -0.06092 -0.10747
v -4.63271 -0.06092 -0.13402
f 2542 2543 2544
f 2542 2544 2545
usemtl Chalk
v -4.63271 -0.06092 -0.13402
v -4.50834 -0.06092 -0.10747
v -4.60000 -0.14000 0.00000
f 2546 2547 2548
usemtl Chalk
v -4.60000 0.40000 0.00000
v -4.45299 0.32092 0.00000
v -4.50834 0.32092 -0.10747
f 2549 2550 2551
usemtl Chalk
v -4.50834 0.32092 -0.10747
v -4.45299 0.32092 0.00000
v -4.39210 0.13000 0.00000
v -4.47038 0.13000 -0.15199
f 2552 2553 2554
f 2552 2554 2555
usemtl Chalk
v -4.47038 0.13000 -0.15199
v -4.39210 0.13000 0.00000
v -4.45299 -0.06092 0.00000
v -4.50834 -0.06092 -0.10747
f 2556 2557 2558
f 2556 2558 2559
usemtl Chalk
v -4.50834 -0.06092 -0.10747
v -4.45299 -0.06092 0.00000
v -4.60000 -0.14000 0.00000
f 2560 2561 2562
