# Original Yellow Coast study. Y up; 1 unit = 1 metre.
mtllib Coastline.mtl
o OceanSurface
usemtl Sea
v -6.00000 -0.03500 -5.50000
v -6.00000 -0.01500 -5.50000
v 6.00000 -0.01500 -5.50000
v 6.00000 -0.03500 -5.50000
f 1 2 3
f 1 3 4
usemtl Sea
v 6.00000 -0.03500 5.50000
v 6.00000 -0.01500 5.50000
v -6.00000 -0.01500 5.50000
v -6.00000 -0.03500 5.50000
f 5 6 7
f 5 7 8
usemtl Sea
v -6.00000 -0.03500 5.50000
v -6.00000 -0.01500 5.50000
v -6.00000 -0.01500 -5.50000
v -6.00000 -0.03500 -5.50000
f 9 10 11
f 9 11 12
usemtl Sea
v 6.00000 -0.03500 -5.50000
v 6.00000 -0.01500 -5.50000
v 6.00000 -0.01500 5.50000
v 6.00000 -0.03500 5.50000
f 13 14 15
f 13 15 16
usemtl Sea
v -6.00000 -0.03500 5.50000
v -6.00000 -0.03500 -5.50000
v 6.00000 -0.03500 -5.50000
v 6.00000 -0.03500 5.50000
f 17 18 19
f 17 19 20
usemtl Sea
v -6.00000 -0.01500 -5.50000
v -6.00000 -0.01500 5.50000
v 6.00000 -0.01500 5.50000
v 6.00000 -0.01500 -5.50000
f 21 22 23
f 21 23 24
