# Original Yellow Coast study. Y up; 1 unit = 1 metre.
mtllib Coastline.mtl
o SeaGlints
usemtl Reef
v -2.35539 -0.00400 3.72976
v -2.35539 0.00600 3.72976
v -2.10539 0.00600 3.72976
v -2.10539 -0.00400 3.72976
f 1 2 3
f 1 3 4
usemtl Reef
v -2.10539 -0.00400 3.76476
v -2.10539 0.00600 3.76476
v -2.35539 0.00600 3.76476
v -2.35539 -0.00400 3.76476
f 5 6 7
f 5 7 8
usemtl Reef
v -2.35539 -0.00400 3.76476
v -2.35539 0.00600 3.76476
v -2.35539 0.00600 3.72976
v -2.35539 -0.00400 3.72976
f 9 10 11
f 9 11 12
usemtl Reef
v -2.10539 -0.00400 3.72976
v -2.10539 0.00600 3.72976
v -2.10539 0.00600 3.76476
v -2.10539 -0.00400 3.76476
f 13 14 15
f 13 15 16
usemtl Reef
v -2.35539 -0.00400 3.76476
v -2.35539 -0.00400 3.72976
v -2.10539 -0.00400 3.72976
v -2.10539 -0.00400 3.76476
f 17 18 19
f 17 19 20
usemtl Reef
v -2.35539 0.00600 3.72976
v -2.35539 0.00600 3.76476
v -2.10539 0.00600 3.76476
v -2.10539 0.00600 3.72976
f 21 22 23
f 21 23 24
usemtl Reef
v 4.08779 -0.00400 1.75627
v 4.08779 0.00600 1.75627
v 4.49161 0.00600 1.75627
v 4.49161 -0.00400 1.75627
f 25 26 27
f 25 27 28
usemtl Reef
v 4.49161 -0.00400 1.79127
v 4.49161 0.00600 1.79127
v 4.08779 0.00600 1.79127
v 4.08779 -0.00400 1.79127
f 29 30 31
f 29 31 32
usemtl Reef
v 4.08779 -0.00400 1.79127
v 4.08779 0.00600 1.79127
v 4.08779 0.00600 1.75627
v 4.08779 -0.00400 1.75627
f 33 34 35
f 33 35 36
usemtl Reef
v 4.49161 -0.00400 1.75627
v 4.49161 0.00600 1.75627
v 4.49161 0.00600 1.79127
v 4.49161 -0.00400 1.79127
f 37 38 39
f 37 39 40
usemtl Reef
v 4.08779 -0.00400 1.79127
v 4.08779 -0.00400 1.75627
v 4.49161 -0.00400 1.75627
v 4.49161 -0.00400 1.79127
f 41 42 43
f 41 43 44
usemtl Reef
v 4.08779 0.00600 1.75627
v 4.08779 0.00600 1.79127
v 4.49161 0.00600 1.79127
v 4.49161 0.00600 1.75627
f 45 46 47
f 45 47 48
usemtl Reef
v -2.33869 -0.00400 -4.36940
v -2.33869 0.00600 -4.36940
v -2.14948 0.00600 -4.36940
v -2.14948 -0.00400 -4.36940
f 49 50 51
f 49 51 52
usemtl Reef
v -2.14948 -0.00400 -4.33440
v -2.14948 0.00600 -4.33440
v -2.33869 0.00600 -4.33440
v -2.33869 -0.00400 -4.33440
f 53 54 55
f 53 55 56
usemtl Reef
v -2.33869 -0.00400 -4.33440
v -2.33869 0.00600 -4.33440
v -2.33869 0.00600 -4.36940
v -2.33869 -0.00400 -4.36940
f 57 58 59
f 57 59 60
usemtl Reef
v -2.14948 -0.00400 -4.36940
v -2.14948 0.00600 -4.36940
v -2.14948 0.00600 -4.33440
v -2.14948 -0.00400 -4.33440
f 61 62 63
f 61 63 64
usemtl Reef
v -2.33869 -0.00400 -4.33440
v -2.33869 -0.00400 -4.36940
v -2.14948 -0.00400 -4.36940
v -2.14948 -0.00400 -4.33440
f 65 66 67
f 65 67 68
usemtl Reef
v -2.33869 0.00600 -4.36940
v -2.33869 0.00600 -4.33440
v -2.14948 0.00600 -4.33440
v -2.14948 0.00600 -4.36940
f 69 70 71
f 69 71 72
usemtl Reef
v -2.74682 -0.00400 4.10731
v -2.74682 0.00600 4.10731
v -2.34961 0.00600 4.10731
v -2.34961 -0.00400 4.10731
f 73 74 75
f 73 75 76
usemtl Reef
v -2.34961 -0.00400 4.14231
v -2.34961 0.00600 4.14231
v -2.74682 0.00600 4.14231
v -2.74682 -0.00400 4.14231
f 77 78 79
f 77 79 80
usemtl Reef
v -2.74682 -0.00400 4.14231
v -2.74682 0.00600 4.14231
v -2.74682 0.00600 4.10731
v -2.74682 -0.00400 4.10731
f 81 82 83
f 81 83 84
usemtl Reef
v -2.34961 -0.00400 4.10731
v -2.34961 0.00600 4.10731
v -2.34961 0.00600 4.14231
v -2.34961 -0.00400 4.14231
f 85 86 87
f 85 87 88
usemtl Reef
v -2.74682 -0.00400 4.14231
v -2.74682 -0.00400 4.10731
v -2.34961 -0.00400 4.10731
v -2.34961 -0.00400 4.14231
f 89 90 91
f 89 91 92
usemtl Reef
v -2.74682 0.00600 4.10731
v -2.74682 0.00600 4.14231
v -2.34961 0.00600 4.14231
v -2.34961 0.00600 4.10731
f 93 94 95
f 93 95 96
usemtl Reef
v 2.97241 -0.00400 -3.40527
v 2.97241 0.00600 -3.40527
v 3.16105 0.00600 -3.40527
v 3.16105 -0.00400 -3.40527
f 97 98 99
f 97 99 100
usemtl Reef
v 3.16105 -0.00400 -3.37027
v 3.16105 0.00600 -3.37027
v 2.97241 0.00600 -3.37027
v 2.97241 -0.00400 -3.37027
f 101 102 103
f 101 103 104
usemtl Reef
v 2.97241 -0.00400 -3.37027
v 2.97241 0.00600 -3.37027
v 2.97241 0.00600 -3.40527
v 2.97241 -0.00400 -3.40527
f 105 106 107
f 105 107 108
usemtl Reef
v 3.16105 -0.00400 -3.40527
v 3.16105 0.00600 -3.40527
v 3.16105 0.00600 -3.37027
v 3.16105 -0.00400 -3.37027
f 109 110 111
f 109 111 112
usemtl Reef
v 2.97241 -0.00400 -3.37027
v 2.97241 -0.00400 -3.40527
v 3.16105 -0.00400 -3.40527
v 3.16105 -0.00400 -3.37027
f 113 114 115
f 113 115 116
usemtl Reef
v 2.97241 0.00600 -3.40527
v 2.97241 0.00600 -3.37027
v 3.16105 0.00600 -3.37027
v 3.16105 0.00600 -3.40527
f 117 118 119
f 117 119 120
usemtl Reef
v 0.40919 -0.00400 -2.15137
v 0.40919 0.00600 -2.15137
v 0.73439 0.00600 -2.15137
v 0.73439 -0.00400 -2.15137
f 121 122 123
f 121 123 124
usemtl Reef
v 0.73439 -0.00400 -2.11637
v 0.73439 0.00600 -2.11637
v 0.40919 0.00600 -2.11637
v 0.40919 -0.00400 -2.11637
f 125 126 127
f 125 127 128
usemtl Reef
v 0.40919 -0.00400 -2.11637
v 0.40919 0.00600 -2.11637
v 0.40919 0.00600 -2.15137
v 0.40919 -0.00400 -2.15137
f 129 130 131
f 129 131 132
usemtl Reef
v 0.73439 -0.00400 -2.15137
v 0.73439 0.00600 -2.15137
v 0.73439 0.00600 -2.11637
v 0.73439 -0.00400 -2.11637
f 133 134 135
f 133 135 136
usemtl Reef
v 0.40919 -0.00400 -2.11637
v 0.40919 -0.00400 -2.15137
v 0.73439 -0.00400 -2.15137
v 0.73439 -0.00400 -2.11637
f 137 138 139
f 137 139 140
usemtl Reef
v 0.40919 0.00600 -2.15137
v 0.40919 0.00600 -2.11637
v 0.73439 0.00600 -2.11637
v 0.73439 0.00600 -2.15137
f 141 142 143
f 141 143 144
usemtl Foam
v -4.51854 -0.00400 3.96334
v -4.51854 0.00600 3.96334
v -4.14296 0.00600 3.96334
v -4.14296 -0.00400 3.96334
f 145 146 147
f 145 147 148
usemtl Foam
v -4.14296 -0.00400 3.99834
v -4.14296 0.00600 3.99834
v -4.51854 0.00600 3.99834
v -4.51854 -0.00400 3.99834
f 149 150 151
f 149 151 152
usemtl Foam
v -4.51854 -0.00400 3.99834
v -4.51854 0.00600 3.99834
v -4.51854 0.00600 3.96334
v -4.51854 -0.00400 3.96334
f 153 154 155
f 153 155 156
usemtl Foam
v -4.14296 -0.00400 3.96334
v -4.14296 0.00600 3.96334
v -4.14296 0.00600 3.99834
v -4.14296 -0.00400 3.99834
f 157 158 159
f 157 159 160
usemtl Foam
v -4.51854 -0.00400 3.99834
v -4.51854 -0.00400 3.96334
v -4.14296 -0.00400 3.96334
v -4.14296 -0.00400 3.99834
f 161 162 163
f 161 163 164
usemtl Foam
v -4.51854 0.00600 3.96334
v -4.51854 0.00600 3.99834
v -4.14296 0.00600 3.99834
v -4.14296 0.00600 3.96334
f 165 166 167
f 165 167 168
usemtl Reef
v 4.14057 -0.00400 -4.27394
v 4.14057 0.00600 -4.27394
v 4.37690 0.00600 -4.27394
v 4.37690 -0.00400 -4.27394
f 169 170 171
f 169 171 172
usemtl Reef
v 4.37690 -0.00400 -4.23894
v 4.37690 0.00600 -4.23894
v 4.14057 0.00600 -4.23894
v 4.14057 -0.00400 -4.23894
f 173 174 175
f 173 175 176
usemtl Reef
v 4.14057 -0.00400 -4.23894
v 4.14057 0.00600 -4.23894
v 4.14057 0.00600 -4.27394
v 4.14057 -0.00400 -4.27394
f 177 178 179
f 177 179 180
usemtl Reef
v 4.37690 -0.00400 -4.27394
v 4.37690 0.00600 -4.27394
v 4.37690 0.00600 -4.23894
v 4.37690 -0.00400 -4.23894
f 181 182 183
f 181 183 184
usemtl Reef
v 4.14057 -0.00400 -4.23894
v 4.14057 -0.00400 -4.27394
v 4.37690 -0.00400 -4.27394
v 4.37690 -0.00400 -4.23894
f 185 186 187
f 185 187 188
usemtl Reef
v 4.14057 0.00600 -4.27394
v 4.14057 0.00600 -4.23894
v 4.37690 0.00600 -4.23894
v 4.37690 0.00600 -4.27394
f 189 190 191
f 189 191 192
usemtl Reef
v -2.01413 -0.00400 -3.78365
v -2.01413 0.00600 -3.78365
v -1.73569 0.00600 -3.78365
v -1.73569 -0.00400 -3.78365
f 193 194 195
f 193 195 196
usemtl Reef
v -1.73569 -0.00400 -3.74865
v -1.73569 0.00600 -3.74865
v -2.01413 0.00600 -3.74865
v -2.01413 -0.00400 -3.74865
f 197 198 199
f 197 199 200
usemtl Reef
v -2.01413 -0.00400 -3.74865
v -2.01413 0.00600 -3.74865
v -2.01413 0.00600 -3.78365
v -2.01413 -0.00400 -3.78365
f 201 202 203
f 201 203 204
usemtl Reef
v -1.73569 -0.00400 -3.78365
v -1.73569 0.00600 -3.78365
v -1.73569 0.00600 -3.74865
v -1.73569 -0.00400 -3.74865
f 205 206 207
f 205 207 208
usemtl Reef
v -2.01413 -0.00400 -3.74865
v -2.01413 -0.00400 -3.78365
v -1.73569 -0.00400 -3.78365
v -1.73569 -0.00400 -3.74865
f 209 210 211
f 209 211 212
usemtl Reef
v -2.01413 0.00600 -3.78365
v -2.01413 0.00600 -3.74865
v -1.73569 0.00600 -3.74865
v -1.73569 0.00600 -3.78365
f 213 214 215
f 213 215 216
usemtl Reef
v 3.75363 -0.00400 3.07666
v 3.75363 0.00600 3.07666
v 3.91442 0.00600 3.07666
v 3.91442 -0.00400 3.07666
f 217 218 219
f 217 219 220
usemtl Reef
v 3.91442 -0.00400 3.11166
v 3.91442 0.00600 3.11166
v 3.75363 0.00600 3.11166
v 3.75363 -0.00400 3.11166
f 221 222 223
f 221 223 224
usemtl Reef
v 3.75363 -0.00400 3.11166
v 3.75363 0.00600 3.11166
v 3.75363 0.00600 3.07666
v 3.75363 -0.00400 3.07666
f 225 226 227
f 225 227 228
usemtl Reef
v 3.91442 -0.00400 3.07666
v 3.91442 0.00600 3.07666
v 3.91442 0.00600 3.11166
v 3.91442 -0.00400 3.11166
f 229 230 231
f 229 231 232
usemtl Reef
v 3.75363 -0.00400 3.11166
v 3.75363 -0.00400 3.07666
v 3.91442 -0.00400 3.07666
v 3.91442 -0.00400 3.11166
f 233 234 235
f 233 235 236
usemtl Reef
v 3.75363 0.00600 3.07666
v 3.75363 0.00600 3.11166
v 3.91442 0.00600 3.11166
v 3.91442 0.00600 3.07666
f 237 238 239
f 237 239 240
usemtl Reef
v 5.33989 -0.00400 3.95465
v 5.33989 0.00600 3.95465
v 5.71476 0.00600 3.95465
v 5.71476 -0.00400 3.95465
f 241 242 243
f 241 243 244
usemtl Reef
v 5.71476 -0.00400 3.98965
v 5.71476 0.00600 3.98965
v 5.33989 0.00600 3.98965
v 5.33989 -0.00400 3.98965
f 245 246 247
f 245 247 248
usemtl Reef
v 5.33989 -0.00400 3.98965
v 5.33989 0.00600 3.98965
v 5.33989 0.00600 3.95465
v 5.33989 -0.00400 3.95465
f 249 250 251
f 249 251 252
usemtl Reef
v 5.71476 -0.00400 3.95465
v 5.71476 0.00600 3.95465
v 5.71476 0.00600 3.98965
v 5.71476 -0.00400 3.98965
f 253 254 255
f 253 255 256
usemtl Reef
v 5.33989 -0.00400 3.98965
v 5.33989 -0.00400 3.95465
v 5.71476 -0.00400 3.95465
v 5.71476 -0.00400 3.98965
f 257 258 259
f 257 259 260
usemtl Reef
v 5.33989 0.00600 3.95465
v 5.33989 0.00600 3.98965
v 5.71476 0.00600 3.98965
v 5.71476 0.00600 3.95465
f 261 262 263
f 261 263 264
usemtl Reef
v -4.06136 -0.00400 -2.40911
v -4.06136 0.00600 -2.40911
v -3.91965 0.00600 -2.40911
v -3.91965 -0.00400 -2.40911
f 265 266 267
f 265 267 268
usemtl Reef
v -3.91965 -0.00400 -2.37411
v -3.91965 0.00600 -2.37411
v -4.06136 0.00600 -2.37411
v -4.06136 -0.00400 -2.37411
f 269 270 271
f 269 271 272
usemtl Reef
v -4.06136 -0.00400 -2.37411
v -4.06136 0.00600 -2.37411
v -4.06136 0.00600 -2.40911
v -4.06136 -0.00400 -2.40911
f 273 274 275
f 273 275 276
usemtl Reef
v -3.91965 -0.00400 -2.40911
v -3.91965 0.00600 -2.40911
v -3.91965 0.00600 -2.37411
v -3.91965 -0.00400 -2.37411
f 277 278 279
f 277 279 280
usemtl Reef
v -4.06136 -0.00400 -2.37411
v -4.06136 -0.00400 -2.40911
v -3.91965 -0.00400 -2.40911
v -3.91965 -0.00400 -2.37411
f 281 282 283
f 281 283 284
usemtl Reef
v -4.06136 0.00600 -2.40911
v -4.06136 0.00600 -2.37411
v -3.91965 0.00600 -2.37411
v -3.91965 0.00600 -2.40911
f 285 286 287
f 285 287 288
usemtl Reef
v 2.59849 -0.00400 -4.38969
v 2.59849 0.00600 -4.38969
v 2.88788 0.00600 -4.38969
v 2.88788 -0.00400 -4.38969
f 289 290 291
f 289 291 292
usemtl Reef
v 2.88788 -0.00400 -4.35469
v 2.88788 0.00600 -4.35469
v 2.59849 0.00600 -4.35469
v 2.59849 -0.00400 -4.35469
f 293 294 295
f 293 295 296
usemtl Reef
v 2.59849 -0.00400 -4.35469
v 2.59849 0.00600 -4.35469
v 2.59849 0.00600 -4.38969
v 2.59849 -0.00400 -4.38969
f 297 298 299
f 297 299 300
usemtl Reef
v 2.88788 -0.00400 -4.38969
v 2.88788 0.00600 -4.38969
v 2.88788 0.00600 -4.35469
v 2.88788 -0.00400 -4.35469
f 301 302 303
f 301 303 304
usemtl Reef
v 2.59849 -0.00400 -4.35469
v 2.59849 -0.00400 -4.38969
v 2.88788 -0.00400 -4.38969
v 2.88788 -0.00400 -4.35469
f 305 306 307
f 305 307 308
usemtl Reef
v 2.59849 0.00600 -4.38969
v 2.59849 0.00600 -4.35469
v 2.88788 0.00600 -4.35469
v 2.88788 0.00600 -4.38969
f 309 310 311
f 309 311 312
usemtl Reef
v 4.29119 -0.00400 -3.87366
v 4.29119 0.00600 -3.87366
v 4.43046 0.00600 -3.87366
v 4.43046 -0.00400 -3.87366
f 313 314 315
f 313 315 316
usemtl Reef
v 4.43046 -0.00400 -3.83866
v 4.43046 0.00600 -3.83866
v 4.29119 0.00600 -3.83866
v 4.29119 -0.00400 -3.83866
f 317 318 319
f 317 319 320
usemtl Reef
v 4.29119 -0.00400 -3.83866
v 4.29119 0.00600 -3.83866
v 4.29119 0.00600 -3.87366
v 4.29119 -0.00400 -3.87366
f 321 322 323
f 321 323 324
usemtl Reef
v 4.43046 -0.00400 -3.87366
v 4.43046 0.00600 -3.87366
v 4.43046 0.00600 -3.83866
v 4.43046 -0.00400 -3.83866
f 325 326 327
f 325 327 328
usemtl Reef
v 4.29119 -0.00400 -3.83866
v 4.29119 -0.00400 -3.87366
v 4.43046 -0.00400 -3.87366
v 4.43046 -0.00400 -3.83866
f 329 330 331
f 329 331 332
usemtl Reef
v 4.29119 0.00600 -3.87366
v 4.29119 0.00600 -3.83866
v 4.43046 0.00600 -3.83866
v 4.43046 0.00600 -3.87366
f 333 334 335
f 333 335 336
usemtl Reef
v -4.05979 -0.00400 -4.85347
v -4.05979 0.00600 -4.85347
v -3.92393 0.00600 -4.85347
v -3.92393 -0.00400 -4.85347
f 337 338 339
f 337 339 340
usemtl Reef
v -3.92393 -0.00400 -4.81847
v -3.92393 0.00600 -4.81847
v -4.05979 0.00600 -4.81847
v -4.05979 -0.00400 -4.81847
f 341 342 343
f 341 343 344
usemtl Reef
v -4.05979 -0.00400 -4.81847
v -4.05979 0.00600 -4.81847
v -4.05979 0.00600 -4.85347
v -4.05979 -0.00400 -4.85347
f 345 346 347
f 345 347 348
usemtl Reef
v -3.92393 -0.00400 -4.85347
v -3.92393 0.00600 -4.85347
v -3.92393 0.00600 -4.81847
v -3.92393 -0.00400 -4.81847
f 349 350 351
f 349 351 352
usemtl Reef
v -4.05979 -0.00400 -4.81847
v -4.05979 -0.00400 -4.85347
v -3.92393 -0.00400 -4.85347
v -3.92393 -0.00400 -4.81847
f 353 354 355
f 353 355 356
usemtl Reef
v -4.05979 0.00600 -4.85347
v -4.05979 0.00600 -4.81847
v -3.92393 0.00600 -4.81847
v -3.92393 0.00600 -4.85347
f 357 358 359
f 357 359 360
usemtl Foam
v -0.63898 -0.00400 4.32321
v -0.63898 0.00600 4.32321
v -0.42231 0.00600 4.32321
v -0.42231 -0.00400 4.32321
f 361 362 363
f 361 363 364
usemtl Foam
v -0.42231 -0.00400 4.35821
v -0.42231 0.00600 4.35821
v -0.63898 0.00600 4.35821
v -0.63898 -0.00400 4.35821
f 365 366 367
f 365 367 368
usemtl Foam
v -0.63898 -0.00400 4.35821
v -0.63898 0.00600 4.35821
v -0.63898 0.00600 4.32321
v -0.63898 -0.00400 4.32321
f 369 370 371
f 369 371 372
usemtl Foam
v -0.42231 -0.00400 4.32321
v -0.42231 0.00600 4.32321
v -0.42231 0.00600 4.35821
v -0.42231 -0.00400 4.35821
f 373 374 375
f 373 375 376
usemtl Foam
v -0.63898 -0.00400 4.35821
v -0.63898 -0.00400 4.32321
v -0.42231 -0.00400 4.32321
v -0.42231 -0.00400 4.35821
f 377 378 379
f 377 379 380
usemtl Foam
v -0.63898 0.00600 4.32321
v -0.63898 0.00600 4.35821
v -0.42231 0.00600 4.35821
v -0.42231 0.00600 4.32321
f 381 382 383
f 381 383 384
usemtl Reef
v -3.68537 -0.00400 1.45954
v -3.68537 0.00600 1.45954
v -3.34059 0.00600 1.45954
v -3.34059 -0.00400 1.45954
f 385 386 387
f 385 387 388
usemtl Reef
v -3.34059 -0.00400 1.49454
v -3.34059 0.00600 1.49454
v -3.68537 0.00600 1.49454
v -3.68537 -0.00400 1.49454
f 389 390 391
f 389 391 392
usemtl Reef
v -3.68537 -0.00400 1.49454
v -3.68537 0.00600 1.49454
v -3.68537 0.00600 1.45954
v -3.68537 -0.00400 1.45954
f 393 394 395
f 393 395 396
usemtl Reef
v -3.34059 -0.00400 1.45954
v -3.34059 0.00600 1.45954
v -3.34059 0.00600 1.49454
v -3.34059 -0.00400 1.49454
f 397 398 399
f 397 399 400
usemtl Reef
v -3.68537 -0.00400 1.49454
v -3.68537 -0.00400 1.45954
v -3.34059 -0.00400 1.45954
v -3.34059 -0.00400 1.49454
f 401 402 403
f 401 403 404
usemtl Reef
v -3.68537 0.00600 1.45954
v -3.68537 0.00600 1.49454
v -3.34059 0.00600 1.49454
v -3.34059 0.00600 1.45954
f 405 406 407
f 405 407 408
usemtl Reef
v 0.94281 -0.00400 -3.89224
v 0.94281 0.00600 -3.89224
v 1.23936 0.00600 -3.89224
v 1.23936 -0.00400 -3.89224
f 409 410 411
f 409 411 412
usemtl Reef
v 1.23936 -0.00400 -3.85724
v 1.23936 0.00600 -3.85724
v 0.94281 0.00600 -3.85724
v 0.94281 -0.00400 -3.85724
f 413 414 415
f 413 415 416
usemtl Reef
v 0.94281 -0.00400 -3.85724
v 0.94281 0.00600 -3.85724
v 0.94281 0.00600 -3.89224
v 0.94281 -0.00400 -3.89224
f 417 418 419
f 417 419 420
usemtl Reef
v 1.23936 -0.00400 -3.89224
v 1.23936 0.00600 -3.89224
v 1.23936 0.00600 -3.85724
v 1.23936 -0.00400 -3.85724
f 421 422 423
f 421 423 424
usemtl Reef
v 0.94281 -0.00400 -3.85724
v 0.94281 -0.00400 -3.89224
v 1.23936 -0.00400 -3.89224
v 1.23936 -0.00400 -3.85724
f 425 426 427
f 425 427 428
usemtl Reef
v 0.94281 0.00600 -3.89224
v 0.94281 0.00600 -3.85724
v 1.23936 0.00600 -3.85724
v 1.23936 0.00600 -3.89224
f 429 430 431
f 429 431 432
usemtl Reef
v 3.01771 -0.00400 -4.59708
v 3.01771 0.00600 -4.59708
v 3.33589 0.00600 -4.59708
v 3.33589 -0.00400 -4.59708
f 433 434 435
f 433 435 436
usemtl Reef
v 3.33589 -0.00400 -4.56208
v 3.33589 0.00600 -4.56208
v 3.01771 0.00600 -4.56208
v 3.01771 -0.00400 -4.56208
f 437 438 439
f 437 439 440
usemtl Reef
v 3.01771 -0.00400 -4.56208
v 3.01771 0.00600 -4.56208
v 3.01771 0.00600 -4.59708
v 3.01771 -0.00400 -4.59708
f 441 442 443
f 441 443 444
usemtl Reef
v 3.33589 -0.00400 -4.59708
v 3.33589 0.00600 -4.59708
v 3.33589 0.00600 -4.56208
v 3.33589 -0.00400 -4.56208
f 445 446 447
f 445 447 448
usemtl Reef
v 3.01771 -0.00400 -4.56208
v 3.01771 -0.00400 -4.59708
v 3.33589 -0.00400 -4.59708
v 3.33589 -0.00400 -4.56208
f 449 450 451
f 449 451 452
usemtl Reef
v 3.01771 0.00600 -4.59708
v 3.01771 0.00600 -4.56208
v 3.33589 0.00600 -4.56208
v 3.33589 0.00600 -4.59708
f 453 454 455
f 453 455 456
usemtl Reef
v 2.44457 -0.00400 -1.29524
v 2.44457 0.00600 -1.29524
v 2.88686 0.00600 -1.29524
v 2.88686 -0.00400 -1.29524
f 457 458 459
f 457 459 460
usemtl Reef
v 2.88686 -0.00400 -1.26024
v 2.88686 0.00600 -1.26024
v 2.44457 0.00600 -1.26024
v 2.44457 -0.00400 -1.26024
f 461 462 463
f 461 463 464
usemtl Reef
v 2.44457 -0.00400 -1.26024
v 2.44457 0.00600 -1.26024
v 2.44457 0.00600 -1.29524
v 2.44457 -0.00400 -1.29524
f 465 466 467
f 465 467 468
usemtl Reef
v 2.88686 -0.00400 -1.29524
v 2.88686 0.00600 -1.29524
v 2.88686 0.00600 -1.26024
v 2.88686 -0.00400 -1.26024
f 469 470 471
f 469 471 472
usemtl Reef
v 2.44457 -0.00400 -1.26024
v 2.44457 -0.00400 -1.29524
v 2.88686 -0.00400 -1.29524
v 2.88686 -0.00400 -1.26024
f 473 474 475
f 473 475 476
usemtl Reef
v 2.44457 0.00600 -1.29524
v 2.44457 0.00600 -1.26024
v 2.88686 0.00600 -1.26024
v 2.88686 0.00600 -1.29524
f 477 478 479
f 477 479 480
usemtl Reef
v -1.17778 -0.00400 -3.47929
v -1.17778 0.00600 -3.47929
v -0.78788 0.00600 -3.47929
v -0.78788 -0.00400 -3.47929
f 481 482 483
f 481 483 484
usemtl Reef
v -0.78788 -0.00400 -3.44429
v -0.78788 0.00600 -3.44429
v -1.17778 0.00600 -3.44429
v -1.17778 -0.00400 -3.44429
f 485 486 487
f 485 487 488
usemtl Reef
v -1.17778 -0.00400 -3.44429
v -1.17778 0.00600 -3.44429
v -1.17778 0.00600 -3.47929
v -1.17778 -0.00400 -3.47929
f 489 490 491
f 489 491 492
usemtl Reef
v -0.78788 -0.00400 -3.47929
v -0.78788 0.00600 -3.47929
v -0.78788 0.00600 -3.44429
v -0.78788 -0.00400 -3.44429
f 493 494 495
f 493 495 496
usemtl Reef
v -1.17778 -0.00400 -3.44429
v -1.17778 -0.00400 -3.47929
v -0.78788 -0.00400 -3.47929
v -0.78788 -0.00400 -3.44429
f 497 498 499
f 497 499 500
usemtl Reef
v -1.17778 0.00600 -3.47929
v -1.17778 0.00600 -3.44429
v -0.78788 0.00600 -3.44429
v -0.78788 0.00600 -3.47929
f 501 502 503
f 501 503 504
usemtl Reef
v 3.96226 -0.00400 -4.23515
v 3.96226 0.00600 -4.23515
v 4.13809 0.00600 -4.23515
v 4.13809 -0.00400 -4.23515
f 505 506 507
f 505 507 508
usemtl Reef
v 4.13809 -0.00400 -4.20015
v 4.13809 0.00600 -4.20015
v 3.96226 0.00600 -4.20015
v 3.96226 -0.00400 -4.20015
f 509 510 511
f 509 511 512
usemtl Reef
v 3.96226 -0.00400 -4.20015
v 3.96226 0.00600 -4.20015
v 3.96226 0.00600 -4.23515
v 3.96226 -0.00400 -4.23515
f 513 514 515
f 513 515 516
usemtl Reef
v 4.13809 -0.00400 -4.23515
v 4.13809 0.00600 -4.23515
v 4.13809 0.00600 -4.20015
v 4.13809 -0.00400 -4.20015
f 517 518 519
f 517 519 520
usemtl Reef
v 3.96226 -0.00400 -4.20015
v 3.96226 -0.00400 -4.23515
v 4.13809 -0.00400 -4.23515
v 4.13809 -0.00400 -4.20015
f 521 522 523
f 521 523 524
usemtl Reef
v 3.96226 0.00600 -4.23515
v 3.96226 0.00600 -4.20015
v 4.13809 0.00600 -4.20015
v 4.13809 0.00600 -4.23515
f 525 526 527
f 525 527 528
usemtl Reef
v 0.33047 -0.00400 -4.39075
v 0.33047 0.00600 -4.39075
v 0.67561 0.00600 -4.39075
v 0.67561 -0.00400 -4.39075
f 529 530 531
f 529 531 532
usemtl Reef
v 0.67561 -0.00400 -4.35575
v 0.67561 0.00600 -4.35575
v 0.33047 0.00600 -4.35575
v 0.33047 -0.00400 -4.35575
f 533 534 535
f 533 535 536
usemtl Reef
v 0.33047 -0.00400 -4.35575
v 0.33047 0.00600 -4.35575
v 0.33047 0.00600 -4.39075
v 0.33047 -0.00400 -4.39075
f 537 538 539
f 537 539 540
usemtl Reef
v 0.67561 -0.00400 -4.39075
v 0.67561 0.00600 -4.39075
v 0.67561 0.00600 -4.35575
v 0.67561 -0.00400 -4.35575
f 541 542 543
f 541 543 544
usemtl Reef
v 0.33047 -0.00400 -4.35575
v 0.33047 -0.00400 -4.39075
v 0.67561 -0.00400 -4.39075
v 0.67561 -0.00400 -4.35575
f 545 546 547
f 545 547 548
usemtl Reef
v 0.33047 0.00600 -4.39075
v 0.33047 0.00600 -4.35575
v 0.67561 0.00600 -4.35575
v 0.67561 0.00600 -4.39075
f 549 550 551
f 549 551 552
usemtl Reef
v -3.41712 -0.00400 4.86859
v -3.41712 0.00600 4.86859
v -3.27392 0.00600 4.86859
v -3.27392 -0.00400 4.86859
f 553 554 555
f 553 555 556
usemtl Reef
v -3.27392 -0.00400 4.90359
v -3.27392 0.00600 4.90359
v -3.41712 0.00600 4.90359
v -3.41712 -0.00400 4.90359
f 557 558 559
f 557 559 560
usemtl Reef
v -3.41712 -0.00400 4.90359
v -3.41712 0.00600 4.90359
v -3.41712 0.00600 4.86859
v -3.41712 -0.00400 4.86859
f 561 562 563
f 561 563 564
usemtl Reef
v -3.27392 -0.00400 4.86859
v -3.27392 0.00600 4.86859
v -3.27392 0.00600 4.90359
v -3.27392 -0.00400 4.90359
f 565 566 567
f 565 567 568
usemtl Reef
v -3.41712 -0.00400 4.90359
v -3.41712 -0.00400 4.86859
v -3.27392 -0.00400 4.86859
v -3.27392 -0.00400 4.90359
f 569 570 571
f 569 571 572
usemtl Reef
v -3.41712 0.00600 4.86859
v -3.41712 0.00600 4.90359
v -3.27392 0.00600 4.90359
v -3.27392 0.00600 4.86859
f 573 574 575
f 573 575 576
usemtl Reef
v -2.26573 -0.00400 -4.35820
v -2.26573 0.00600 -4.35820
v -1.96401 0.00600 -4.35820
v -1.96401 -0.00400 -4.35820
f 577 578 579
f 577 579 580
usemtl Reef
v -1.96401 -0.00400 -4.32320
v -1.96401 0.00600 -4.32320
v -2.26573 0.00600 -4.32320
v -2.26573 -0.00400 -4.32320
f 581 582 583
f 581 583 584
usemtl Reef
v -2.26573 -0.00400 -4.32320
v -2.26573 0.00600 -4.32320
v -2.26573 0.00600 -4.35820
v -2.26573 -0.00400 -4.35820
f 585 586 587
f 585 587 588
usemtl Reef
v -1.96401 -0.00400 -4.35820
v -1.96401 0.00600 -4.35820
v -1.96401 0.00600 -4.32320
v -1.96401 -0.00400 -4.32320
f 589 590 591
f 589 591 592
usemtl Reef
v -2.26573 -0.00400 -4.32320
v -2.26573 -0.00400 -4.35820
v -1.96401 -0.00400 -4.35820
v -1.96401 -0.00400 -4.32320
f 593 594 595
f 593 595 596
usemtl Reef
v -2.26573 0.00600 -4.35820
v -2.26573 0.00600 -4.32320
v -1.96401 0.00600 -4.32320
v -1.96401 0.00600 -4.35820
f 597 598 599
f 597 599 600
usemtl Reef
v -3.98503 -0.00400 -2.03907
v -3.98503 0.00600 -2.03907
v -3.57107 0.00600 -2.03907
v -3.57107 -0.00400 -2.03907
f 601 602 603
f 601 603 604
usemtl Reef
v -3.57107 -0.00400 -2.00407
v -3.57107 0.00600 -2.00407
v -3.98503 0.00600 -2.00407
v -3.98503 -0.00400 -2.00407
f 605 606 607
f 605 607 608
usemtl Reef
v -3.98503 -0.00400 -2.00407
v -3.98503 0.00600 -2.00407
v -3.98503 0.00600 -2.03907
v -3.98503 -0.00400 -2.03907
f 609 610 611
f 609 611 612
usemtl Reef
v -3.57107 -0.00400 -2.03907
v -3.57107 0.00600 -2.03907
v -3.57107 0.00600 -2.00407
v -3.57107 -0.00400 -2.00407
f 613 614 615
f 613 615 616
usemtl Reef
v -3.98503 -0.00400 -2.00407
v -3.98503 -0.00400 -2.03907
v -3.57107 -0.00400 -2.03907
v -3.57107 -0.00400 -2.00407
f 617 618 619
f 617 619 620
usemtl Reef
v -3.98503 0.00600 -2.03907
v -3.98503 0.00600 -2.00407
v -3.57107 0.00600 -2.00407
v -3.57107 0.00600 -2.03907
f 621 622 623
f 621 623 624
usemtl Reef
v -5.23895 -0.00400 0.83643
v -5.23895 0.00600 0.83643
v -4.98115 0.00600 0.83643
v -4.98115 -0.00400 0.83643
f 625 626 627
f 625 627 628
usemtl Reef
v -4.98115 -0.00400 0.87143
v -4.98115 0.00600 0.87143
v -5.23895 0.00600 0.87143
v -5.23895 -0.00400 0.87143
f 629 630 631
f 629 631 632
usemtl Reef
v -5.23895 -0.00400 0.87143
v -5.23895 0.00600 0.87143
v -5.23895 0.00600 0.83643
v -5.23895 -0.00400 0.83643
f 633 634 635
f 633 635 636
usemtl Reef
v -4.98115 -0.00400 0.83643
v -4.98115 0.00600 0.83643
v -4.98115 0.00600 0.87143
v -4.98115 -0.00400 0.87143
f 637 638 639
f 637 639 640
usemtl Reef
v -5.23895 -0.00400 0.87143
v -5.23895 -0.00400 0.83643
v -4.98115 -0.00400 0.83643
v -4.98115 -0.00400 0.87143
f 641 642 643
f 641 643 644
usemtl Reef
v -5.23895 0.00600 0.83643
v -5.23895 0.00600 0.87143
v -4.98115 0.00600 0.87143
v -4.98115 0.00600 0.83643
f 645 646 647
f 645 647 648
usemtl Reef
v 4.32167 -0.00400 -0.68942
v 4.32167 0.00600 -0.68942
v 4.51772 0.00600 -0.68942
v 4.51772 -0.00400 -0.68942
f 649 650 651
f 649 651 652
usemtl Reef
v 4.51772 -0.00400 -0.65442
v 4.51772 0.00600 -0.65442
v 4.32167 0.00600 -0.65442
v 4.32167 -0.00400 -0.65442
f 653 654 655
f 653 655 656
usemtl Reef
v 4.32167 -0.00400 -0.65442
v 4.32167 0.00600 -0.65442
v 4.32167 0.00600 -0.68942
v 4.32167 -0.00400 -0.68942
f 657 658 659
f 657 659 660
usemtl Reef
v 4.51772 -0.00400 -0.68942
v 4.51772 0.00600 -0.68942
v 4.51772 0.00600 -0.65442
v 4.51772 -0.00400 -0.65442
f 661 662 663
f 661 663 664
usemtl Reef
v 4.32167 -0.00400 -0.65442
v 4.32167 -0.00400 -0.68942
v 4.51772 -0.00400 -0.68942
v 4.51772 -0.00400 -0.65442
f 665 666 667
f 665 667 668
usemtl Reef
v 4.32167 0.00600 -0.68942
v 4.32167 0.00600 -0.65442
v 4.51772 0.00600 -0.65442
v 4.51772 0.00600 -0.68942
f 669 670 671
f 669 671 672
usemtl Reef
v -1.43592 -0.00400 -2.90908
v -1.43592 0.00600 -2.90908
v -1.24191 0.00600 -2.90908
v -1.24191 -0.00400 -2.90908
f 673 674 675
f 673 675 676
usemtl Reef
v -1.24191 -0.00400 -2.87408
v -1.24191 0.00600 -2.87408
v -1.43592 0.00600 -2.87408
v -1.43592 -0.00400 -2.87408
f 677 678 679
f 677 679 680
usemtl Reef
v -1.43592 -0.00400 -2.87408
v -1.43592 0.00600 -2.87408
v -1.43592 0.00600 -2.90908
v -1.43592 -0.00400 -2.90908
f 681 682 683
f 681 683 684
usemtl Reef
v -1.24191 -0.00400 -2.90908
v -1.24191 0.00600 -2.90908
v -1.24191 0.00600 -2.87408
v -1.24191 -0.00400 -2.87408
f 685 686 687
f 685 687 688
usemtl Reef
v -1.43592 -0.00400 -2.87408
v -1.43592 -0.00400 -2.90908
v -1.24191 -0.00400 -2.90908
v -1.24191 -0.00400 -2.87408
f 689 690 691
f 689 691 692
usemtl Reef
v -1.43592 0.00600 -2.90908
v -1.43592 0.00600 -2.87408
v -1.24191 0.00600 -2.87408
v -1.24191 0.00600 -2.90908
f 693 694 695
f 693 695 696
usemtl Reef
v -4.20962 -0.00400 -3.46118
v -4.20962 0.00600 -3.46118
v -3.89080 0.00600 -3.46118
v -3.89080 -0.00400 -3.46118
f 697 698 699
f 697 699 700
usemtl Reef
v -3.89080 -0.00400 -3.42618
v -3.89080 0.00600 -3.42618
v -4.20962 0.00600 -3.42618
v -4.20962 -0.00400 -3.42618
f 701 702 703
f 701 703 704
usemtl Reef
v -4.20962 -0.00400 -3.42618
v -4.20962 0.00600 -3.42618
v -4.20962 0.00600 -3.46118
v -4.20962 -0.00400 -3.46118
f 705 706 707
f 705 707 708
usemtl Reef
v -3.89080 -0.00400 -3.46118
v -3.89080 0.00600 -3.46118
v -3.89080 0.00600 -3.42618
v -3.89080 -0.00400 -3.42618
f 709 710 711
f 709 711 712
usemtl Reef
v -4.20962 -0.00400 -3.42618
v -4.20962 -0.00400 -3.46118
v -3.89080 -0.00400 -3.46118
v -3.89080 -0.00400 -3.42618
f 713 714 715
f 713 715 716
usemtl Reef
v -4.20962 0.00600 -3.46118
v -4.20962 0.00600 -3.42618
v -3.89080 0.00600 -3.42618
v -3.89080 0.00600 -3.46118
f 717 718 719
f 717 719 720
usemtl Reef
v 3.02587 -0.00400 -4.11290
v 3.02587 0.00600 -4.11290
v 3.43271 0.00600 -4.11290
v 3.43271 -0.00400 -4.11290
f 721 722 723
f 721 723 724
usemtl Reef
v 3.43271 -0.00400 -4.07790
v 3.43271 0.00600 -4.07790
v 3.02587 0.00600 -4.07790
v 3.02587 -0.00400 -4.07790
f 725 726 727
f 725 727 728
usemtl Reef
v 3.02587 -0.00400 -4.07790
v 3.02587 0.00600 -4.07790
v 3.02587 0.00600 -4.11290
v 3.02587 -0.00400 -4.11290
f 729 730 731
f 729 731 732
usemtl Reef
v 3.43271 -0.00400 -4.11290
v 3.43271 0.00600 -4.11290
v 3.43271 0.00600 -4.07790
v 3.43271 -0.00400 -4.07790
f 733 734 735
f 733 735 736
usemtl Reef
v 3.02587 -0.00400 -4.07790
v 3.02587 -0.00400 -4.11290
v 3.43271 -0.00400 -4.11290
v 3.43271 -0.00400 -4.07790
f 737 738 739
f 737 739 740
usemtl Reef
v 3.02587 0.00600 -4.11290
v 3.02587 0.00600 -4.07790
v 3.43271 0.00600 -4.07790
v 3.43271 0.00600 -4.11290
f 741 742 743
f 741 743 744
usemtl Foam
v 1.21977 -0.00400 3.67224
v 1.21977 0.00600 3.67224
v 1.50207 0.00600 3.67224
v 1.50207 -0.00400 3.67224
f 745 746 747
f 745 747 748
usemtl Foam
v 1.50207 -0.00400 3.70724
v 1.50207 0.00600 3.70724
v 1.21977 0.00600 3.70724
v 1.21977 -0.00400 3.70724
f 749 750 751
f 749 751 752
usemtl Foam
v 1.21977 -0.00400 3.70724
v 1.21977 0.00600 3.70724
v 1.21977 0.00600 3.67224
v 1.21977 -0.00400 3.67224
f 753 754 755
f 753 755 756
usemtl Foam
v 1.50207 -0.00400 3.67224
v 1.50207 0.00600 3.67224
v 1.50207 0.00600 3.70724
v 1.50207 -0.00400 3.70724
f 757 758 759
f 757 759 760
usemtl Foam
v 1.21977 -0.00400 3.70724
v 1.21977 -0.00400 3.67224
v 1.50207 -0.00400 3.67224
v 1.50207 -0.00400 3.70724
f 761 762 763
f 761 763 764
usemtl Foam
v 1.21977 0.00600 3.67224
v 1.21977 0.00600 3.70724
v 1.50207 0.00600 3.70724
v 1.50207 0.00600 3.67224
f 765 766 767
f 765 767 768
usemtl Reef
v -0.96198 -0.00400 4.73857
v -0.96198 0.00600 4.73857
v -0.75219 0.00600 4.73857
v -0.75219 -0.00400 4.73857
f 769 770 771
f 769 771 772
usemtl Reef
v -0.75219 -0.00400 4.77357
v -0.75219 0.00600 4.77357
v -0.96198 0.00600 4.77357
v -0.96198 -0.00400 4.77357
f 773 774 775
f 773 775 776
usemtl Reef
v -0.96198 -0.00400 4.77357
v -0.96198 0.00600 4.77357
v -0.96198 0.00600 4.73857
v -0.96198 -0.00400 4.73857
f 777 778 779
f 777 779 780
usemtl Reef
v -0.75219 -0.00400 4.73857
v -0.75219 0.00600 4.73857
v -0.75219 0.00600 4.77357
v -0.75219 -0.00400 4.77357
f 781 782 783
f 781 783 784
usemtl Reef
v -0.96198 -0.00400 4.77357
v -0.96198 -0.00400 4.73857
v -0.75219 -0.00400 4.73857
v -0.75219 -0.00400 4.77357
f 785 786 787
f 785 787 788
usemtl Reef
v -0.96198 0.00600 4.73857
v -0.96198 0.00600 4.77357
v -0.75219 0.00600 4.77357
v -0.75219 0.00600 4.73857
f 789 790 791
f 789 791 792
