# Original Yellow Coast study. Y up; 1 unit = 1 metre.
mtllib Coastline.mtl
o Shallows
usemtl Reef
v -2.80000 -0.11000 -2.64000
v -2.80000 -0.01000 -2.64000
v -1.52000 -0.01000 -2.64000
v -1.52000 -0.11000 -2.64000
f 1 2 3
f 1 3 4
usemtl Reef
v -1.52000 -0.11000 -1.36000
v -1.52000 -0.01000 -1.36000
v -2.80000 -0.01000 -1.36000
v -2.80000 -0.11000 -1.36000
f 5 6 7
f 5 7 8
usemtl Reef
v -2.80000 -0.11000 -1.36000
v -2.80000 -0.01000 -1.36000
v -2.80000 -0.01000 -2.64000
v -2.80000 -0.11000 -2.64000
f 9 10 11
f 9 11 12
usemtl Reef
v -1.52000 -0.11000 -2.64000
v -1.52000 -0.01000 -2.64000
v -1.52000 -0.01000 -1.36000
v -1.52000 -0.11000 -1.36000
f 13 14 15
f 13 15 16
usemtl Reef
v -2.80000 -0.11000 -1.36000
v -2.80000 -0.11000 -2.64000
v -1.52000 -0.11000 -2.64000
v -1.52000 -0.11000 -1.36000
f 17 18 19
f 17 19 20
usemtl Reef
v -2.80000 -0.01000 -2.64000
v -2.80000 -0.01000 -1.36000
v -1.52000 -0.01000 -1.36000
v -1.52000 -0.01000 -2.64000
f 21 22 23
f 21 23 24
usemtl Reef
v -2.64000 -0.11000 -2.80000
v -2.64000 -0.01000 -2.80000
v -1.36000 -0.01000 -2.80000
v -1.36000 -0.11000 -2.80000
f 25 26 27
f 25 27 28
usemtl Reef
v -1.36000 -0.11000 -1.52000
v -1.36000 -0.01000 -1.52000
v -2.64000 -0.01000 -1.52000
v -2.64000 -0.11000 -1.52000
f 29 30 31
f 29 31 32
usemtl Reef
v -2.64000 -0.11000 -1.52000
v -2.64000 -0.01000 -1.52000
v -2.64000 -0.01000 -2.80000
v -2.64000 -0.11000 -2.80000
f 33 34 35
f 33 35 36
usemtl Reef
v -1.36000 -0.11000 -2.80000
v -1.36000 -0.01000 -2.80000
v -1.36000 -0.01000 -1.52000
v -1.36000 -0.11000 -1.52000
f 37 38 39
f 37 39 40
usemtl Reef
v -2.64000 -0.11000 -1.52000
v -2.64000 -0.11000 -2.80000
v -1.36000 -0.11000 -2.80000
v -1.36000 -0.11000 -1.52000
f 41 42 43
f 41 43 44
usemtl Reef
v -2.64000 -0.01000 -2.80000
v -2.64000 -0.01000 -1.52000
v -1.36000 -0.01000 -1.52000
v -1.36000 -0.01000 -2.80000
f 45 46 47
f 45 47 48
usemtl Reef
v -1.48000 -0.11000 -2.64000
v -1.48000 -0.01000 -2.64000
v -0.20000 -0.01000 -2.64000
v -0.20000 -0.11000 -2.64000
f 49 50 51
f 49 51 52
usemtl Reef
v -0.20000 -0.11000 -1.36000
v -0.20000 -0.01000 -1.36000
v -1.48000 -0.01000 -1.36000
v -1.48000 -0.11000 -1.36000
f 53 54 55
f 53 55 56
usemtl Reef
v -1.48000 -0.11000 -1.36000
v -1.48000 -0.01000 -1.36000
v -1.48000 -0.01000 -2.64000
v -1.48000 -0.11000 -2.64000
f 57 58 59
f 57 59 60
usemtl Reef
v -0.20000 -0.11000 -2.64000
v -0.20000 -0.01000 -2.64000
v -0.20000 -0.01000 -1.36000
v -0.20000 -0.11000 -1.36000
f 61 62 63
f 61 63 64
usemtl Reef
v -1.48000 -0.11000 -1.36000
v -1.48000 -0.11000 -2.64000
v -0.20000 -0.11000 -2.64000
v -0.20000 -0.11000 -1.36000
f 65 66 67
f 65 67 68
usemtl Reef
v -1.48000 -0.01000 -2.64000
v -1.48000 -0.01000 -1.36000
v -0.20000 -0.01000 -1.36000
v -0.20000 -0.01000 -2.64000
f 69 70 71
f 69 71 72
usemtl Reef
v -1.64000 -0.11000 -2.80000
v -1.64000 -0.01000 -2.80000
v -0.36000 -0.01000 -2.80000
v -0.36000 -0.11000 -2.80000
f 73 74 75
f 73 75 76
usemtl Reef
v -0.36000 -0.11000 -1.52000
v -0.36000 -0.01000 -1.52000
v -1.64000 -0.01000 -1.52000
v -1.64000 -0.11000 -1.52000
f 77 78 79
f 77 79 80
usemtl Reef
v -1.64000 -0.11000 -1.52000
v -1.64000 -0.01000 -1.52000
v -1.64000 -0.01000 -2.80000
v -1.64000 -0.11000 -2.80000
f 81 82 83
f 81 83 84
usemtl Reef
v -0.36000 -0.11000 -2.80000
v -0.36000 -0.01000 -2.80000
v -0.36000 -0.01000 -1.52000
v -0.36000 -0.11000 -1.52000
f 85 86 87
f 85 87 88
usemtl Reef
v -1.64000 -0.11000 -1.52000
v -1.64000 -0.11000 -2.80000
v -0.36000 -0.11000 -2.80000
v -0.36000 -0.11000 -1.52000
f 89 90 91
f 89 91 92
usemtl Reef
v -1.64000 -0.01000 -2.80000
v -1.64000 -0.01000 -1.52000
v -0.36000 -0.01000 -1.52000
v -0.36000 -0.01000 -2.80000
f 93 94 95
f 93 95 96
usemtl Reef
v -3.80000 -0.11000 -1.64000
v -3.80000 -0.01000 -1.64000
v -2.52000 -0.01000 -1.64000
v -2.52000 -0.11000 -1.64000
f 97 98 99
f 97 99 100
usemtl Reef
v -2.52000 -0.11000 -0.36000
v -2.52000 -0.01000 -0.36000
v -3.80000 -0.01000 -0.36000
v -3.80000 -0.11000 -0.36000
f 101 102 103
f 101 103 104
usemtl Reef
v -3.80000 -0.11000 -0.36000
v -3.80000 -0.01000 -0.36000
v -3.80000 -0.01000 -1.64000
v -3.80000 -0.11000 -1.64000
f 105 106 107
f 105 107 108
usemtl Reef
v -2.52000 -0.11000 -1.64000
v -2.52000 -0.01000 -1.64000
v -2.52000 -0.01000 -0.36000
v -2.52000 -0.11000 -0.36000
f 109 110 111
f 109 111 112
usemtl Reef
v -3.80000 -0.11000 -0.36000
v -3.80000 -0.11000 -1.64000
v -2.52000 -0.11000 -1.64000
v -2.52000 -0.11000 -0.36000
f 113 114 115
f 113 115 116
usemtl Reef
v -3.80000 -0.01000 -1.64000
v -3.80000 -0.01000 -0.36000
v -2.52000 -0.01000 -0.36000
v -2.52000 -0.01000 -1.64000
f 117 118 119
f 117 119 120
usemtl Reef
v -3.64000 -0.11000 -1.80000
v -3.64000 -0.01000 -1.80000
v -2.36000 -0.01000 -1.80000
v -2.36000 -0.11000 -1.80000
f 121 122 123
f 121 123 124
usemtl Reef
v -2.36000 -0.11000 -0.52000
v -2.36000 -0.01000 -0.52000
v -3.64000 -0.01000 -0.52000
v -3.64000 -0.11000 -0.52000
f 125 126 127
f 125 127 128
usemtl Reef
v -3.64000 -0.11000 -0.52000
v -3.64000 -0.01000 -0.52000
v -3.64000 -0.01000 -1.80000
v -3.64000 -0.11000 -1.80000
f 129 130 131
f 129 131 132
usemtl Reef
v -2.36000 -0.11000 -1.80000
v -2.36000 -0.01000 -1.80000
v -2.36000 -0.01000 -0.52000
v -2.36000 -0.11000 -0.52000
f 133 134 135
f 133 135 136
usemtl Reef
v -3.64000 -0.11000 -0.52000
v -3.64000 -0.11000 -1.80000
v -2.36000 -0.11000 -1.80000
v -2.36000 -0.11000 -0.52000
f 137 138 139
f 137 139 140
usemtl Reef
v -3.64000 -0.01000 -1.80000
v -3.64000 -0.01000 -0.52000
v -2.36000 -0.01000 -0.52000
v -2.36000 -0.01000 -1.80000
f 141 142 143
f 141 143 144
usemtl Reef
v -0.64000 -0.11000 -1.80000
v -0.64000 -0.01000 -1.80000
v 0.64000 -0.01000 -1.80000
v 0.64000 -0.11000 -1.80000
f 145 146 147
f 145 147 148
usemtl Reef
v 0.64000 -0.11000 -0.52000
v 0.64000 -0.01000 -0.52000
v -0.64000 -0.01000 -0.52000
v -0.64000 -0.11000 -0.52000
f 149 150 151
f 149 151 152
usemtl Reef
v -0.64000 -0.11000 -0.52000
v -0.64000 -0.01000 -0.52000
v -0.64000 -0.01000 -1.80000
v -0.64000 -0.11000 -1.80000
f 153 154 155
f 153 155 156
usemtl Reef
v 0.64000 -0.11000 -1.80000
v 0.64000 -0.01000 -1.80000
v 0.64000 -0.01000 -0.52000
v 0.64000 -0.11000 -0.52000
f 157 158 159
f 157 159 160
usemtl Reef
v -0.64000 -0.11000 -0.52000
v -0.64000 -0.11000 -1.80000
v 0.64000 -0.11000 -1.80000
v 0.64000 -0.11000 -0.52000
f 161 162 163
f 161 163 164
usemtl Reef
v -0.64000 -0.01000 -1.80000
v -0.64000 -0.01000 -0.52000
v 0.64000 -0.01000 -0.52000
v 0.64000 -0.01000 -1.80000
f 165 166 167
f 165 167 168
usemtl Reef
v 0.52000 -0.11000 -1.64000
v 0.52000 -0.01000 -1.64000
v 1.80000 -0.01000 -1.64000
v 1.80000 -0.11000 -1.64000
f 169 170 171
f 169 171 172
usemtl Reef
v 1.80000 -0.11000 -0.36000
v 1.80000 -0.01000 -0.36000
v 0.52000 -0.01000 -0.36000
v 0.52000 -0.11000 -0.36000
f 173 174 175
f 173 175 176
usemtl Reef
v 0.52000 -0.11000 -0.36000
v 0.52000 -0.01000 -0.36000
v 0.52000 -0.01000 -1.64000
v 0.52000 -0.11000 -1.64000
f 177 178 179
f 177 179 180
usemtl Reef
v 1.80000 -0.11000 -1.64000
v 1.80000 -0.01000 -1.64000
v 1.80000 -0.01000 -0.36000
v 1.80000 -0.11000 -0.36000
f 181 182 183
f 181 183 184
usemtl Reef
v 0.52000 -0.11000 -0.36000
v 0.52000 -0.11000 -1.64000
v 1.80000 -0.11000 -1.64000
v 1.80000 -0.11000 -0.36000
f 185 186 187
f 185 187 188
usemtl Reef
v 0.52000 -0.01000 -1.64000
v 0.52000 -0.01000 -0.36000
v 1.80000 -0.01000 -0.36000
v 1.80000 -0.01000 -1.64000
f 189 190 191
f 189 191 192
usemtl Reef
v 0.36000 -0.11000 -1.80000
v 0.36000 -0.01000 -1.80000
v 1.64000 -0.01000 -1.80000
v 1.64000 -0.11000 -1.80000
f 193 194 195
f 193 195 196
usemtl Reef
v 1.64000 -0.11000 -0.52000
v 1.64000 -0.01000 -0.52000
v 0.36000 -0.01000 -0.52000
v 0.36000 -0.11000 -0.52000
f 197 198 199
f 197 199 200
usemtl Reef
v 0.36000 -0.11000 -0.52000
v 0.36000 -0.01000 -0.52000
v 0.36000 -0.01000 -1.80000
v 0.36000 -0.11000 -1.80000
f 201 202 203
f 201 203 204
usemtl Reef
v 1.64000 -0.11000 -1.80000
v 1.64000 -0.01000 -1.80000
v 1.64000 -0.01000 -0.52000
v 1.64000 -0.11000 -0.52000
f 205 206 207
f 205 207 208
usemtl Reef
v 0.36000 -0.11000 -0.52000
v 0.36000 -0.11000 -1.80000
v 1.64000 -0.11000 -1.80000
v 1.64000 -0.11000 -0.52000
f 209 210 211
f 209 211 212
usemtl Reef
v 0.36000 -0.01000 -1.80000
v 0.36000 -0.01000 -0.52000
v 1.64000 -0.01000 -0.52000
v 1.64000 -0.01000 -1.80000
f 213 214 215
f 213 215 216
usemtl Reef
v -3.80000 -0.11000 -0.64000
v -3.80000 -0.01000 -0.64000
v -2.52000 -0.01000 -0.64000
v -2.52000 -0.11000 -0.64000
f 217 218 219
f 217 219 220
usemtl Reef
v -2.52000 -0.11000 0.64000
v -2.52000 -0.01000 0.64000
v -3.80000 -0.01000 0.64000
v -3.80000 -0.11000 0.64000
f 221 222 223
f 221 223 224
usemtl Reef
v -3.80000 -0.11000 0.64000
v -3.80000 -0.01000 0.64000
v -3.80000 -0.01000 -0.64000
v -3.80000 -0.11000 -0.64000
f 225 226 227
f 225 227 228
usemtl Reef
v -2.52000 -0.11000 -0.64000
v -2.52000 -0.01000 -0.64000
v -2.52000 -0.01000 0.64000
v -2.52000 -0.11000 0.64000
f 229 230 231
f 229 231 232
usemtl Reef
v -3.80000 -0.11000 0.64000
v -3.80000 -0.11000 -0.64000
v -2.52000 -0.11000 -0.64000
v -2.52000 -0.11000 0.64000
f 233 234 235
f 233 235 236
usemtl Reef
v -3.80000 -0.01000 -0.64000
v -3.80000 -0.01000 0.64000
v -2.52000 -0.01000 0.64000
v -2.52000 -0.01000 -0.64000
f 237 238 239
f 237 239 240
usemtl Reef
v -3.64000 -0.11000 -0.48000
v -3.64000 -0.01000 -0.48000
v -2.36000 -0.01000 -0.48000
v -2.36000 -0.11000 -0.48000
f 241 242 243
f 241 243 244
usemtl Reef
v -2.36000 -0.11000 0.80000
v -2.36000 -0.01000 0.80000
v -3.64000 -0.01000 0.80000
v -3.64000 -0.11000 0.80000
f 245 246 247
f 245 247 248
usemtl Reef
v -3.64000 -0.11000 0.80000
v -3.64000 -0.01000 0.80000
v -3.64000 -0.01000 -0.48000
v -3.64000 -0.11000 -0.48000
f 249 250 251
f 249 251 252
usemtl Reef
v -2.36000 -0.11000 -0.48000
v -2.36000 -0.01000 -0.48000
v -2.36000 -0.01000 0.80000
v -2.36000 -0.11000 0.80000
f 253 254 255
f 253 255 256
usemtl Reef
v -3.64000 -0.11000 0.80000
v -3.64000 -0.11000 -0.48000
v -2.36000 -0.11000 -0.48000
v -2.36000 -0.11000 0.80000
f 257 258 259
f 257 259 260
usemtl Reef
v -3.64000 -0.01000 -0.48000
v -3.64000 -0.01000 0.80000
v -2.36000 -0.01000 0.80000
v -2.36000 -0.01000 -0.48000
f 261 262 263
f 261 263 264
usemtl Reef
v 1.52000 -0.11000 -0.64000
v 1.52000 -0.01000 -0.64000
v 2.80000 -0.01000 -0.64000
v 2.80000 -0.11000 -0.64000
f 265 266 267
f 265 267 268
usemtl Reef
v 2.80000 -0.11000 0.64000
v 2.80000 -0.01000 0.64000
v 1.52000 -0.01000 0.64000
v 1.52000 -0.11000 0.64000
f 269 270 271
f 269 271 272
usemtl Reef
v 1.52000 -0.11000 0.64000
v 1.52000 -0.01000 0.64000
v 1.52000 -0.01000 -0.64000
v 1.52000 -0.11000 -0.64000
f 273 274 275
f 273 275 276
usemtl Reef
v 2.80000 -0.11000 -0.64000
v 2.80000 -0.01000 -0.64000
v 2.80000 -0.01000 0.64000
v 2.80000 -0.11000 0.64000
f 277 278 279
f 277 279 280
usemtl Reef
v 1.52000 -0.11000 0.64000
v 1.52000 -0.11000 -0.64000
v 2.80000 -0.11000 -0.64000
v 2.80000 -0.11000 0.64000
f 281 282 283
f 281 283 284
usemtl Reef
v 1.52000 -0.01000 -0.64000
v 1.52000 -0.01000 0.64000
v 2.80000 -0.01000 0.64000
v 2.80000 -0.01000 -0.64000
f 285 286 287
f 285 287 288
usemtl Reef
v 1.36000 -0.11000 -0.80000
v 1.36000 -0.01000 -0.80000
v 2.64000 -0.01000 -0.80000
v 2.64000 -0.11000 -0.80000
f 289 290 291
f 289 291 292
usemtl Reef
v 2.64000 -0.11000 0.48000
v 2.64000 -0.01000 0.48000
v 1.36000 -0.01000 0.48000
v 1.36000 -0.11000 0.48000
f 293 294 295
f 293 295 296
usemtl Reef
v 1.36000 -0.11000 0.48000
v 1.36000 -0.01000 0.48000
v 1.36000 -0.01000 -0.80000
v 1.36000 -0.11000 -0.80000
f 297 298 299
f 297 299 300
usemtl Reef
v 2.64000 -0.11000 -0.80000
v 2.64000 -0.01000 -0.80000
v 2.64000 -0.01000 0.48000
v 2.64000 -0.11000 0.48000
f 301 302 303
f 301 303 304
usemtl Reef
v 1.36000 -0.11000 0.48000
v 1.36000 -0.11000 -0.80000
v 2.64000 -0.11000 -0.80000
v 2.64000 -0.11000 0.48000
f 305 306 307
f 305 307 308
usemtl Reef
v 1.36000 -0.01000 -0.80000
v 1.36000 -0.01000 0.48000
v 2.64000 -0.01000 0.48000
v 2.64000 -0.01000 -0.80000
f 309 310 311
f 309 311 312
usemtl Reef
v -2.80000 -0.11000 0.36000
v -2.80000 -0.01000 0.36000
v -1.52000 -0.01000 0.36000
v -1.52000 -0.11000 0.36000
f 313 314 315
f 313 315 316
usemtl Reef
v -1.52000 -0.11000 1.64000
v -1.52000 -0.01000 1.64000
v -2.80000 -0.01000 1.64000
v -2.80000 -0.11000 1.64000
f 317 318 319
f 317 319 320
usemtl Reef
v -2.80000 -0.11000 1.64000
v -2.80000 -0.01000 1.64000
v -2.80000 -0.01000 0.36000
v -2.80000 -0.11000 0.36000
f 321 322 323
f 321 323 324
usemtl Reef
v -1.52000 -0.11000 0.36000
v -1.52000 -0.01000 0.36000
v -1.52000 -0.01000 1.64000
v -1.52000 -0.11000 1.64000
f 325 326 327
f 325 327 328
usemtl Reef
v -2.80000 -0.11000 1.64000
v -2.80000 -0.11000 0.36000
v -1.52000 -0.11000 0.36000
v -1.52000 -0.11000 1.64000
f 329 330 331
f 329 331 332
usemtl Reef
v -2.80000 -0.01000 0.36000
v -2.80000 -0.01000 1.64000
v -1.52000 -0.01000 1.64000
v -1.52000 -0.01000 0.36000
f 333 334 335
f 333 335 336
usemtl Reef
v 2.52000 -0.11000 0.36000
v 2.52000 -0.01000 0.36000
v 3.80000 -0.01000 0.36000
v 3.80000 -0.11000 0.36000
f 337 338 339
f 337 339 340
usemtl Reef
v 3.80000 -0.11000 1.64000
v 3.80000 -0.01000 1.64000
v 2.52000 -0.01000 1.64000
v 2.52000 -0.11000 1.64000
f 341 342 343
f 341 343 344
usemtl Reef
v 2.52000 -0.11000 1.64000
v 2.52000 -0.01000 1.64000
v 2.52000 -0.01000 0.36000
v 2.52000 -0.11000 0.36000
f 345 346 347
f 345 347 348
usemtl Reef
v 3.80000 -0.11000 0.36000
v 3.80000 -0.01000 0.36000
v 3.80000 -0.01000 1.64000
v 3.80000 -0.11000 1.64000
f 349 350 351
f 349 351 352
usemtl Reef
v 2.52000 -0.11000 1.64000
v 2.52000 -0.11000 0.36000
v 3.80000 -0.11000 0.36000
v 3.80000 -0.11000 1.64000
f 353 354 355
f 353 355 356
usemtl Reef
v 2.52000 -0.01000 0.36000
v 2.52000 -0.01000 1.64000
v 3.80000 -0.01000 1.64000
v 3.80000 -0.01000 0.36000
f 357 358 359
f 357 359 360
usemtl Reef
v 2.36000 -0.11000 0.20000
v 2.36000 -0.01000 0.20000
v 3.64000 -0.01000 0.20000
v 3.64000 -0.11000 0.20000
f 361 362 363
f 361 363 364
usemtl Reef
v 3.64000 -0.11000 1.48000
v 3.64000 -0.01000 1.48000
v 2.36000 -0.01000 1.48000
v 2.36000 -0.11000 1.48000
f 365 366 367
f 365 367 368
usemtl Reef
v 2.36000 -0.11000 1.48000
v 2.36000 -0.01000 1.48000
v 2.36000 -0.01000 0.20000
v 2.36000 -0.11000 0.20000
f 369 370 371
f 369 371 372
usemtl Reef
v 3.64000 -0.11000 0.20000
v 3.64000 -0.01000 0.20000
v 3.64000 -0.01000 1.48000
v 3.64000 -0.11000 1.48000
f 373 374 375
f 373 375 376
usemtl Reef
v 2.36000 -0.11000 1.48000
v 2.36000 -0.11000 0.20000
v 3.64000 -0.11000 0.20000
v 3.64000 -0.11000 1.48000
f 377 378 379
f 377 379 380
usemtl Reef
v 2.36000 -0.01000 0.20000
v 2.36000 -0.01000 1.48000
v 3.64000 -0.01000 1.48000
v 3.64000 -0.01000 0.20000
f 381 382 383
f 381 383 384
usemtl Reef
v -2.80000 -0.11000 1.36000
v -2.80000 -0.01000 1.36000
v -1.52000 -0.01000 1.36000
v -1.52000 -0.11000 1.36000
f 385 386 387
f 385 387 388
usemtl Reef
v -1.52000 -0.11000 2.64000
v -1.52000 -0.01000 2.64000
v -2.80000 -0.01000 2.64000
v -2.80000 -0.11000 2.64000
f 389 390 391
f 389 391 392
usemtl Reef
v -2.80000 -0.11000 2.64000
v -2.80000 -0.01000 2.64000
v -2.80000 -0.01000 1.36000
v -2.80000 -0.11000 1.36000
f 393 394 395
f 393 395 396
usemtl Reef
v -1.52000 -0.11000 1.36000
v -1.52000 -0.01000 1.36000
v -1.52000 -0.01000 2.64000
v -1.52000 -0.11000 2.64000
f 397 398 399
f 397 399 400
usemtl Reef
v -2.80000 -0.11000 2.64000
v -2.80000 -0.11000 1.36000
v -1.52000 -0.11000 1.36000
v -1.52000 -0.11000 2.64000
f 401 402 403
f 401 403 404
usemtl Reef
v -2.80000 -0.01000 1.36000
v -2.80000 -0.01000 2.64000
v -1.52000 -0.01000 2.64000
v -1.52000 -0.01000 1.36000
f 405 406 407
f 405 407 408
usemtl Reef
v -2.64000 -0.11000 1.52000
v -2.64000 -0.01000 1.52000
v -1.36000 -0.01000 1.52000
v -1.36000 -0.11000 1.52000
f 409 410 411
f 409 411 412
usemtl Reef
v -1.36000 -0.11000 2.80000
v -1.36000 -0.01000 2.80000
v -2.64000 -0.01000 2.80000
v -2.64000 -0.11000 2.80000
f 413 414 415
f 413 415 416
usemtl Reef
v -2.64000 -0.11000 2.80000
v -2.64000 -0.01000 2.80000
v -2.64000 -0.01000 1.52000
v -2.64000 -0.11000 1.52000
f 417 418 419
f 417 419 420
usemtl Reef
v -1.36000 -0.11000 1.52000
v -1.36000 -0.01000 1.52000
v -1.36000 -0.01000 2.80000
v -1.36000 -0.11000 2.80000
f 421 422 423
f 421 423 424
usemtl Reef
v -2.64000 -0.11000 2.80000
v -2.64000 -0.11000 1.52000
v -1.36000 -0.11000 1.52000
v -1.36000 -0.11000 2.80000
f 425 426 427
f 425 427 428
usemtl Reef
v -2.64000 -0.01000 1.52000
v -2.64000 -0.01000 2.80000
v -1.36000 -0.01000 2.80000
v -1.36000 -0.01000 1.52000
f 429 430 431
f 429 431 432
usemtl Reef
v 2.52000 -0.11000 1.36000
v 2.52000 -0.01000 1.36000
v 3.80000 -0.01000 1.36000
v 3.80000 -0.11000 1.36000
f 433 434 435
f 433 435 436
usemtl Reef
v 3.80000 -0.11000 2.64000
v 3.80000 -0.01000 2.64000
v 2.52000 -0.01000 2.64000
v 2.52000 -0.11000 2.64000
f 437 438 439
f 437 439 440
usemtl Reef
v 2.52000 -0.11000 2.64000
v 2.52000 -0.01000 2.64000
v 2.52000 -0.01000 1.36000
v 2.52000 -0.11000 1.36000
f 441 442 443
f 441 443 444
usemtl Reef
v 3.80000 -0.11000 1.36000
v 3.80000 -0.01000 1.36000
v 3.80000 -0.01000 2.64000
v 3.80000 -0.11000 2.64000
f 445 446 447
f 445 447 448
usemtl Reef
v 2.52000 -0.11000 2.64000
v 2.52000 -0.11000 1.36000
v 3.80000 -0.11000 1.36000
v 3.80000 -0.11000 2.64000
f 449 450 451
f 449 451 452
usemtl Reef
v 2.52000 -0.01000 1.36000
v 2.52000 -0.01000 2.64000
v 3.80000 -0.01000 2.64000
v 3.80000 -0.01000 1.36000
f 453 454 455
f 453 455 456
usemtl Reef
v -1.80000 -0.11000 2.36000
v -1.80000 -0.01000 2.36000
v -0.52000 -0.01000 2.36000
v -0.52000 -0.11000 2.36000
f 457 458 459
f 457 459 460
usemtl Reef
v -0.52000 -0.11000 3.64000
v -0.52000 -0.01000 3.64000
v -1.80000 -0.01000 3.64000
v -1.80000 -0.11000 3.64000
f 461 462 463
f 461 463 464
usemtl Reef
v -1.80000 -0.11000 3.64000
v -1.80000 -0.01000 3.64000
v -1.80000 -0.01000 2.36000
v -1.80000 -0.11000 2.36000
f 465 466 467
f 465 467 468
usemtl Reef
v -0.52000 -0.11000 2.36000
v -0.52000 -0.01000 2.36000
v -0.52000 -0.01000 3.64000
v -0.52000 -0.11000 3.64000
f 469 470 471
f 469 471 472
usemtl Reef
v -1.80000 -0.11000 3.64000
v -1.80000 -0.11000 2.36000
v -0.52000 -0.11000 2.36000
v -0.52000 -0.11000 3.64000
f 473 474 475
f 473 475 476
usemtl Reef
v -1.80000 -0.01000 2.36000
v -1.80000 -0.01000 3.64000
v -0.52000 -0.01000 3.64000
v -0.52000 -0.01000 2.36000
f 477 478 479
f 477 479 480
usemtl Reef
v -1.64000 -0.11000 2.52000
v -1.64000 -0.01000 2.52000
v -0.36000 -0.01000 2.52000
v -0.36000 -0.11000 2.52000
f 481 482 483
f 481 483 484
usemtl Reef
v -0.36000 -0.11000 3.80000
v -0.36000 -0.01000 3.80000
v -1.64000 -0.01000 3.80000
v -1.64000 -0.11000 3.80000
f 485 486 487
f 485 487 488
usemtl Reef
v -1.64000 -0.11000 3.80000
v -1.64000 -0.01000 3.80000
v -1.64000 -0.01000 2.52000
v -1.64000 -0.11000 2.52000
f 489 490 491
f 489 491 492
usemtl Reef
v -0.36000 -0.11000 2.52000
v -0.36000 -0.01000 2.52000
v -0.36000 -0.01000 3.80000
v -0.36000 -0.11000 3.80000
f 493 494 495
f 493 495 496
usemtl Reef
v -1.64000 -0.11000 3.80000
v -1.64000 -0.11000 2.52000
v -0.36000 -0.11000 2.52000
v -0.36000 -0.11000 3.80000
f 497 498 499
f 497 499 500
usemtl Reef
v -1.64000 -0.01000 2.52000
v -1.64000 -0.01000 3.80000
v -0.36000 -0.01000 3.80000
v -0.36000 -0.01000 2.52000
f 501 502 503
f 501 503 504
usemtl Reef
v -0.64000 -0.11000 2.52000
v -0.64000 -0.01000 2.52000
v 0.64000 -0.01000 2.52000
v 0.64000 -0.11000 2.52000
f 505 506 507
f 505 507 508
usemtl Reef
v 0.64000 -0.11000 3.80000
v 0.64000 -0.01000 3.80000
v -0.64000 -0.01000 3.80000
v -0.64000 -0.11000 3.80000
f 509 510 511
f 509 511 512
usemtl Reef
v -0.64000 -0.11000 3.80000
v -0.64000 -0.01000 3.80000
v -0.64000 -0.01000 2.52000
v -0.64000 -0.11000 2.52000
f 513 514 515
f 513 515 516
usemtl Reef
v 0.64000 -0.11000 2.52000
v 0.64000 -0.01000 2.52000
v 0.64000 -0.01000 3.80000
v 0.64000 -0.11000 3.80000
f 517 518 519
f 517 519 520
usemtl Reef
v -0.64000 -0.11000 3.80000
v -0.64000 -0.11000 2.52000
v 0.64000 -0.11000 2.52000
v 0.64000 -0.11000 3.80000
f 521 522 523
f 521 523 524
usemtl Reef
v -0.64000 -0.01000 2.52000
v -0.64000 -0.01000 3.80000
v 0.64000 -0.01000 3.80000
v 0.64000 -0.01000 2.52000
f 525 526 527
f 525 527 528
usemtl Reef
v 0.36000 -0.11000 2.52000
v 0.36000 -0.01000 2.52000
v 1.64000 -0.01000 2.52000
v 1.64000 -0.11000 2.52000
f 529 530 531
f 529 531 532
usemtl Reef
v 1.64000 -0.11000 3.80000
v 1.64000 -0.01000 3.80000
v 0.36000 -0.01000 3.80000
v 0.36000 -0.11000 3.80000
f 533 534 535
f 533 535 536
usemtl Reef
v 0.36000 -0.11000 3.80000
v 0.36000 -0.01000 3.80000
v 0.36000 -0.01000 2.52000
v 0.36000 -0.11000 2.52000
f 537 538 539
f 537 539 540
usemtl Reef
v 1.64000 -0.11000 2.52000
v 1.64000 -0.01000 2.52000
v 1.64000 -0.01000 3.80000
v 1.64000 -0.11000 3.80000
f 541 542 543
f 541 543 544
usemtl Reef
v 0.36000 -0.11000 3.80000
v 0.36000 -0.11000 2.52000
v 1.64000 -0.11000 2.52000
v 1.64000 -0.11000 3.80000
f 545 546 547
f 545 547 548
usemtl Reef
v 0.36000 -0.01000 2.52000
v 0.36000 -0.01000 3.80000
v 1.64000 -0.01000 3.80000
v 1.64000 -0.01000 2.52000
f 549 550 551
f 549 551 552
usemtl Reef
v -4.48000 -0.11000 1.36000
v -4.48000 -0.01000 1.36000
v -3.20000 -0.01000 1.36000
v -3.20000 -0.11000 1.36000
f 553 554 555
f 553 555 556
usemtl Reef
v -3.20000 -0.11000 2.64000
v -3.20000 -0.01000 2.64000
v -4.48000 -0.01000 2.64000
v -4.48000 -0.11000 2.64000
f 557 558 559
f 557 559 560
usemtl Reef
v -4.48000 -0.11000 2.64000
v -4.48000 -0.01000 2.64000
v -4.48000 -0.01000 1.36000
v -4.48000 -0.11000 1.36000
f 561 562 563
f 561 563 564
usemtl Reef
v -3.20000 -0.11000 1.36000
v -3.20000 -0.01000 1.36000
v -3.20000 -0.01000 2.64000
v -3.20000 -0.11000 2.64000
f 565 566 567
f 565 567 568
usemtl Reef
v -4.48000 -0.11000 2.64000
v -4.48000 -0.11000 1.36000
v -3.20000 -0.11000 1.36000
v -3.20000 -0.11000 2.64000
f 569 570 571
f 569 571 572
usemtl Reef
v -4.48000 -0.01000 1.36000
v -4.48000 -0.01000 2.64000
v -3.20000 -0.01000 2.64000
v -3.20000 -0.01000 1.36000
f 573 574 575
f 573 575 576
usemtl Reef
v -4.80000 -0.11000 1.36000
v -4.80000 -0.01000 1.36000
v -3.52000 -0.01000 1.36000
v -3.52000 -0.11000 1.36000
f 577 578 579
f 577 579 580
usemtl Reef
v -3.52000 -0.11000 2.64000
v -3.52000 -0.01000 2.64000
v -4.80000 -0.01000 2.64000
v -4.80000 -0.11000 2.64000
f 581 582 583
f 581 583 584
usemtl Reef
v -4.80000 -0.11000 2.64000
v -4.80000 -0.01000 2.64000
v -4.80000 -0.01000 1.36000
v -4.80000 -0.11000 1.36000
f 585 586 587
f 585 587 588
usemtl Reef
v -3.52000 -0.11000 1.36000
v -3.52000 -0.01000 1.36000
v -3.52000 -0.01000 2.64000
v -3.52000 -0.11000 2.64000
f 589 590 591
f 589 591 592
usemtl Reef
v -4.80000 -0.11000 2.64000
v -4.80000 -0.11000 1.36000
v -3.52000 -0.11000 1.36000
v -3.52000 -0.11000 2.64000
f 593 594 595
f 593 595 596
usemtl Reef
v -4.80000 -0.01000 1.36000
v -4.80000 -0.01000 2.64000
v -3.52000 -0.01000 2.64000
v -3.52000 -0.01000 1.36000
f 597 598 599
f 597 599 600
usemtl Reef
v -4.64000 -0.11000 1.20000
v -4.64000 -0.01000 1.20000
v -3.36000 -0.01000 1.20000
v -3.36000 -0.11000 1.20000
f 601 602 603
f 601 603 604
usemtl Reef
v -3.36000 -0.11000 2.48000
v -3.36000 -0.01000 2.48000
v -4.64000 -0.01000 2.48000
v -4.64000 -0.11000 2.48000
f 605 606 607
f 605 607 608
usemtl Reef
v -4.64000 -0.11000 2.48000
v -4.64000 -0.01000 2.48000
v -4.64000 -0.01000 1.20000
v -4.64000 -0.11000 1.20000
f 609 610 611
f 609 611 612
usemtl Reef
v -3.36000 -0.11000 1.20000
v -3.36000 -0.01000 1.20000
v -3.36000 -0.01000 2.48000
v -3.36000 -0.11000 2.48000
f 613 614 615
f 613 615 616
usemtl Reef
v -4.64000 -0.11000 2.48000
v -4.64000 -0.11000 1.20000
v -3.36000 -0.11000 1.20000
v -3.36000 -0.11000 2.48000
f 617 618 619
f 617 619 620
usemtl Reef
v -4.64000 -0.01000 1.20000
v -4.64000 -0.01000 2.48000
v -3.36000 -0.01000 2.48000
v -3.36000 -0.01000 1.20000
f 621 622 623
f 621 623 624
usemtl Reef
v -4.80000 -0.11000 2.36000
v -4.80000 -0.01000 2.36000
v -3.52000 -0.01000 2.36000
v -3.52000 -0.11000 2.36000
f 625 626 627
f 625 627 628
usemtl Reef
v -3.52000 -0.11000 3.64000
v -3.52000 -0.01000 3.64000
v -4.80000 -0.01000 3.64000
v -4.80000 -0.11000 3.64000
f 629 630 631
f 629 631 632
usemtl Reef
v -4.80000 -0.11000 3.64000
v -4.80000 -0.01000 3.64000
v -4.80000 -0.01000 2.36000
v -4.80000 -0.11000 2.36000
f 633 634 635
f 633 635 636
usemtl Reef
v -3.52000 -0.11000 2.36000
v -3.52000 -0.01000 2.36000
v -3.52000 -0.01000 3.64000
v -3.52000 -0.11000 3.64000
f 637 638 639
f 637 639 640
usemtl Reef
v -4.80000 -0.11000 3.64000
v -4.80000 -0.11000 2.36000
v -3.52000 -0.11000 2.36000
v -3.52000 -0.11000 3.64000
f 641 642 643
f 641 643 644
usemtl Reef
v -4.80000 -0.01000 2.36000
v -4.80000 -0.01000 3.64000
v -3.52000 -0.01000 3.64000
v -3.52000 -0.01000 2.36000
f 645 646 647
f 645 647 648
usemtl Reef
v -4.64000 -0.11000 2.52000
v -4.64000 -0.01000 2.52000
v -3.36000 -0.01000 2.52000
v -3.36000 -0.11000 2.52000
f 649 650 651
f 649 651 652
usemtl Reef
v -3.36000 -0.11000 3.80000
v -3.36000 -0.01000 3.80000
v -4.64000 -0.01000 3.80000
v -4.64000 -0.11000 3.80000
f 653 654 655
f 653 655 656
usemtl Reef
v -4.64000 -0.11000 3.80000
v -4.64000 -0.01000 3.80000
v -4.64000 -0.01000 2.52000
v -4.64000 -0.11000 2.52000
f 657 658 659
f 657 659 660
usemtl Reef
v -3.36000 -0.11000 2.52000
v -3.36000 -0.01000 2.52000
v -3.36000 -0.01000 3.80000
v -3.36000 -0.11000 3.80000
f 661 662 663
f 661 663 664
usemtl Reef
v -4.64000 -0.11000 3.80000
v -4.64000 -0.11000 2.52000
v -3.36000 -0.11000 2.52000
v -3.36000 -0.11000 3.80000
f 665 666 667
f 665 667 668
usemtl Reef
v -4.64000 -0.01000 2.52000
v -4.64000 -0.01000 3.80000
v -3.36000 -0.01000 3.80000
v -3.36000 -0.01000 2.52000
f 669 670 671
f 669 671 672
usemtl Reef
v -3.48000 -0.11000 2.36000
v -3.48000 -0.01000 2.36000
v -2.20000 -0.01000 2.36000
v -2.20000 -0.11000 2.36000
f 673 674 675
f 673 675 676
usemtl Reef
v -2.20000 -0.11000 3.64000
v -2.20000 -0.01000 3.64000
v -3.48000 -0.01000 3.64000
v -3.48000 -0.11000 3.64000
f 677 678 679
f 677 679 680
usemtl Reef
v -3.48000 -0.11000 3.64000
v -3.48000 -0.01000 3.64000
v -3.48000 -0.01000 2.36000
v -3.48000 -0.11000 2.36000
f 681 682 683
f 681 683 684
usemtl Reef
v -2.20000 -0.11000 2.36000
v -2.20000 -0.01000 2.36000
v -2.20000 -0.01000 3.64000
v -2.20000 -0.11000 3.64000
f 685 686 687
f 685 687 688
usemtl Reef
v -3.48000 -0.11000 3.64000
v -3.48000 -0.11000 2.36000
v -2.20000 -0.11000 2.36000
v -2.20000 -0.11000 3.64000
f 689 690 691
f 689 691 692
usemtl Reef
v -3.48000 -0.01000 2.36000
v -3.48000 -0.01000 3.64000
v -2.20000 -0.01000 3.64000
v -2.20000 -0.01000 2.36000
f 693 694 695
f 693 695 696
usemtl Reef
v -3.64000 -0.11000 2.52000
v -3.64000 -0.01000 2.52000
v -2.36000 -0.01000 2.52000
v -2.36000 -0.11000 2.52000
f 697 698 699
f 697 699 700
usemtl Reef
v -2.36000 -0.11000 3.80000
v -2.36000 -0.01000 3.80000
v -3.64000 -0.01000 3.80000
v -3.64000 -0.11000 3.80000
f 701 702 703
f 701 703 704
usemtl Reef
v -3.64000 -0.11000 3.80000
v -3.64000 -0.01000 3.80000
v -3.64000 -0.01000 2.52000
v -3.64000 -0.11000 2.52000
f 705 706 707
f 705 707 708
usemtl Reef
v -2.36000 -0.11000 2.52000
v -2.36000 -0.01000 2.52000
v -2.36000 -0.01000 3.80000
v -2.36000 -0.11000 3.80000
f 709 710 711
f 709 711 712
usemtl Reef
v -3.64000 -0.11000 3.80000
v -3.64000 -0.11000 2.52000
v -2.36000 -0.11000 2.52000
v -2.36000 -0.11000 3.80000
f 713 714 715
f 713 715 716
usemtl Reef
v -3.64000 -0.01000 2.52000
v -3.64000 -0.01000 3.80000
v -2.36000 -0.01000 3.80000
v -2.36000 -0.01000 2.52000
f 717 718 719
f 717 719 720
usemtl Reef
v -3.64000 -0.11000 2.20000
v -3.64000 -0.01000 2.20000
v -2.36000 -0.01000 2.20000
v -2.36000 -0.11000 2.20000
f 721 722 723
f 721 723 724
usemtl Reef
v -2.36000 -0.11000 3.48000
v -2.36000 -0.01000 3.48000
v -3.64000 -0.01000 3.48000
v -3.64000 -0.11000 3.48000
f 725 726 727
f 725 727 728
usemtl Reef
v -3.64000 -0.11000 3.48000
v -3.64000 -0.01000 3.48000
v -3.64000 -0.01000 2.20000
v -3.64000 -0.11000 2.20000
f 729 730 731
f 729 731 732
usemtl Reef
v -2.36000 -0.11000 2.20000
v -2.36000 -0.01000 2.20000
v -2.36000 -0.01000 3.48000
v -2.36000 -0.11000 3.48000
f 733 734 735
f 733 735 736
usemtl Reef
v -3.64000 -0.11000 3.48000
v -3.64000 -0.11000 2.20000
v -2.36000 -0.11000 2.20000
v -2.36000 -0.11000 3.48000
f 737 738 739
f 737 739 740
usemtl Reef
v -3.64000 -0.01000 2.20000
v -3.64000 -0.01000 3.48000
v -2.36000 -0.01000 3.48000
v -2.36000 -0.01000 2.20000
f 741 742 743
f 741 743 744
usemtl Reef
v 2.52000 -0.11000 2.36000
v 2.52000 -0.01000 2.36000
v 3.80000 -0.01000 2.36000
v 3.80000 -0.11000 2.36000
f 745 746 747
f 745 747 748
usemtl Reef
v 3.80000 -0.11000 3.64000
v 3.80000 -0.01000 3.64000
v 2.52000 -0.01000 3.64000
v 2.52000 -0.11000 3.64000
f 749 750 751
f 749 751 752
usemtl Reef
v 2.52000 -0.11000 3.64000
v 2.52000 -0.01000 3.64000
v 2.52000 -0.01000 2.36000
v 2.52000 -0.11000 2.36000
f 753 754 755
f 753 755 756
usemtl Reef
v 3.80000 -0.11000 2.36000
v 3.80000 -0.01000 2.36000
v 3.80000 -0.01000 3.64000
v 3.80000 -0.11000 3.64000
f 757 758 759
f 757 759 760
usemtl Reef
v 2.52000 -0.11000 3.64000
v 2.52000 -0.11000 2.36000
v 3.80000 -0.11000 2.36000
v 3.80000 -0.11000 3.64000
f 761 762 763
f 761 763 764
usemtl Reef
v 2.52000 -0.01000 2.36000
v 2.52000 -0.01000 3.64000
v 3.80000 -0.01000 3.64000
v 3.80000 -0.01000 2.36000
f 765 766 767
f 765 767 768
usemtl Reef
v 2.52000 -0.11000 3.36000
v 2.52000 -0.01000 3.36000
v 3.80000 -0.01000 3.36000
v 3.80000 -0.11000 3.36000
f 769 770 771
f 769 771 772
usemtl Reef
v 3.80000 -0.11000 4.64000
v 3.80000 -0.01000 4.64000
v 2.52000 -0.01000 4.64000
v 2.52000 -0.11000 4.64000
f 773 774 775
f 773 775 776
usemtl Reef
v 2.52000 -0.11000 4.64000
v 2.52000 -0.01000 4.64000
v 2.52000 -0.01000 3.36000
v 2.52000 -0.11000 3.36000
f 777 778 779
f 777 779 780
usemtl Reef
v 3.80000 -0.11000 3.36000
v 3.80000 -0.01000 3.36000
v 3.80000 -0.01000 4.64000
v 3.80000 -0.11000 4.64000
f 781 782 783
f 781 783 784
usemtl Reef
v 2.52000 -0.11000 4.64000
v 2.52000 -0.11000 3.36000
v 3.80000 -0.11000 3.36000
v 3.80000 -0.11000 4.64000
f 785 786 787
f 785 787 788
usemtl Reef
v 2.52000 -0.01000 3.36000
v 2.52000 -0.01000 4.64000
v 3.80000 -0.01000 4.64000
v 3.80000 -0.01000 3.36000
f 789 790 791
f 789 791 792
usemtl Reef
v 2.36000 -0.11000 3.52000
v 2.36000 -0.01000 3.52000
v 3.64000 -0.01000 3.52000
v 3.64000 -0.11000 3.52000
f 793 794 795
f 793 795 796
usemtl Reef
v 3.64000 -0.11000 4.80000
v 3.64000 -0.01000 4.80000
v 2.36000 -0.01000 4.80000
v 2.36000 -0.11000 4.80000
f 797 798 799
f 797 799 800
usemtl Reef
v 2.36000 -0.11000 4.80000
v 2.36000 -0.01000 4.80000
v 2.36000 -0.01000 3.52000
v 2.36000 -0.11000 3.52000
f 801 802 803
f 801 803 804
usemtl Reef
v 3.64000 -0.11000 3.52000
v 3.64000 -0.01000 3.52000
v 3.64000 -0.01000 4.80000
v 3.64000 -0.11000 4.80000
f 805 806 807
f 805 807 808
usemtl Reef
v 2.36000 -0.11000 4.80000
v 2.36000 -0.11000 3.52000
v 3.64000 -0.11000 3.52000
v 3.64000 -0.11000 4.80000
f 809 810 811
f 809 811 812
usemtl Reef
v 2.36000 -0.01000 3.52000
v 2.36000 -0.01000 4.80000
v 3.64000 -0.01000 4.80000
v 3.64000 -0.01000 3.52000
f 813 814 815
f 813 815 816
usemtl Reef
v 1.20000 -0.11000 3.36000
v 1.20000 -0.01000 3.36000
v 2.48000 -0.01000 3.36000
v 2.48000 -0.11000 3.36000
f 817 818 819
f 817 819 820
usemtl Reef
v 2.48000 -0.11000 4.64000
v 2.48000 -0.01000 4.64000
v 1.20000 -0.01000 4.64000
v 1.20000 -0.11000 4.64000
f 821 822 823
f 821 823 824
usemtl Reef
v 1.20000 -0.11000 4.64000
v 1.20000 -0.01000 4.64000
v 1.20000 -0.01000 3.36000
v 1.20000 -0.11000 3.36000
f 825 826 827
f 825 827 828
usemtl Reef
v 2.48000 -0.11000 3.36000
v 2.48000 -0.01000 3.36000
v 2.48000 -0.01000 4.64000
v 2.48000 -0.11000 4.64000
f 829 830 831
f 829 831 832
usemtl Reef
v 1.20000 -0.11000 4.64000
v 1.20000 -0.11000 3.36000
v 2.48000 -0.11000 3.36000
v 2.48000 -0.11000 4.64000
f 833 834 835
f 833 835 836
usemtl Reef
v 1.20000 -0.01000 3.36000
v 1.20000 -0.01000 4.64000
v 2.48000 -0.01000 4.64000
v 2.48000 -0.01000 3.36000
f 837 838 839
f 837 839 840
usemtl Reef
v 1.36000 -0.11000 3.52000
v 1.36000 -0.01000 3.52000
v 2.64000 -0.01000 3.52000
v 2.64000 -0.11000 3.52000
f 841 842 843
f 841 843 844
usemtl Reef
v 2.64000 -0.11000 4.80000
v 2.64000 -0.01000 4.80000
v 1.36000 -0.01000 4.80000
v 1.36000 -0.11000 4.80000
f 845 846 847
f 845 847 848
usemtl Reef
v 1.36000 -0.11000 4.80000
v 1.36000 -0.01000 4.80000
v 1.36000 -0.01000 3.52000
v 1.36000 -0.11000 3.52000
f 849 850 851
f 849 851 852
usemtl Reef
v 2.64000 -0.11000 3.52000
v 2.64000 -0.01000 3.52000
v 2.64000 -0.01000 4.80000
v 2.64000 -0.11000 4.80000
f 853 854 855
f 853 855 856
usemtl Reef
v 1.36000 -0.11000 4.80000
v 1.36000 -0.11000 3.52000
v 2.64000 -0.11000 3.52000
v 2.64000 -0.11000 4.80000
f 857 858 859
f 857 859 860
usemtl Reef
v 1.36000 -0.01000 3.52000
v 1.36000 -0.01000 4.80000
v 2.64000 -0.01000 4.80000
v 2.64000 -0.01000 3.52000
f 861 862 863
f 861 863 864
usemtl Reef
v -4.00000 0.02000 -2.30000
v -3.63496 -0.00636 -1.89311
v -3.41452 -0.00636 -2.30000
f 865 866 867
usemtl Reef
v -3.41452 -0.00636 -2.30000
v -3.63496 -0.00636 -1.89311
v -3.48375 -0.07000 -1.72457
v -3.17200 -0.07000 -2.30000
f 868 869 870
f 868 870 871
usemtl Reef
v -3.17200 -0.07000 -2.30000
v -3.48375 -0.07000 -1.72457
v -3.63496 -0.13364 -1.89311
v -3.41452 -0.13364 -2.30000
f 872 873 874
f 872 874 875
usemtl Reef
v -3.41452 -0.13364 -2.30000
v -3.63496 -0.13364 -1.89311
v -4.00000 -0.16000 -2.30000
f 876 877 878
usemtl Reef
v -4.00000 0.02000 -2.30000
v -4.13028 -0.00636 -1.79262
v -3.63496 -0.00636 -1.89311
f 879 880 881
usemtl Reef
v -3.63496 -0.00636 -1.89311
v -4.13028 -0.00636 -1.79262
v -4.18425 -0.07000 -1.58245
v -3.48375 -0.07000 -1.72457
f 882 883 884
f 882 884 885
usemtl Reef
v -3.48375 -0.07000 -1.72457
v -4.18425 -0.07000 -1.58245
v -4.13028 -0.13364 -1.79262
v -3.63496 -0.13364 -1.89311
f 886 887 888
f 886 888 889
usemtl Reef
v -3.63496 -0.13364 -1.89311
v -4.13028 -0.13364 -1.79262
v -4.00000 -0.16000 -2.30000
f 890 891 892
usemtl Reef
v -4.00000 0.02000 -2.30000
v -4.52750 -0.00636 -2.07419
v -4.13028 -0.00636 -1.79262
f 893 894 895
usemtl Reef
v -4.13028 -0.00636 -1.79262
v -4.52750 -0.00636 -2.07419
v -4.74600 -0.07000 -1.98066
v -4.18425 -0.07000 -1.58245
f 896 897 898
f 896 898 899
usemtl Reef
v -4.18425 -0.07000 -1.58245
v -4.74600 -0.07000 -1.98066
v -4.52750 -0.13364 -2.07419
v -4.13028 -0.13364 -1.79262
f 900 901 902
f 900 902 903
usemtl Reef
v -4.13028 -0.13364 -1.79262
v -4.52750 -0.13364 -2.07419
v -4.00000 -0.16000 -2.30000
f 904 905 906
usemtl Reef
v -4.00000 0.02000 -2.30000
v -4.52750 -0.00636 -2.52581
v -4.52750 -0.00636 -2.07419
f 907 908 909
usemtl Reef
v -4.52750 -0.00636 -2.07419
v -4.52750 -0.00636 -2.52581
v -4.74600 -0.07000 -2.61934
v -4.74600 -0.07000 -1.98066
f 910 911 912
f 910 912 913
usemtl Reef
v -4.74600 -0.07000 -1.98066
v -4.74600 -0.07000 -2.61934
v -4.52750 -0.13364 -2.52581
v -4.52750 -0.13364 -2.07419
f 914 915 916
f 914 916 917
usemtl Reef
v -4.52750 -0.13364 -2.07419
v -4.52750 -0.13364 -2.52581
v -4.00000 -0.16000 -2.30000
f 918 919 920
usemtl Reef
v -4.00000 0.02000 -2.30000
v -4.13028 -0.00636 -2.80738
v -4.52750 -0.00636 -2.52581
f 921 922 923
usemtl Reef
v -4.52750 -0.00636 -2.52581
v -4.13028 -0.00636 -2.80738
v -4.18425 -0.07000 -3.01755
v -4.74600 -0.07000 -2.61934
f 924 925 926
f 924 926 927
usemtl Reef
v -4.74600 -0.07000 -2.61934
v -4.18425 -0.07000 -3.01755
v -4.13028 -0.13364 -2.80738
v -4.52750 -0.13364 -2.52581
f 928 929 930
f 928 930 931
usemtl Reef
v -4.52750 -0.13364 -2.52581
v -4.13028 -0.13364 -2.80738
v -4.00000 -0.16000 -2.30000
f 932 933 934
usemtl Reef
v -4.00000 0.02000 -2.30000
v -3.63496 -0.00636 -2.70689
v -4.13028 -0.00636 -2.80738
f 935 936 937
usemtl Reef
v -4.13028 -0.00636 -2.80738
v -3.63496 -0.00636 -2.70689
v -3.48375 -0.07000 -2.87543
v -4.18425 -0.07000 -3.01755
f 938 939 940
f 938 940 941
usemtl Reef
v -4.18425 -0.07000 -3.01755
v -3.48375 -0.07000 -2.87543
v -3.63496 -0.13364 -2.70689
v -4.13028 -0.13364 -2.80738
f 942 943 944
f 942 944 945
usemtl Reef
v -4.13028 -0.13364 -2.80738
v -3.63496 -0.13364 -2.70689
v -4.00000 -0.16000 -2.30000
f 946 947 948
usemtl Reef
v -4.00000 0.02000 -2.30000
v -3.41452 -0.00636 -2.30000
v -3.63496 -0.00636 -2.70689
f 949 950 951
usemtl Reef
v -3.63496 -0.00636 -2.70689
v -3.41452 -0.00636 -2.30000
v -3.17200 -0.07000 -2.30000
v -3.48375 -0.07000 -2.87543
f 952 953 954
f 952 954 955
usemtl Reef
v -3.48375 -0.07000 -2.87543
v -3.17200 -0.07000 -2.30000
v -3.41452 -0.13364 -2.30000
v -3.63496 -0.13364 -2.70689
f 956 957 958
f 956 958 959
usemtl Reef
v -3.63496 -0.13364 -2.70689
v -3.41452 -0.13364 -2.30000
v -4.00000 -0.16000 -2.30000
f 960 961 962
usemtl Reef
v -3.30000 0.02000 -3.50000
v -3.03019 -0.00636 -3.19926
v -2.86725 -0.00636 -3.50000
f 963 964 965
usemtl Reef
v -2.86725 -0.00636 -3.50000
v -3.03019 -0.00636 -3.19926
v -2.91842 -0.07000 -3.07468
v -2.68800 -0.07000 -3.50000
f 966 967 968
f 966 968 969
usemtl Reef
v -2.68800 -0.07000 -3.50000
v -2.91842 -0.07000 -3.07468
v -3.03019 -0.13364 -3.19926
v -2.86725 -0.13364 -3.50000
f 970 971 972
f 970 972 973
usemtl Reef
v -2.86725 -0.13364 -3.50000
v -3.03019 -0.13364 -3.19926
v -3.30000 -0.16000 -3.50000
f 974 975 976
usemtl Reef
v -3.30000 0.02000 -3.50000
v -3.39630 -0.00636 -3.12498
v -3.03019 -0.00636 -3.19926
f 977 978 979
usemtl Reef
v -3.03019 -0.00636 -3.19926
v -3.39630 -0.00636 -3.12498
v -3.43618 -0.07000 -2.96964
v -2.91842 -0.07000 -3.07468
f 980 981 982
f 980 982 983
usemtl Reef
v -2.91842 -0.07000 -3.07468
v -3.43618 -0.07000 -2.96964
v -3.39630 -0.13364 -3.12498
v -3.03019 -0.13364 -3.19926
f 984 985 986
f 984 986 987
usemtl Reef
v -3.03019 -0.13364 -3.19926
v -3.39630 -0.13364 -3.12498
v -3.30000 -0.16000 -3.50000
f 988 989 990
usemtl Reef
v -3.30000 0.02000 -3.50000
v -3.68989 -0.00636 -3.33310
v -3.39630 -0.00636 -3.12498
f 991 992 993
usemtl Reef
v -3.39630 -0.00636 -3.12498
v -3.68989 -0.00636 -3.33310
v -3.85139 -0.07000 -3.26397
v -3.43618 -0.07000 -2.96964
f 994 995 996
f 994 996 997
usemtl Reef
v -3.43618 -0.07000 -2.96964
v -3.85139 -0.07000 -3.26397
v -3.68989 -0.13364 -3.33310
v -3.39630 -0.13364 -3.12498
f 998 999 1000
f 998 1000 1001
usemtl Reef
v -3.39630 -0.13364 -3.12498
v -3.68989 -0.13364 -3.33310
v -3.30000 -0.16000 -3.50000
f 1002 1003 1004
usemtl Reef
v -3.30000 0.02000 -3.50000
v -3.68989 -0.00636 -3.66690
v -3.68989 -0.00636 -3.33310
f 1005 1006 1007
usemtl Reef
v -3.68989 -0.00636 -3.33310
v -3.68989 -0.00636 -3.66690
v -3.85139 -0.07000 -3.73603
v -3.85139 -0.07000 -3.26397
f 1008 1009 1010
f 1008 1010 1011
usemtl Reef
v -3.85139 -0.07000 -3.26397
v -3.85139 -0.07000 -3.73603
v -3.68989 -0.13364 -3.66690
v -3.68989 -0.13364 -3.33310
f 1012 1013 1014
f 1012 1014 1015
usemtl Reef
v -3.68989 -0.13364 -3.33310
v -3.68989 -0.13364 -3.66690
v -3.30000 -0.16000 -3.50000
f 1016 1017 1018
usemtl Reef
v -3.30000 0.02000 -3.50000
v -3.39630 -0.00636 -3.87502
v -3.68989 -0.00636 -3.66690
f 1019 1020 1021
usemtl Reef
v -3.68989 -0.00636 -3.66690
v -3.39630 -0.00636 -3.87502
v -3.43618 -0.07000 -4.03036
v -3.85139 -0.07000 -3.73603
f 1022 1023 1024
f 1022 1024 1025
usemtl Reef
v -3.85139 -0.07000 -3.73603
v -3.43618 -0.07000 -4.03036
v -3.39630 -0.13364 -3.87502
v -3.68989 -0.13364 -3.66690
f 1026 1027 1028
f 1026 1028 1029
usemtl Reef
v -3.68989 -0.13364 -3.66690
v -3.39630 -0.13364 -3.87502
v -3.30000 -0.16000 -3.50000
f 1030 1031 1032
usemtl Reef
v -3.30000 0.02000 -3.50000
v -3.03019 -0.00636 -3.80074
v -3.39630 -0.00636 -3.87502
f 1033 1034 1035
usemtl Reef
v -3.39630 -0.00636 -3.87502
v -3.03019 -0.00636 -3.80074
v -2.91842 -0.07000 -3.92532
v -3.43618 -0.07000 -4.03036
f 1036 1037 1038
f 1036 1038 1039
usemtl Reef
v -3.43618 -0.07000 -4.03036
v -2.91842 -0.07000 -3.92532
v -3.03019 -0.13364 -3.80074
v -3.39630 -0.13364 -3.87502
f 1040 1041 1042
f 1040 1042 1043
usemtl Reef
v -3.39630 -0.13364 -3.87502
v -3.03019 -0.13364 -3.80074
v -3.30000 -0.16000 -3.50000
f 1044 1045 1046
usemtl Reef
v -3.30000 0.02000 -3.50000
v -2.86725 -0.00636 -3.50000
v -3.03019 -0.00636 -3.80074
f 1047 1048 1049
usemtl Reef
v -3.03019 -0.00636 -3.80074
v -2.86725 -0.00636 -3.50000
v -2.68800 -0.07000 -3.50000
v -2.91842 -0.07000 -3.92532
f 1050 1051 1052
f 1050 1052 1053
usemtl Reef
v -2.91842 -0.07000 -3.92532
v -2.68800 -0.07000 -3.50000
v -2.86725 -0.13364 -3.50000
v -3.03019 -0.13364 -3.80074
f 1054 1055 1056
f 1054 1056 1057
usemtl Reef
v -3.03019 -0.13364 -3.80074
v -2.86725 -0.13364 -3.50000
v -3.30000 -0.16000 -3.50000
f 1058 1059 1060
usemtl Reef
v -1.80000 0.02000 -3.80000
v -1.56193 -0.00636 -3.53464
v -1.41816 -0.00636 -3.80000
f 1061 1062 1063
usemtl Reef
v -1.41816 -0.00636 -3.80000
v -1.56193 -0.00636 -3.53464
v -1.46332 -0.07000 -3.42472
v -1.26000 -0.07000 -3.80000
f 1064 1065 1066
f 1064 1066 1067
usemtl Reef
v -1.26000 -0.07000 -3.80000
v -1.46332 -0.07000 -3.42472
v -1.56193 -0.13364 -3.53464
v -1.41816 -0.13364 -3.80000
f 1068 1069 1070
f 1068 1070 1071
usemtl Reef
v -1.41816 -0.13364 -3.80000
v -1.56193 -0.13364 -3.53464
v -1.80000 -0.16000 -3.80000
f 1072 1073 1074
usemtl Reef
v -1.80000 0.02000 -3.80000
v -1.88497 -0.00636 -3.46910
v -1.56193 -0.00636 -3.53464
f 1075 1076 1077
usemtl Reef
v -1.56193 -0.00636 -3.53464
v -1.88497 -0.00636 -3.46910
v -1.92016 -0.07000 -3.33203
v -1.46332 -0.07000 -3.42472
f 1078 1079 1080
f 1078 1080 1081
usemtl Reef
v -1.46332 -0.07000 -3.42472
v -1.92016 -0.07000 -3.33203
v -1.88497 -0.13364 -3.46910
v -1.56193 -0.13364 -3.53464
f 1082 1083 1084
f 1082 1084 1085
usemtl Reef
v -1.56193 -0.13364 -3.53464
v -1.88497 -0.13364 -3.46910
v -1.80000 -0.16000 -3.80000
f 1086 1087 1088
usemtl Reef
v -1.80000 0.02000 -3.80000
v -2.14402 -0.00636 -3.65273
v -1.88497 -0.00636 -3.46910
f 1089 1090 1091
usemtl Reef
v -1.88497 -0.00636 -3.46910
v -2.14402 -0.00636 -3.65273
v -2.28652 -0.07000 -3.59174
v -1.92016 -0.07000 -3.33203
f 1092 1093 1094
f 1092 1094 1095
usemtl Reef
v -1.92016 -0.07000 -3.33203
v -2.28652 -0.07000 -3.59174
v -2.14402 -0.13364 -3.65273
v -1.88497 -0.13364 -3.46910
f 1096 1097 1098
f 1096 1098 1099
usemtl Reef
v -1.88497 -0.13364 -3.46910
v -2.14402 -0.13364 -3.65273
v -1.80000 -0.16000 -3.80000
f 1100 1101 1102
usemtl Reef
v -1.80000 0.02000 -3.80000
v -2.14402 -0.00636 -3.94727
v -2.14402 -0.00636 -3.65273
f 1103 1104 1105
usemtl Reef
v -2.14402 -0.00636 -3.65273
v -2.14402 -0.00636 -3.94727
v -2.28652 -0.07000 -4.00826
v -2.28652 -0.07000 -3.59174
f 1106 1107 1108
f 1106 1108 1109
usemtl Reef
v -2.28652 -0.07000 -3.59174
v -2.28652 -0.07000 -4.00826
v -2.14402 -0.13364 -3.94727
v -2.14402 -0.13364 -3.65273
f 1110 1111 1112
f 1110 1112 1113
usemtl Reef
v -2.14402 -0.13364 -3.65273
v -2.14402 -0.13364 -3.94727
v -1.80000 -0.16000 -3.80000
f 1114 1115 1116
usemtl Reef
v -1.80000 0.02000 -3.80000
v -1.88497 -0.00636 -4.13090
v -2.14402 -0.00636 -3.94727
f 1117 1118 1119
usemtl Reef
v -2.14402 -0.00636 -3.94727
v -1.88497 -0.00636 -4.13090
v -1.92016 -0.07000 -4.26797
v -2.28652 -0.07000 -4.00826
f 1120 1121 1122
f 1120 1122 1123
usemtl Reef
v -2.28652 -0.07000 -4.00826
v -1.92016 -0.07000 -4.26797
v -1.88497 -0.13364 -4.13090
v -2.14402 -0.13364 -3.94727
f 1124 1125 1126
f 1124 1126 1127
usemtl Reef
v -2.14402 -0.13364 -3.94727
v -1.88497 -0.13364 -4.13090
v -1.80000 -0.16000 -3.80000
f 1128 1129 1130
usemtl Reef
v -1.80000 0.02000 -3.80000
v -1.56193 -0.00636 -4.06536
v -1.88497 -0.00636 -4.13090
f 1131 1132 1133
usemtl Reef
v -1.88497 -0.00636 -4.13090
v -1.56193 -0.00636 -4.06536
v -1.46332 -0.07000 -4.17528
v -1.92016 -0.07000 -4.26797
f 1134 1135 1136
f 1134 1136 1137
usemtl Reef
v -1.92016 -0.07000 -4.26797
v -1.46332 -0.07000 -4.17528
v -1.56193 -0.13364 -4.06536
v -1.88497 -0.13364 -4.13090
f 1138 1139 1140
f 1138 1140 1141
usemtl Reef
v -1.88497 -0.13364 -4.13090
v -1.56193 -0.13364 -4.06536
v -1.80000 -0.16000 -3.80000
f 1142 1143 1144
usemtl Reef
v -1.80000 0.02000 -3.80000
v -1.41816 -0.00636 -3.80000
v -1.56193 -0.00636 -4.06536
f 1145 1146 1147
usemtl Reef
v -1.56193 -0.00636 -4.06536
v -1.41816 -0.00636 -3.80000
v -1.26000 -0.07000 -3.80000
v -1.46332 -0.07000 -4.17528
f 1148 1149 1150
f 1148 1150 1151
usemtl Reef
v -1.46332 -0.07000 -4.17528
v -1.26000 -0.07000 -3.80000
v -1.41816 -0.13364 -3.80000
v -1.56193 -0.13364 -4.06536
f 1152 1153 1154
f 1152 1154 1155
usemtl Reef
v -1.56193 -0.13364 -4.06536
v -1.41816 -0.13364 -3.80000
v -1.80000 -0.16000 -3.80000
f 1156 1157 1158
usemtl Reef
v -0.15000 0.02000 -3.40000
v 0.15156 -0.00636 -3.06387
v 0.33366 -0.00636 -3.40000
f 1159 1160 1161
usemtl Reef
v 0.33366 -0.00636 -3.40000
v 0.15156 -0.00636 -3.06387
v 0.27647 -0.07000 -2.92465
v 0.53400 -0.07000 -3.40000
f 1162 1163 1164
f 1162 1164 1165
usemtl Reef
v 0.53400 -0.07000 -3.40000
v 0.27647 -0.07000 -2.92465
v 0.15156 -0.13364 -3.06387
v 0.33366 -0.13364 -3.40000
f 1166 1167 1168
f 1166 1168 1169
usemtl Reef
v 0.33366 -0.13364 -3.40000
v 0.15156 -0.13364 -3.06387
v -0.15000 -0.16000 -3.40000
f 1170 1171 1172
usemtl Reef
v -0.15000 0.02000 -3.40000
v -0.25762 -0.00636 -2.98086
v 0.15156 -0.00636 -3.06387
f 1173 1174 1175
usemtl Reef
v 0.15156 -0.00636 -3.06387
v -0.25762 -0.00636 -2.98086
v -0.30220 -0.07000 -2.80724
v 0.27647 -0.07000 -2.92465
f 1176 1177 1178
f 1176 1178 1179
usemtl Reef
v 0.27647 -0.07000 -2.92465
v -0.30220 -0.07000 -2.80724
v -0.25762 -0.13364 -2.98086
v 0.15156 -0.13364 -3.06387
f 1180 1181 1182
f 1180 1182 1183
usemtl Reef
v 0.15156 -0.13364 -3.06387
v -0.25762 -0.13364 -2.98086
v -0.15000 -0.16000 -3.40000
f 1184 1185 1186
usemtl Reef
v -0.15000 0.02000 -3.40000
v -0.58576 -0.00636 -3.21346
v -0.25762 -0.00636 -2.98086
f 1187 1188 1189
usemtl Reef
v -0.25762 -0.00636 -2.98086
v -0.58576 -0.00636 -3.21346
v -0.76626 -0.07000 -3.13620
v -0.30220 -0.07000 -2.80724
f 1190 1191 1192
f 1190 1192 1193
usemtl Reef
v -0.30220 -0.07000 -2.80724
v -0.76626 -0.07000 -3.13620
v -0.58576 -0.13364 -3.21346
v -0.25762 -0.13364 -2.98086
f 1194 1195 1196
f 1194 1196 1197
usemtl Reef
v -0.25762 -0.13364 -2.98086
v -0.58576 -0.13364 -3.21346
v -0.15000 -0.16000 -3.40000
f 1198 1199 1200
usemtl Reef
v -0.15000 0.02000 -3.40000
v -0.58576 -0.00636 -3.58654
v -0.58576 -0.00636 -3.21346
f 1201 1202 1203
usemtl Reef
v -0.58576 -0.00636 -3.21346
v -0.58576 -0.00636 -3.58654
v -0.76626 -0.07000 -3.66380
v -0.76626 -0.07000 -3.13620
f 1204 1205 1206
f 1204 1206 1207
usemtl Reef
v -0.76626 -0.07000 -3.13620
v -0.76626 -0.07000 -3.66380
v -0.58576 -0.13364 -3.58654
v -0.58576 -0.13364 -3.21346
f 1208 1209 1210
f 1208 1210 1211
usemtl Reef
v -0.58576 -0.13364 -3.21346
v -0.58576 -0.13364 -3.58654
v -0.15000 -0.16000 -3.40000
f 1212 1213 1214
usemtl Reef
v -0.15000 0.02000 -3.40000
v -0.25762 -0.00636 -3.81914
v -0.58576 -0.00636 -3.58654
f 1215 1216 1217
usemtl Reef
v -0.58576 -0.00636 -3.58654
v -0.25762 -0.00636 -3.81914
v -0.30220 -0.07000 -3.99276
v -0.76626 -0.07000 -3.66380
f 1218 1219 1220
f 1218 1220 1221
usemtl Reef
v -0.76626 -0.07000 -3.66380
v -0.30220 -0.07000 -3.99276
v -0.25762 -0.13364 -3.81914
v -0.58576 -0.13364 -3.58654
f 1222 1223 1224
f 1222 1224 1225
usemtl Reef
v -0.58576 -0.13364 -3.58654
v -0.25762 -0.13364 -3.81914
v -0.15000 -0.16000 -3.40000
f 1226 1227 1228
usemtl Reef
v -0.15000 0.02000 -3.40000
v 0.15156 -0.00636 -3.73613
v -0.25762 -0.00636 -3.81914
f 1229 1230 1231
usemtl Reef
v -0.25762 -0.00636 -3.81914
v 0.15156 -0.00636 -3.73613
v 0.27647 -0.07000 -3.87535
v -0.30220 -0.07000 -3.99276
f 1232 1233 1234
f 1232 1234 1235
usemtl Reef
v -0.30220 -0.07000 -3.99276
v 0.27647 -0.07000 -3.87535
v 0.15156 -0.13364 -3.73613
v -0.25762 -0.13364 -3.81914
f 1236 1237 1238
f 1236 1238 1239
usemtl Reef
v -0.25762 -0.13364 -3.81914
v 0.15156 -0.13364 -3.73613
v -0.15000 -0.16000 -3.40000
f 1240 1241 1242
usemtl Reef
v -0.15000 0.02000 -3.40000
v 0.33366 -0.00636 -3.40000
v 0.15156 -0.00636 -3.73613
f 1243 1244 1245
usemtl Reef
v 0.15156 -0.00636 -3.73613
v 0.33366 -0.00636 -3.40000
v 0.53400 -0.07000 -3.40000
v 0.27647 -0.07000 -3.87535
f 1246 1247 1248
f 1246 1248 1249
usemtl Reef
v 0.27647 -0.07000 -3.87535
v 0.53400 -0.07000 -3.40000
v 0.33366 -0.13364 -3.40000
v 0.15156 -0.13364 -3.73613
f 1250 1251 1252
f 1250 1252 1253
usemtl Reef
v 0.15156 -0.13364 -3.73613
v 0.33366 -0.13364 -3.40000
v -0.15000 -0.16000 -3.40000
f 1254 1255 1256
usemtl Reef
v 1.55000 0.02000 -3.80000
v 1.88330 -0.00636 -3.42849
v 2.08457 -0.00636 -3.80000
f 1257 1258 1259
usemtl Reef
v 2.08457 -0.00636 -3.80000
v 1.88330 -0.00636 -3.42849
v 2.02136 -0.07000 -3.27461
v 2.30600 -0.07000 -3.80000
f 1260 1261 1262
f 1260 1262 1263
usemtl Reef
v 2.30600 -0.07000 -3.80000
v 2.02136 -0.07000 -3.27461
v 1.88330 -0.13364 -3.42849
v 2.08457 -0.13364 -3.80000
f 1264 1265 1266
f 1264 1266 1267
usemtl Reef
v 2.08457 -0.13364 -3.80000
v 1.88330 -0.13364 -3.42849
v 1.55000 -0.16000 -3.80000
f 1268 1269 1270
usemtl Reef
v 1.55000 0.02000 -3.80000
v 1.43105 -0.00636 -3.33674
v 1.88330 -0.00636 -3.42849
f 1271 1272 1273
usemtl Reef
v 1.88330 -0.00636 -3.42849
v 1.43105 -0.00636 -3.33674
v 1.38177 -0.07000 -3.14485
v 2.02136 -0.07000 -3.27461
f 1274 1275 1276
f 1274 1276 1277
usemtl Reef
v 2.02136 -0.07000 -3.27461
v 1.38177 -0.07000 -3.14485
v 1.43105 -0.13364 -3.33674
v 1.88330 -0.13364 -3.42849
f 1278 1279 1280
f 1278 1280 1281
usemtl Reef
v 1.88330 -0.13364 -3.42849
v 1.43105 -0.13364 -3.33674
v 1.55000 -0.16000 -3.80000
f 1282 1283 1284
usemtl Reef
v 1.55000 0.02000 -3.80000
v 1.06837 -0.00636 -3.59383
v 1.43105 -0.00636 -3.33674
f 1285 1286 1287
usemtl Reef
v 1.43105 -0.00636 -3.33674
v 1.06837 -0.00636 -3.59383
v 0.86887 -0.07000 -3.50843
v 1.38177 -0.07000 -3.14485
f 1288 1289 1290
f 1288 1290 1291
usemtl Reef
v 1.38177 -0.07000 -3.14485
v 0.86887 -0.07000 -3.50843
v 1.06837 -0.13364 -3.59383
v 1.43105 -0.13364 -3.33674
f 1292 1293 1294
f 1292 1294 1295
usemtl Reef
v 1.43105 -0.13364 -3.33674
v 1.06837 -0.13364 -3.59383
v 1.55000 -0.16000 -3.80000
f 1296 1297 1298
usemtl Reef
v 1.55000 0.02000 -3.80000
v 1.06837 -0.00636 -4.00617
v 1.06837 -0.00636 -3.59383
f 1299 1300 1301
usemtl Reef
v 1.06837 -0.00636 -3.59383
v 1.06837 -0.00636 -4.00617
v 0.86887 -0.07000 -4.09157
v 0.86887 -0.07000 -3.50843
f 1302 1303 1304
f 1302 1304 1305
usemtl Reef
v 0.86887 -0.07000 -3.50843
v 0.86887 -0.07000 -4.09157
v 1.06837 -0.13364 -4.00617
v 1.06837 -0.13364 -3.59383
f 1306 1307 1308
f 1306 1308 1309
usemtl Reef
v 1.06837 -0.13364 -3.59383
v 1.06837 -0.13364 -4.00617
v 1.55000 -0.16000 -3.80000
f 1310 1311 1312
usemtl Reef
v 1.55000 0.02000 -3.80000
v 1.43105 -0.00636 -4.26326
v 1.06837 -0.00636 -4.00617
f 1313 1314 1315
usemtl Reef
v 1.06837 -0.00636 -4.00617
v 1.43105 -0.00636 -4.26326
v 1.38177 -0.07000 -4.45515
v 0.86887 -0.07000 -4.09157
f 1316 1317 1318
f 1316 1318 1319
usemtl Reef
v 0.86887 -0.07000 -4.09157
v 1.38177 -0.07000 -4.45515
v 1.43105 -0.13364 -4.26326
v 1.06837 -0.13364 -4.00617
f 1320 1321 1322
f 1320 1322 1323
usemtl Reef
v 1.06837 -0.13364 -4.00617
v 1.43105 -0.13364 -4.26326
v 1.55000 -0.16000 -3.80000
f 1324 1325 1326
usemtl Reef
v 1.55000 0.02000 -3.80000
v 1.88330 -0.00636 -4.17151
v 1.43105 -0.00636 -4.26326
f 1327 1328 1329
usemtl Reef
v 1.43105 -0.00636 -4.26326
v 1.88330 -0.00636 -4.17151
v 2.02136 -0.07000 -4.32539
v 1.38177 -0.07000 -4.45515
f 1330 1331 1332
f 1330 1332 1333
usemtl Reef
v 1.38177 -0.07000 -4.45515
v 2.02136 -0.07000 -4.32539
v 1.88330 -0.13364 -4.17151
v 1.43105 -0.13364 -4.26326
f 1334 1335 1336
f 1334 1336 1337
usemtl Reef
v 1.43105 -0.13364 -4.26326
v 1.88330 -0.13364 -4.17151
v 1.55000 -0.16000 -3.80000
f 1338 1339 1340
usemtl Reef
v 1.55000 0.02000 -3.80000
v 2.08457 -0.00636 -3.80000
v 1.88330 -0.00636 -4.17151
f 1341 1342 1343
usemtl Reef
v 1.88330 -0.00636 -4.17151
v 2.08457 -0.00636 -3.80000
v 2.30600 -0.07000 -3.80000
v 2.02136 -0.07000 -4.32539
f 1344 1345 1346
f 1344 1346 1347
usemtl Reef
v 2.02136 -0.07000 -4.32539
v 2.30600 -0.07000 -3.80000
v 2.08457 -0.13364 -3.80000
v 1.88330 -0.13364 -4.17151
f 1348 1349 1350
f 1348 1350 1351
usemtl Reef
v 1.88330 -0.13364 -4.17151
v 2.08457 -0.13364 -3.80000
v 1.55000 -0.16000 -3.80000
f 1352 1353 1354
usemtl Reef
v 3.10000 0.02000 -2.70000
v 3.36981 -0.00636 -2.39926
v 3.53275 -0.00636 -2.70000
f 1355 1356 1357
usemtl Reef
v 3.53275 -0.00636 -2.70000
v 3.36981 -0.00636 -2.39926
v 3.48158 -0.07000 -2.27468
v 3.71200 -0.07000 -2.70000
f 1358 1359 1360
f 1358 1360 1361
usemtl Reef
v 3.71200 -0.07000 -2.70000
v 3.48158 -0.07000 -2.27468
v 3.36981 -0.13364 -2.39926
v 3.53275 -0.13364 -2.70000
f 1362 1363 1364
f 1362 1364 1365
usemtl Reef
v 3.53275 -0.13364 -2.70000
v 3.36981 -0.13364 -2.39926
v 3.10000 -0.16000 -2.70000
f 1366 1367 1368
usemtl Reef
v 3.10000 0.02000 -2.70000
v 3.00370 -0.00636 -2.32498
v 3.36981 -0.00636 -2.39926
f 1369 1370 1371
usemtl Reef
v 3.36981 -0.00636 -2.39926
v 3.00370 -0.00636 -2.32498
v 2.96382 -0.07000 -2.16964
v 3.48158 -0.07000 -2.27468
f 1372 1373 1374
f 1372 1374 1375
usemtl Reef
v 3.48158 -0.07000 -2.27468
v 2.96382 -0.07000 -2.16964
v 3.00370 -0.13364 -2.32498
v 3.36981 -0.13364 -2.39926
f 1376 1377 1378
f 1376 1378 1379
usemtl Reef
v 3.36981 -0.13364 -2.39926
v 3.00370 -0.13364 -2.32498
v 3.10000 -0.16000 -2.70000
f 1380 1381 1382
usemtl Reef
v 3.10000 0.02000 -2.70000
v 2.71011 -0.00636 -2.53310
v 3.00370 -0.00636 -2.32498
f 1383 1384 1385
usemtl Reef
v 3.00370 -0.00636 -2.32498
v 2.71011 -0.00636 -2.53310
v 2.54861 -0.07000 -2.46397
v 2.96382 -0.07000 -2.16964
f 1386 1387 1388
f 1386 1388 1389
usemtl Reef
v 2.96382 -0.07000 -2.16964
v 2.54861 -0.07000 -2.46397
v 2.71011 -0.13364 -2.53310
v 3.00370 -0.13364 -2.32498
f 1390 1391 1392
f 1390 1392 1393
usemtl Reef
v 3.00370 -0.13364 -2.32498
v 2.71011 -0.13364 -2.53310
v 3.10000 -0.16000 -2.70000
f 1394 1395 1396
usemtl Reef
v 3.10000 0.02000 -2.70000
v 2.71011 -0.00636 -2.86690
v 2.71011 -0.00636 -2.53310
f 1397 1398 1399
usemtl Reef
v 2.71011 -0.00636 -2.53310
v 2.71011 -0.00636 -2.86690
v 2.54861 -0.07000 -2.93603
v 2.54861 -0.07000 -2.46397
f 1400 1401 1402
f 1400 1402 1403
usemtl Reef
v 2.54861 -0.07000 -2.46397
v 2.54861 -0.07000 -2.93603
v 2.71011 -0.13364 -2.86690
v 2.71011 -0.13364 -2.53310
f 1404 1405 1406
f 1404 1406 1407
usemtl Reef
v 2.71011 -0.13364 -2.53310
v 2.71011 -0.13364 -2.86690
v 3.10000 -0.16000 -2.70000
f 1408 1409 1410
usemtl Reef
v 3.10000 0.02000 -2.70000
v 3.00370 -0.00636 -3.07502
v 2.71011 -0.00636 -2.86690
f 1411 1412 1413
usemtl Reef
v 2.71011 -0.00636 -2.86690
v 3.00370 -0.00636 -3.07502
v 2.96382 -0.07000 -3.23036
v 2.54861 -0.07000 -2.93603
f 1414 1415 1416
f 1414 1416 1417
usemtl Reef
v 2.54861 -0.07000 -2.93603
v 2.96382 -0.07000 -3.23036
v 3.00370 -0.13364 -3.07502
v 2.71011 -0.13364 -2.86690
f 1418 1419 1420
f 1418 1420 1421
usemtl Reef
v 2.71011 -0.13364 -2.86690
v 3.00370 -0.13364 -3.07502
v 3.10000 -0.16000 -2.70000
f 1422 1423 1424
usemtl Reef
v 3.10000 0.02000 -2.70000
v 3.36981 -0.00636 -3.00074
v 3.00370 -0.00636 -3.07502
f 1425 1426 1427
usemtl Reef
v 3.00370 -0.00636 -3.07502
v 3.36981 -0.00636 -3.00074
v 3.48158 -0.07000 -3.12532
v 2.96382 -0.07000 -3.23036
f 1428 1429 1430
f 1428 1430 1431
usemtl Reef
v 2.96382 -0.07000 -3.23036
v 3.48158 -0.07000 -3.12532
v 3.36981 -0.13364 -3.00074
v 3.00370 -0.13364 -3.07502
f 1432 1433 1434
f 1432 1434 1435
usemtl Reef
v 3.00370 -0.13364 -3.07502
v 3.36981 -0.13364 -3.00074
v 3.10000 -0.16000 -2.70000
f 1436 1437 1438
usemtl Reef
v 3.10000 0.02000 -2.70000
v 3.53275 -0.00636 -2.70000
v 3.36981 -0.00636 -3.00074
f 1439 1440 1441
usemtl Reef
v 3.36981 -0.00636 -3.00074
v 3.53275 -0.00636 -2.70000
v 3.71200 -0.07000 -2.70000
v 3.48158 -0.07000 -3.12532
f 1442 1443 1444
f 1442 1444 1445
usemtl Reef
v 3.48158 -0.07000 -3.12532
v 3.71200 -0.07000 -2.70000
v 3.53275 -0.13364 -2.70000
v 3.36981 -0.13364 -3.00074
f 1446 1447 1448
f 1446 1448 1449
usemtl Reef
v 3.36981 -0.13364 -3.00074
v 3.53275 -0.13364 -2.70000
v 3.10000 -0.16000 -2.70000
f 1450 1451 1452
usemtl Reef
v 4.10000 0.02000 -1.20000
v 4.44124 -0.00636 -0.81965
v 4.64730 -0.00636 -1.20000
f 1453 1454 1455
usemtl Reef
v 4.64730 -0.00636 -1.20000
v 4.44124 -0.00636 -0.81965
v 4.58258 -0.07000 -0.66210
v 4.87400 -0.07000 -1.20000
f 1456 1457 1458
f 1456 1458 1459
usemtl Reef
v 4.87400 -0.07000 -1.20000
v 4.58258 -0.07000 -0.66210
v 4.44124 -0.13364 -0.81965
v 4.64730 -0.13364 -1.20000
f 1460 1461 1462
f 1460 1462 1463
usemtl Reef
v 4.64730 -0.13364 -1.20000
v 4.44124 -0.13364 -0.81965
v 4.10000 -0.16000 -1.20000
f 1464 1465 1466
usemtl Reef
v 4.10000 0.02000 -1.20000
v 3.97821 -0.00636 -0.72571
v 4.44124 -0.00636 -0.81965
f 1467 1468 1469
usemtl Reef
v 4.44124 -0.00636 -0.81965
v 3.97821 -0.00636 -0.72571
v 3.92777 -0.07000 -0.52925
v 4.58258 -0.07000 -0.66210
f 1470 1471 1472
f 1470 1472 1473
usemtl Reef
v 4.58258 -0.07000 -0.66210
v 3.92777 -0.07000 -0.52925
v 3.97821 -0.13364 -0.72571
v 4.44124 -0.13364 -0.81965
f 1474 1475 1476
f 1474 1476 1477
usemtl Reef
v 4.44124 -0.13364 -0.81965
v 3.97821 -0.13364 -0.72571
v 4.10000 -0.16000 -1.20000
f 1478 1479 1480
usemtl Reef
v 4.10000 0.02000 -1.20000
v 3.60690 -0.00636 -0.98892
v 3.97821 -0.00636 -0.72571
f 1481 1482 1483
usemtl Reef
v 3.97821 -0.00636 -0.72571
v 3.60690 -0.00636 -0.98892
v 3.40265 -0.07000 -0.90149
v 3.92777 -0.07000 -0.52925
f 1484 1485 1486
f 1484 1486 1487
usemtl Reef
v 3.92777 -0.07000 -0.52925
v 3.40265 -0.07000 -0.90149
v 3.60690 -0.13364 -0.98892
v 3.97821 -0.13364 -0.72571
f 1488 1489 1490
f 1488 1490 1491
usemtl Reef
v 3.97821 -0.13364 -0.72571
v 3.60690 -0.13364 -0.98892
v 4.10000 -0.16000 -1.20000
f 1492 1493 1494
usemtl Reef
v 4.10000 0.02000 -1.20000
v 3.60690 -0.00636 -1.41108
v 3.60690 -0.00636 -0.98892
f 1495 1496 1497
usemtl Reef
v 3.60690 -0.00636 -0.98892
v 3.60690 -0.00636 -1.41108
v 3.40265 -0.07000 -1.49851
v 3.40265 -0.07000 -0.90149
f 1498 1499 1500
f 1498 1500 1501
usemtl Reef
v 3.40265 -0.07000 -0.90149
v 3.40265 -0.07000 -1.49851
v 3.60690 -0.13364 -1.41108
v 3.60690 -0.13364 -0.98892
f 1502 1503 1504
f 1502 1504 1505
usemtl Reef
v 3.60690 -0.13364 -0.98892
v 3.60690 -0.13364 -1.41108
v 4.10000 -0.16000 -1.20000
f 1506 1507 1508
usemtl Reef
v 4.10000 0.02000 -1.20000
v 3.97821 -0.00636 -1.67429
v 3.60690 -0.00636 -1.41108
f 1509 1510 1511
usemtl Reef
v 3.60690 -0.00636 -1.41108
v 3.97821 -0.00636 -1.67429
v 3.92777 -0.07000 -1.87075
v 3.40265 -0.07000 -1.49851
f 1512 1513 1514
f 1512 1514 1515
usemtl Reef
v 3.40265 -0.07000 -1.49851
v 3.92777 -0.07000 -1.87075
v 3.97821 -0.13364 -1.67429
v 3.60690 -0.13364 -1.41108
f 1516 1517 1518
f 1516 1518 1519
usemtl Reef
v 3.60690 -0.13364 -1.41108
v 3.97821 -0.13364 -1.67429
v 4.10000 -0.16000 -1.20000
f 1520 1521 1522
usemtl Reef
v 4.10000 0.02000 -1.20000
v 4.44124 -0.00636 -1.58035
v 3.97821 -0.00636 -1.67429
f 1523 1524 1525
usemtl Reef
v 3.97821 -0.00636 -1.67429
v 4.44124 -0.00636 -1.58035
v 4.58258 -0.07000 -1.73790
v 3.92777 -0.07000 -1.87075
f 1526 1527 1528
f 1526 1528 1529
usemtl Reef
v 3.92777 -0.07000 -1.87075
v 4.58258 -0.07000 -1.73790
v 4.44124 -0.13364 -1.58035
v 3.97821 -0.13364 -1.67429
f 1530 1531 1532
f 1530 1532 1533
usemtl Reef
v 3.97821 -0.13364 -1.67429
v 4.44124 -0.13364 -1.58035
v 4.10000 -0.16000 -1.20000
f 1534 1535 1536
usemtl Reef
v 4.10000 0.02000 -1.20000
v 4.64730 -0.00636 -1.20000
v 4.44124 -0.00636 -1.58035
f 1537 1538 1539
usemtl Reef
v 4.44124 -0.00636 -1.58035
v 4.64730 -0.00636 -1.20000
v 4.87400 -0.07000 -1.20000
v 4.58258 -0.07000 -1.73790
f 1540 1541 1542
f 1540 1542 1543
usemtl Reef
v 4.58258 -0.07000 -1.73790
v 4.87400 -0.07000 -1.20000
v 4.64730 -0.13364 -1.20000
v 4.44124 -0.13364 -1.58035
f 1544 1545 1546
f 1544 1546 1547
usemtl Reef
v 4.44124 -0.13364 -1.58035
v 4.64730 -0.13364 -1.20000
v 4.10000 -0.16000 -1.20000
f 1548 1549 1550
usemtl Reef
v 4.60000 0.02000 1.20000
v 4.86188 -0.00636 1.49190
v 5.02002 -0.00636 1.20000
f 1551 1552 1553
usemtl Reef
v 5.02002 -0.00636 1.20000
v 4.86188 -0.00636 1.49190
v 4.97035 -0.07000 1.61281
v 5.19400 -0.07000 1.20000
f 1554 1555 1556
f 1554 1556 1557
usemtl Reef
v 5.19400 -0.07000 1.20000
v 4.97035 -0.07000 1.61281
v 4.86188 -0.13364 1.49190
v 5.02002 -0.13364 1.20000
f 1558 1559 1560
f 1558 1560 1561
usemtl Reef
v 5.02002 -0.13364 1.20000
v 4.86188 -0.13364 1.49190
v 4.60000 -0.16000 1.20000
f 1562 1563 1564
usemtl Reef
v 4.60000 0.02000 1.20000
v 4.50654 -0.00636 1.56399
v 4.86188 -0.00636 1.49190
f 1565 1566 1567
usemtl Reef
v 4.86188 -0.00636 1.49190
v 4.50654 -0.00636 1.56399
v 4.46782 -0.07000 1.71476
v 4.97035 -0.07000 1.61281
f 1568 1569 1570
f 1568 1570 1571
usemtl Reef
v 4.97035 -0.07000 1.61281
v 4.46782 -0.07000 1.71476
v 4.50654 -0.13364 1.56399
v 4.86188 -0.13364 1.49190
f 1572 1573 1574
f 1572 1574 1575
usemtl Reef
v 4.86188 -0.13364 1.49190
v 4.50654 -0.13364 1.56399
v 4.60000 -0.16000 1.20000
f 1576 1577 1578
usemtl Reef
v 4.60000 0.02000 1.20000
v 4.22157 -0.00636 1.36199
v 4.50654 -0.00636 1.56399
f 1579 1580 1581
usemtl Reef
v 4.50654 -0.00636 1.56399
v 4.22157 -0.00636 1.36199
v 4.06482 -0.07000 1.42909
v 4.46782 -0.07000 1.71476
f 1582 1583 1584
f 1582 1584 1585
usemtl Reef
v 4.46782 -0.07000 1.71476
v 4.06482 -0.07000 1.42909
v 4.22157 -0.13364 1.36199
v 4.50654 -0.13364 1.56399
f 1586 1587 1588
f 1586 1588 1589
usemtl Reef
v 4.50654 -0.13364 1.56399
v 4.22157 -0.13364 1.36199
v 4.60000 -0.16000 1.20000
f 1590 1591 1592
usemtl Reef
v 4.60000 0.02000 1.20000
v 4.22157 -0.00636 1.03801
v 4.22157 -0.00636 1.36199
f 1593 1594 1595
usemtl Reef
v 4.22157 -0.00636 1.36199
v 4.22157 -0.00636 1.03801
v 4.06482 -0.07000 0.97091
v 4.06482 -0.07000 1.42909
f 1596 1597 1598
f 1596 1598 1599
usemtl Reef
v 4.06482 -0.07000 1.42909
v 4.06482 -0.07000 0.97091
v 4.22157 -0.13364 1.03801
v 4.22157 -0.13364 1.36199
f 1600 1601 1602
f 1600 1602 1603
usemtl Reef
v 4.22157 -0.13364 1.36199
v 4.22157 -0.13364 1.03801
v 4.60000 -0.16000 1.20000
f 1604 1605 1606
usemtl Reef
v 4.60000 0.02000 1.20000
v 4.50654 -0.00636 0.83601
v 4.22157 -0.00636 1.03801
f 1607 1608 1609
usemtl Reef
v 4.22157 -0.00636 1.03801
v 4.50654 -0.00636 0.83601
v 4.46782 -0.07000 0.68524
v 4.06482 -0.07000 0.97091
f 1610 1611 1612
f 1610 1612 1613
usemtl Reef
v 4.06482 -0.07000 0.97091
v 4.46782 -0.07000 0.68524
v 4.50654 -0.13364 0.83601
v 4.22157 -0.13364 1.03801
f 1614 1615 1616
f 1614 1616 1617
usemtl Reef
v 4.22157 -0.13364 1.03801
v 4.50654 -0.13364 0.83601
v 4.60000 -0.16000 1.20000
f 1618 1619 1620
usemtl Reef
v 4.60000 0.02000 1.20000
v 4.86188 -0.00636 0.90810
v 4.50654 -0.00636 0.83601
f 1621 1622 1623
usemtl Reef
v 4.50654 -0.00636 0.83601
v 4.86188 -0.00636 0.90810
v 4.97035 -0.07000 0.78719
v 4.46782 -0.07000 0.68524
f 1624 1625 1626
f 1624 1626 1627
usemtl Reef
v 4.46782 -0.07000 0.68524
v 4.97035 -0.07000 0.78719
v 4.86188 -0.13364 0.90810
v 4.50654 -0.13364 0.83601
f 1628 1629 1630
f 1628 1630 1631
usemtl Reef
v 4.50654 -0.13364 0.83601
v 4.86188 -0.13364 0.90810
v 4.60000 -0.16000 1.20000
f 1632 1633 1634
usemtl Reef
v 4.60000 0.02000 1.20000
v 5.02002 -0.00636 1.20000
v 4.86188 -0.00636 0.90810
f 1635 1636 1637
usemtl Reef
v 4.86188 -0.00636 0.90810
v 5.02002 -0.00636 1.20000
v 5.19400 -0.07000 1.20000
v 4.97035 -0.07000 0.78719
f 1638 1639 1640
f 1638 1640 1641
usemtl Reef
v 4.97035 -0.07000 0.78719
v 5.19400 -0.07000 1.20000
v 5.02002 -0.13364 1.20000
v 4.86188 -0.13364 0.90810
f 1642 1643 1644
f 1642 1644 1645
usemtl Reef
v 4.86188 -0.13364 0.90810
v 5.02002 -0.13364 1.20000
v 4.60000 -0.16000 1.20000
f 1646 1647 1648
usemtl Reef
v -4.60000 0.02000 0.00000
v -4.38574 -0.00636 0.23883
v -4.25635 -0.00636 0.00000
f 1649 1650 1651
usemtl Reef
v -4.25635 -0.00636 0.00000
v -4.38574 -0.00636 0.23883
v -4.29698 -0.07000 0.33775
v -4.11400 -0.07000 0.00000
f 1652 1653 1654
f 1652 1654 1655
usemtl Reef
v -4.11400 -0.07000 0.00000
v -4.29698 -0.07000 0.33775
v -4.38574 -0.13364 0.23883
v -4.25635 -0.13364 0.00000
f 1656 1657 1658
f 1656 1658 1659
usemtl Reef
v -4.25635 -0.13364 0.00000
v -4.38574 -0.13364 0.23883
v -4.60000 -0.16000 0.00000
f 1660 1661 1662
usemtl Reef
v -4.60000 0.02000 0.00000
v -4.67647 -0.00636 0.29781
v -4.38574 -0.00636 0.23883
f 1663 1664 1665
usemtl Reef
v -4.38574 -0.00636 0.23883
v -4.67647 -0.00636 0.29781
v -4.70815 -0.07000 0.42117
v -4.29698 -0.07000 0.33775
f 1666 1667 1668
f 1666 1668 1669
usemtl Reef
v -4.29698 -0.07000 0.33775
v -4.70815 -0.07000 0.42117
v -4.67647 -0.13364 0.29781
v -4.38574 -0.13364 0.23883
f 1670 1671 1672
f 1670 1672 1673
usemtl Reef
v -4.38574 -0.13364 0.23883
v -4.67647 -0.13364 0.29781
v -4.60000 -0.16000 0.00000
f 1674 1675 1676
usemtl Reef
v -4.60000 0.02000 0.00000
v -4.90962 -0.00636 0.13254
v -4.67647 -0.00636 0.29781
f 1677 1678 1679
usemtl Reef
v -4.67647 -0.00636 0.29781
v -4.90962 -0.00636 0.13254
v -5.03787 -0.07000 0.18744
v -4.70815 -0.07000 0.42117
f 1680 1681 1682
f 1680 1682 1683
usemtl Reef
v -4.70815 -0.07000 0.42117
v -5.03787 -0.07000 0.18744
v -4.90962 -0.13364 0.13254
v -4.67647 -0.13364 0.29781
f 1684 1685 1686
f 1684 1686 1687
usemtl Reef
v -4.67647 -0.13364 0.29781
v -4.90962 -0.13364 0.13254
v -4.60000 -0.16000 0.00000
f 1688 1689 1690
usemtl Reef
v -4.60000 0.02000 0.00000
v -4.90962 -0.00636 -0.13254
v -4.90962 -0.00636 0.13254
f 1691 1692 1693
usemtl Reef
v -4.90962 -0.00636 0.13254
v -4.90962 -0.00636 -0.13254
v -5.03787 -0.07000 -0.18744
v -5.03787 -0.07000 0.18744
f 1694 1695 1696
f 1694 1696 1697
usemtl Reef
v -5.03787 -0.07000 0.18744
v -5.03787 -0.07000 -0.18744
v -4.90962 -0.13364 -0.13254
v -4.90962 -0.13364 0.13254
f 1698 1699 1700
f 1698 1700 1701
usemtl Reef
v -4.90962 -0.13364 0.13254
v -4.90962 -0.13364 -0.13254
v -4.60000 -0.16000 0.00000
f 1702 1703 1704
usemtl Reef
v -4.60000 0.02000 0.00000
v -4.67647 -0.00636 -0.29781
v -4.90962 -0.00636 -0.13254
f 1705 1706 1707
usemtl Reef
v -4.90962 -0.00636 -0.13254
v -4.67647 -0.00636 -0.29781
v -4.70815 -0.07000 -0.42117
v -5.03787 -0.07000 -0.18744
f 1708 1709 1710
f 1708 1710 1711
usemtl Reef
v -5.03787 -0.07000 -0.18744
v -4.70815 -0.07000 -0.42117
v -4.67647 -0.13364 -0.29781
v -4.90962 -0.13364 -0.13254
f 1712 1713 1714
f 1712 1714 1715
usemtl Reef
v -4.90962 -0.13364 -0.13254
v -4.67647 -0.13364 -0.29781
v -4.60000 -0.16000 0.00000
f 1716 1717 1718
usemtl Reef
v -4.60000 0.02000 0.00000
v -4.38574 -0.00636 -0.23883
v -4.67647 -0.00636 -0.29781
f 1719 1720 1721
usemtl Reef
v -4.67647 -0.00636 -0.29781
v -4.38574 -0.00636 -0.23883
v -4.29698 -0.07000 -0.33775
v -4.70815 -0.07000 -0.42117
f 1722 1723 1724
f 1722 1724 1725
usemtl Reef
v -4.70815 -0.07000 -0.42117
v -4.29698 -0.07000 -0.33775
v -4.38574 -0.13364 -0.23883
v -4.67647 -0.13364 -0.29781
f 1726 1727 1728
f 1726 1728 1729
usemtl Reef
v -4.67647 -0.13364 -0.29781
v -4.38574 -0.13364 -0.23883
v -4.60000 -0.16000 0.00000
f 1730 1731 1732
usemtl Reef
v -4.60000 0.02000 0.00000
v -4.25635 -0.00636 0.00000
v -4.38574 -0.00636 -0.23883
f 1733 1734 1735
usemtl Reef
v -4.38574 -0.00636 -0.23883
v -4.25635 -0.00636 0.00000
v -4.11400 -0.07000 0.00000
v -4.29698 -0.07000 -0.33775
f 1736 1737 1738
f 1736 1738 1739
usemtl Reef
v -4.29698 -0.07000 -0.33775
v -4.11400 -0.07000 0.00000
v -4.25635 -0.13364 0.00000
v -4.38574 -0.13364 -0.23883
f 1740 1741 1742
f 1740 1742 1743
usemtl Reef
v -4.38574 -0.13364 -0.23883
v -4.25635 -0.13364 0.00000
v -4.60000 -0.16000 0.00000
f 1744 1745 1746
