# Original Yellow Coast study. Y up; 1 unit = 1 metre.
mtllib Coastline.mtl
o Turf
usemtl Grass
v -2.50750 0.86000 -2.50750
v -2.50750 0.98000 -2.50750
v -1.49250 0.98000 -2.50750
v -1.49250 0.86000 -2.50750
f 1 2 3
f 1 3 4
usemtl Grass
v -1.49250 0.86000 -1.49250
v -1.49250 0.98000 -1.49250
v -2.50750 0.98000 -1.49250
v -2.50750 0.86000 -1.49250
f 5 6 7
f 5 7 8
usemtl Grass
v -2.50750 0.86000 -1.49250
v -2.50750 0.98000 -1.49250
v -2.50750 0.98000 -2.50750
v -2.50750 0.86000 -2.50750
f 9 10 11
f 9 11 12
usemtl Grass
v -1.49250 0.86000 -2.50750
v -1.49250 0.98000 -2.50750
v -1.49250 0.98000 -1.49250
v -1.49250 0.86000 -1.49250
f 13 14 15
f 13 15 16
usemtl Grass
v -2.50750 0.86000 -1.49250
v -2.50750 0.86000 -2.50750
v -1.49250 0.86000 -2.50750
v -1.49250 0.86000 -1.49250
f 17 18 19
f 17 19 20
usemtl GrassLight
v -2.50750 0.98000 -2.50750
v -2.50750 0.98000 -1.49250
v -1.49250 0.98000 -1.49250
v -1.49250 0.98000 -2.50750
f 21 22 23
f 21 23 24
usemtl Grass
v -1.50750 0.86000 -2.50750
v -1.50750 0.98000 -2.50750
v -0.49250 0.98000 -2.50750
v -0.49250 0.86000 -2.50750
f 25 26 27
f 25 27 28
usemtl Grass
v -0.49250 0.86000 -1.49250
v -0.49250 0.98000 -1.49250
v -1.50750 0.98000 -1.49250
v -1.50750 0.86000 -1.49250
f 29 30 31
f 29 31 32
usemtl Grass
v -1.50750 0.86000 -1.49250
v -1.50750 0.98000 -1.49250
v -1.50750 0.98000 -2.50750
v -1.50750 0.86000 -2.50750
f 33 34 35
f 33 35 36
usemtl Grass
v -0.49250 0.86000 -2.50750
v -0.49250 0.98000 -2.50750
v -0.49250 0.98000 -1.49250
v -0.49250 0.86000 -1.49250
f 37 38 39
f 37 39 40
usemtl Grass
v -1.50750 0.86000 -1.49250
v -1.50750 0.86000 -2.50750
v -0.49250 0.86000 -2.50750
v -0.49250 0.86000 -1.49250
f 41 42 43
f 41 43 44
usemtl Grass
v -1.50750 0.98000 -2.50750
v -1.50750 0.98000 -1.49250
v -0.49250 0.98000 -1.49250
v -0.49250 0.98000 -2.50750
f 45 46 47
f 45 47 48
usemtl Grass
v -3.50750 0.86000 -1.50750
v -3.50750 0.98000 -1.50750
v -2.49250 0.98000 -1.50750
v -2.49250 0.86000 -1.50750
f 49 50 51
f 49 51 52
usemtl Grass
v -2.49250 0.86000 -0.49250
v -2.49250 0.98000 -0.49250
v -3.50750 0.98000 -0.49250
v -3.50750 0.86000 -0.49250
f 53 54 55
f 53 55 56
usemtl Grass
v -3.50750 0.86000 -0.49250
v -3.50750 0.98000 -0.49250
v -3.50750 0.98000 -1.50750
v -3.50750 0.86000 -1.50750
f 57 58 59
f 57 59 60
usemtl Grass
v -2.49250 0.86000 -1.50750
v -2.49250 0.98000 -1.50750
v -2.49250 0.98000 -0.49250
v -2.49250 0.86000 -0.49250
f 61 62 63
f 61 63 64
usemtl Grass
v -3.50750 0.86000 -0.49250
v -3.50750 0.86000 -1.50750
v -2.49250 0.86000 -1.50750
v -2.49250 0.86000 -0.49250
f 65 66 67
f 65 67 68
usemtl Grass
v -3.50750 0.98000 -1.50750
v -3.50750 0.98000 -0.49250
v -2.49250 0.98000 -0.49250
v -2.49250 0.98000 -1.50750
f 69 70 71
f 69 71 72
usemtl Grass
v -2.50750 1.47000 -1.50750
v -2.50750 1.59000 -1.50750
v -1.49250 1.59000 -1.50750
v -1.49250 1.47000 -1.50750
f 73 74 75
f 73 75 76
usemtl Grass
v -1.49250 1.47000 -0.49250
v -1.49250 1.59000 -0.49250
v -2.50750 1.59000 -0.49250
v -2.50750 1.47000 -0.49250
f 77 78 79
f 77 79 80
usemtl Grass
v -2.50750 1.47000 -0.49250
v -2.50750 1.59000 -0.49250
v -2.50750 1.59000 -1.50750
v -2.50750 1.47000 -1.50750
f 81 82 83
f 81 83 84
usemtl Grass
v -1.49250 1.47000 -1.50750
v -1.49250 1.59000 -1.50750
v -1.49250 1.59000 -0.49250
v -1.49250 1.47000 -0.49250
f 85 86 87
f 85 87 88
usemtl Grass
v -2.50750 1.47000 -0.49250
v -2.50750 1.47000 -1.50750
v -1.49250 1.47000 -1.50750
v -1.49250 1.47000 -0.49250
f 89 90 91
f 89 91 92
usemtl Grass
v -2.50750 1.59000 -1.50750
v -2.50750 1.59000 -0.49250
v -1.49250 1.59000 -0.49250
v -1.49250 1.59000 -1.50750
f 93 94 95
f 93 95 96
usemtl Grass
v -1.50750 1.47000 -1.50750
v -1.50750 1.59000 -1.50750
v -0.49250 1.59000 -1.50750
v -0.49250 1.47000 -1.50750
f 97 98 99
f 97 99 100
usemtl Grass
v -0.49250 1.47000 -0.49250
v -0.49250 1.59000 -0.49250
v -1.50750 1.59000 -0.49250
v -1.50750 1.47000 -0.49250
f 101 102 103
f 101 103 104
usemtl Grass
v -1.50750 1.47000 -0.49250
v -1.50750 1.59000 -0.49250
v -1.50750 1.59000 -1.50750
v -1.50750 1.47000 -1.50750
f 105 106 107
f 105 107 108
usemtl Grass
v -0.49250 1.47000 -1.50750
v -0.49250 1.59000 -1.50750
v -0.49250 1.59000 -0.49250
v -0.49250 1.47000 -0.49250
f 109 110 111
f 109 111 112
usemtl Grass
v -1.50750 1.47000 -0.49250
v -1.50750 1.47000 -1.50750
v -0.49250 1.47000 -1.50750
v -0.49250 1.47000 -0.49250
f 113 114 115
f 113 115 116
usemtl Grass
v -1.50750 1.59000 -1.50750
v -1.50750 1.59000 -0.49250
v -0.49250 1.59000 -0.49250
v -0.49250 1.59000 -1.50750
f 117 118 119
f 117 119 120
usemtl Grass
v -0.50750 1.47000 -1.50750
v -0.50750 1.59000 -1.50750
v 0.50750 1.59000 -1.50750
v 0.50750 1.47000 -1.50750
f 121 122 123
f 121 123 124
usemtl Grass
v 0.50750 1.47000 -0.49250
v 0.50750 1.59000 -0.49250
v -0.50750 1.59000 -0.49250
v -0.50750 1.47000 -0.49250
f 125 126 127
f 125 127 128
usemtl Grass
v -0.50750 1.47000 -0.49250
v -0.50750 1.59000 -0.49250
v -0.50750 1.59000 -1.50750
v -0.50750 1.47000 -1.50750
f 129 130 131
f 129 131 132
usemtl Grass
v 0.50750 1.47000 -1.50750
v 0.50750 1.59000 -1.50750
v 0.50750 1.59000 -0.49250
v 0.50750 1.47000 -0.49250
f 133 134 135
f 133 135 136
usemtl Grass
v -0.50750 1.47000 -0.49250
v -0.50750 1.47000 -1.50750
v 0.50750 1.47000 -1.50750
v 0.50750 1.47000 -0.49250
f 137 138 139
f 137 139 140
usemtl Grass
v -0.50750 1.59000 -1.50750
v -0.50750 1.59000 -0.49250
v 0.50750 1.59000 -0.49250
v 0.50750 1.59000 -1.50750
f 141 142 143
f 141 143 144
usemtl Grass
v 0.49250 0.86000 -1.50750
v 0.49250 0.98000 -1.50750
v 1.50750 0.98000 -1.50750
v 1.50750 0.86000 -1.50750
f 145 146 147
f 145 147 148
usemtl Grass
v 1.50750 0.86000 -0.49250
v 1.50750 0.98000 -0.49250
v 0.49250 0.98000 -0.49250
v 0.49250 0.86000 -0.49250
f 149 150 151
f 149 151 152
usemtl Grass
v 0.49250 0.86000 -0.49250
v 0.49250 0.98000 -0.49250
v 0.49250 0.98000 -1.50750
v 0.49250 0.86000 -1.50750
f 153 154 155
f 153 155 156
usemtl Grass
v 1.50750 0.86000 -1.50750
v 1.50750 0.98000 -1.50750
v 1.50750 0.98000 -0.49250
v 1.50750 0.86000 -0.49250
f 157 158 159
f 157 159 160
usemtl Grass
v 0.49250 0.86000 -0.49250
v 0.49250 0.86000 -1.50750
v 1.50750 0.86000 -1.50750
v 1.50750 0.86000 -0.49250
f 161 162 163
f 161 163 164
usemtl Grass
v 0.49250 0.98000 -1.50750
v 0.49250 0.98000 -0.49250
v 1.50750 0.98000 -0.49250
v 1.50750 0.98000 -1.50750
f 165 166 167
f 165 167 168
usemtl Grass
v -3.50750 0.86000 -0.50750
v -3.50750 0.98000 -0.50750
v -2.49250 0.98000 -0.50750
v -2.49250 0.86000 -0.50750
f 169 170 171
f 169 171 172
usemtl Grass
v -2.49250 0.86000 0.50750
v -2.49250 0.98000 0.50750
v -3.50750 0.98000 0.50750
v -3.50750 0.86000 0.50750
f 173 174 175
f 173 175 176
usemtl Grass
v -3.50750 0.86000 0.50750
v -3.50750 0.98000 0.50750
v -3.50750 0.98000 -0.50750
v -3.50750 0.86000 -0.50750
f 177 178 179
f 177 179 180
usemtl Grass
v -2.49250 0.86000 -0.50750
v -2.49250 0.98000 -0.50750
v -2.49250 0.98000 0.50750
v -2.49250 0.86000 0.50750
f 181 182 183
f 181 183 184
usemtl Grass
v -3.50750 0.86000 0.50750
v -3.50750 0.86000 -0.50750
v -2.49250 0.86000 -0.50750
v -2.49250 0.86000 0.50750
f 185 186 187
f 185 187 188
usemtl GrassLight
v -3.50750 0.98000 -0.50750
v -3.50750 0.98000 0.50750
v -2.49250 0.98000 0.50750
v -2.49250 0.98000 -0.50750
f 189 190 191
f 189 191 192
usemtl Grass
v -2.50750 1.47000 -0.50750
v -2.50750 1.59000 -0.50750
v -1.49250 1.59000 -0.50750
v -1.49250 1.47000 -0.50750
f 193 194 195
f 193 195 196
usemtl Grass
v -1.49250 1.47000 0.50750
v -1.49250 1.59000 0.50750
v -2.50750 1.59000 0.50750
v -2.50750 1.47000 0.50750
f 197 198 199
f 197 199 200
usemtl Grass
v -2.50750 1.47000 0.50750
v -2.50750 1.59000 0.50750
v -2.50750 1.59000 -0.50750
v -2.50750 1.47000 -0.50750
f 201 202 203
f 201 203 204
usemtl Grass
v -1.49250 1.47000 -0.50750
v -1.49250 1.59000 -0.50750
v -1.49250 1.59000 0.50750
v -1.49250 1.47000 0.50750
f 205 206 207
f 205 207 208
usemtl Grass
v -2.50750 1.47000 0.50750
v -2.50750 1.47000 -0.50750
v -1.49250 1.47000 -0.50750
v -1.49250 1.47000 0.50750
f 209 210 211
f 209 211 212
usemtl Grass
v -2.50750 1.59000 -0.50750
v -2.50750 1.59000 0.50750
v -1.49250 1.59000 0.50750
v -1.49250 1.59000 -0.50750
f 213 214 215
f 213 215 216
usemtl Grass
v -1.50750 2.08000 -0.50750
v -1.50750 2.20000 -0.50750
v -0.49250 2.20000 -0.50750
v -0.49250 2.08000 -0.50750
f 217 218 219
f 217 219 220
usemtl Grass
v -0.49250 2.08000 0.50750
v -0.49250 2.20000 0.50750
v -1.50750 2.20000 0.50750
v -1.50750 2.08000 0.50750
f 221 222 223
f 221 223 224
usemtl Grass
v -1.50750 2.08000 0.50750
v -1.50750 2.20000 0.50750
v -1.50750 2.20000 -0.50750
v -1.50750 2.08000 -0.50750
f 225 226 227
f 225 227 228
usemtl Grass
v -0.49250 2.08000 -0.50750
v -0.49250 2.20000 -0.50750
v -0.49250 2.20000 0.50750
v -0.49250 2.08000 0.50750
f 229 230 231
f 229 231 232
usemtl Grass
v -1.50750 2.08000 0.50750
v -1.50750 2.08000 -0.50750
v -0.49250 2.08000 -0.50750
v -0.49250 2.08000 0.50750
f 233 234 235
f 233 235 236
usemtl Grass
v -1.50750 2.20000 -0.50750
v -1.50750 2.20000 0.50750
v -0.49250 2.20000 0.50750
v -0.49250 2.20000 -0.50750
f 237 238 239
f 237 239 240
usemtl Grass
v -0.50750 2.08000 -0.50750
v -0.50750 2.20000 -0.50750
v 0.50750 2.20000 -0.50750
v 0.50750 2.08000 -0.50750
f 241 242 243
f 241 243 244
usemtl Grass
v 0.50750 2.08000 0.50750
v 0.50750 2.20000 0.50750
v -0.50750 2.20000 0.50750
v -0.50750 2.08000 0.50750
f 245 246 247
f 245 247 248
usemtl Grass
v -0.50750 2.08000 0.50750
v -0.50750 2.20000 0.50750
v -0.50750 2.20000 -0.50750
v -0.50750 2.08000 -0.50750
f 249 250 251
f 249 251 252
usemtl Grass
v 0.50750 2.08000 -0.50750
v 0.50750 2.20000 -0.50750
v 0.50750 2.20000 0.50750
v 0.50750 2.08000 0.50750
f 253 254 255
f 253 255 256
usemtl Grass
v -0.50750 2.08000 0.50750
v -0.50750 2.08000 -0.50750
v 0.50750 2.08000 -0.50750
v 0.50750 2.08000 0.50750
f 257 258 259
f 257 259 260
usemtl Grass
v -0.50750 2.20000 -0.50750
v -0.50750 2.20000 0.50750
v 0.50750 2.20000 0.50750
v 0.50750 2.20000 -0.50750
f 261 262 263
f 261 263 264
usemtl Grass
v 0.49250 1.47000 -0.50750
v 0.49250 1.59000 -0.50750
v 1.50750 1.59000 -0.50750
v 1.50750 1.47000 -0.50750
f 265 266 267
f 265 267 268
usemtl Grass
v 1.50750 1.47000 0.50750
v 1.50750 1.59000 0.50750
v 0.49250 1.59000 0.50750
v 0.49250 1.47000 0.50750
f 269 270 271
f 269 271 272
usemtl Grass
v 0.49250 1.47000 0.50750
v 0.49250 1.59000 0.50750
v 0.49250 1.59000 -0.50750
v 0.49250 1.47000 -0.50750
f 273 274 275
f 273 275 276
usemtl Grass
v 1.50750 1.47000 -0.50750
v 1.50750 1.59000 -0.50750
v 1.50750 1.59000 0.50750
v 1.50750 1.47000 0.50750
f 277 278 279
f 277 279 280
usemtl Grass
v 0.49250 1.47000 0.50750
v 0.49250 1.47000 -0.50750
v 1.50750 1.47000 -0.50750
v 1.50750 1.47000 0.50750
f 281 282 283
f 281 283 284
usemtl GrassLight
v 0.49250 1.59000 -0.50750
v 0.49250 1.59000 0.50750
v 1.50750 1.59000 0.50750
v 1.50750 1.59000 -0.50750
f 285 286 287
f 285 287 288
usemtl Grass
v 1.49250 0.86000 -0.50750
v 1.49250 0.98000 -0.50750
v 2.50750 0.98000 -0.50750
v 2.50750 0.86000 -0.50750
f 289 290 291
f 289 291 292
usemtl Grass
v 2.50750 0.86000 0.50750
v 2.50750 0.98000 0.50750
v 1.49250 0.98000 0.50750
v 1.49250 0.86000 0.50750
f 293 294 295
f 293 295 296
usemtl Grass
v 1.49250 0.86000 0.50750
v 1.49250 0.98000 0.50750
v 1.49250 0.98000 -0.50750
v 1.49250 0.86000 -0.50750
f 297 298 299
f 297 299 300
usemtl Grass
v 2.50750 0.86000 -0.50750
v 2.50750 0.98000 -0.50750
v 2.50750 0.98000 0.50750
v 2.50750 0.86000 0.50750
f 301 302 303
f 301 303 304
usemtl Grass
v 1.49250 0.86000 0.50750
v 1.49250 0.86000 -0.50750
v 2.50750 0.86000 -0.50750
v 2.50750 0.86000 0.50750
f 305 306 307
f 305 307 308
usemtl Grass
v 1.49250 0.98000 -0.50750
v 1.49250 0.98000 0.50750
v 2.50750 0.98000 0.50750
v 2.50750 0.98000 -0.50750
f 309 310 311
f 309 311 312
usemtl Grass
v -2.50750 1.47000 0.49250
v -2.50750 1.59000 0.49250
v -1.49250 1.59000 0.49250
v -1.49250 1.47000 0.49250
f 313 314 315
f 313 315 316
usemtl Grass
v -1.49250 1.47000 1.50750
v -1.49250 1.59000 1.50750
v -2.50750 1.59000 1.50750
v -2.50750 1.47000 1.50750
f 317 318 319
f 317 319 320
usemtl Grass
v -2.50750 1.47000 1.50750
v -2.50750 1.59000 1.50750
v -2.50750 1.59000 0.49250
v -2.50750 1.47000 0.49250
f 321 322 323
f 321 323 324
usemtl Grass
v -1.49250 1.47000 0.49250
v -1.49250 1.59000 0.49250
v -1.49250 1.59000 1.50750
v -1.49250 1.47000 1.50750
f 325 326 327
f 325 327 328
usemtl Grass
v -2.50750 1.47000 1.50750
v -2.50750 1.47000 0.49250
v -1.49250 1.47000 0.49250
v -1.49250 1.47000 1.50750
f 329 330 331
f 329 331 332
usemtl Grass
v -2.50750 1.59000 0.49250
v -2.50750 1.59000 1.50750
v -1.49250 1.59000 1.50750
v -1.49250 1.59000 0.49250
f 333 334 335
f 333 335 336
usemtl Grass
v -1.50750 2.08000 0.49250
v -1.50750 2.20000 0.49250
v -0.49250 2.20000 0.49250
v -0.49250 2.08000 0.49250
f 337 338 339
f 337 339 340
usemtl Grass
v -0.49250 2.08000 1.50750
v -0.49250 2.20000 1.50750
v -1.50750 2.20000 1.50750
v -1.50750 2.08000 1.50750
f 341 342 343
f 341 343 344
usemtl Grass
v -1.50750 2.08000 1.50750
v -1.50750 2.20000 1.50750
v -1.50750 2.20000 0.49250
v -1.50750 2.08000 0.49250
f 345 346 347
f 345 347 348
usemtl Grass
v -0.49250 2.08000 0.49250
v -0.49250 2.20000 0.49250
v -0.49250 2.20000 1.50750
v -0.49250 2.08000 1.50750
f 349 350 351
f 349 351 352
usemtl Grass
v -1.50750 2.08000 1.50750
v -1.50750 2.08000 0.49250
v -0.49250 2.08000 0.49250
v -0.49250 2.08000 1.50750
f 353 354 355
f 353 355 356
usemtl Grass
v -1.50750 2.20000 0.49250
v -1.50750 2.20000 1.50750
v -0.49250 2.20000 1.50750
v -0.49250 2.20000 0.49250
f 357 358 359
f 357 359 360
usemtl Grass
v -0.50750 3.30000 0.49250
v -0.50750 3.42000 0.49250
v 0.50750 3.42000 0.49250
v 0.50750 3.30000 0.49250
f 361 362 363
f 361 363 364
usemtl Grass
v 0.50750 3.30000 1.50750
v 0.50750 3.42000 1.50750
v -0.50750 3.42000 1.50750
v -0.50750 3.30000 1.50750
f 365 366 367
f 365 367 368
usemtl Grass
v -0.50750 3.30000 1.50750
v -0.50750 3.42000 1.50750
v -0.50750 3.42000 0.49250
v -0.50750 3.30000 0.49250
f 369 370 371
f 369 371 372
usemtl Grass
v 0.50750 3.30000 0.49250
v 0.50750 3.42000 0.49250
v 0.50750 3.42000 1.50750
v 0.50750 3.30000 1.50750
f 373 374 375
f 373 375 376
usemtl Grass
v -0.50750 3.30000 1.50750
v -0.50750 3.30000 0.49250
v 0.50750 3.30000 0.49250
v 0.50750 3.30000 1.50750
f 377 378 379
f 377 379 380
usemtl Grass
v -0.50750 3.42000 0.49250
v -0.50750 3.42000 1.50750
v 0.50750 3.42000 1.50750
v 0.50750 3.42000 0.49250
f 381 382 383
f 381 383 384
usemtl Grass
v 0.49250 2.08000 0.49250
v 0.49250 2.20000 0.49250
v 1.50750 2.20000 0.49250
v 1.50750 2.08000 0.49250
f 385 386 387
f 385 387 388
usemtl Grass
v 1.50750 2.08000 1.50750
v 1.50750 2.20000 1.50750
v 0.49250 2.20000 1.50750
v 0.49250 2.08000 1.50750
f 389 390 391
f 389 391 392
usemtl Grass
v 0.49250 2.08000 1.50750
v 0.49250 2.20000 1.50750
v 0.49250 2.20000 0.49250
v 0.49250 2.08000 0.49250
f 393 394 395
f 393 395 396
usemtl Grass
v 1.50750 2.08000 0.49250
v 1.50750 2.20000 0.49250
v 1.50750 2.20000 1.50750
v 1.50750 2.08000 1.50750
f 397 398 399
f 397 399 400
usemtl Grass
v 0.49250 2.08000 1.50750
v 0.49250 2.08000 0.49250
v 1.50750 2.08000 0.49250
v 1.50750 2.08000 1.50750
f 401 402 403
f 401 403 404
usemtl Grass
v 0.49250 2.20000 0.49250
v 0.49250 2.20000 1.50750
v 1.50750 2.20000 1.50750
v 1.50750 2.20000 0.49250
f 405 406 407
f 405 407 408
usemtl Grass
v 1.49250 1.47000 0.49250
v 1.49250 1.59000 0.49250
v 2.50750 1.59000 0.49250
v 2.50750 1.47000 0.49250
f 409 410 411
f 409 411 412
usemtl Grass
v 2.50750 1.47000 1.50750
v 2.50750 1.59000 1.50750
v 1.49250 1.59000 1.50750
v 1.49250 1.47000 1.50750
f 413 414 415
f 413 415 416
usemtl Grass
v 1.49250 1.47000 1.50750
v 1.49250 1.59000 1.50750
v 1.49250 1.59000 0.49250
v 1.49250 1.47000 0.49250
f 417 418 419
f 417 419 420
usemtl Grass
v 2.50750 1.47000 0.49250
v 2.50750 1.59000 0.49250
v 2.50750 1.59000 1.50750
v 2.50750 1.47000 1.50750
f 421 422 423
f 421 423 424
usemtl Grass
v 1.49250 1.47000 1.50750
v 1.49250 1.47000 0.49250
v 2.50750 1.47000 0.49250
v 2.50750 1.47000 1.50750
f 425 426 427
f 425 427 428
usemtl Grass
v 1.49250 1.59000 0.49250
v 1.49250 1.59000 1.50750
v 2.50750 1.59000 1.50750
v 2.50750 1.59000 0.49250
f 429 430 431
f 429 431 432
usemtl Grass
v 2.49250 0.86000 0.49250
v 2.49250 0.98000 0.49250
v 3.50750 0.98000 0.49250
v 3.50750 0.86000 0.49250
f 433 434 435
f 433 435 436
usemtl Grass
v 3.50750 0.86000 1.50750
v 3.50750 0.98000 1.50750
v 2.49250 0.98000 1.50750
v 2.49250 0.86000 1.50750
f 437 438 439
f 437 439 440
usemtl Grass
v 2.49250 0.86000 1.50750
v 2.49250 0.98000 1.50750
v 2.49250 0.98000 0.49250
v 2.49250 0.86000 0.49250
f 441 442 443
f 441 443 444
usemtl Grass
v 3.50750 0.86000 0.49250
v 3.50750 0.98000 0.49250
v 3.50750 0.98000 1.50750
v 3.50750 0.86000 1.50750
f 445 446 447
f 445 447 448
usemtl Grass
v 2.49250 0.86000 1.50750
v 2.49250 0.86000 0.49250
v 3.50750 0.86000 0.49250
v 3.50750 0.86000 1.50750
f 449 450 451
f 449 451 452
usemtl Grass
v 2.49250 0.98000 0.49250
v 2.49250 0.98000 1.50750
v 3.50750 0.98000 1.50750
v 3.50750 0.98000 0.49250
f 453 454 455
f 453 455 456
usemtl Grass
v -2.50750 0.86000 1.49250
v -2.50750 0.98000 1.49250
v -1.49250 0.98000 1.49250
v -1.49250 0.86000 1.49250
f 457 458 459
f 457 459 460
usemtl Grass
v -1.49250 0.86000 2.50750
v -1.49250 0.98000 2.50750
v -2.50750 0.98000 2.50750
v -2.50750 0.86000 2.50750
f 461 462 463
f 461 463 464
usemtl Grass
v -2.50750 0.86000 2.50750
v -2.50750 0.98000 2.50750
v -2.50750 0.98000 1.49250
v -2.50750 0.86000 1.49250
f 465 466 467
f 465 467 468
usemtl Grass
v -1.49250 0.86000 1.49250
v -1.49250 0.98000 1.49250
v -1.49250 0.98000 2.50750
v -1.49250 0.86000 2.50750
f 469 470 471
f 469 471 472
usemtl Grass
v -2.50750 0.86000 2.50750
v -2.50750 0.86000 1.49250
v -1.49250 0.86000 1.49250
v -1.49250 0.86000 2.50750
f 473 474 475
f 473 475 476
usemtl Grass
v -2.50750 0.98000 1.49250
v -2.50750 0.98000 2.50750
v -1.49250 0.98000 2.50750
v -1.49250 0.98000 1.49250
f 477 478 479
f 477 479 480
usemtl Grass
v -1.50750 1.47000 1.49250
v -1.50750 1.59000 1.49250
v -0.49250 1.59000 1.49250
v -0.49250 1.47000 1.49250
f 481 482 483
f 481 483 484
usemtl Grass
v -0.49250 1.47000 2.50750
v -0.49250 1.59000 2.50750
v -1.50750 1.59000 2.50750
v -1.50750 1.47000 2.50750
f 485 486 487
f 485 487 488
usemtl Grass
v -1.50750 1.47000 2.50750
v -1.50750 1.59000 2.50750
v -1.50750 1.59000 1.49250
v -1.50750 1.47000 1.49250
f 489 490 491
f 489 491 492
usemtl Grass
v -0.49250 1.47000 1.49250
v -0.49250 1.59000 1.49250
v -0.49250 1.59000 2.50750
v -0.49250 1.47000 2.50750
f 493 494 495
f 493 495 496
usemtl Grass
v -1.50750 1.47000 2.50750
v -1.50750 1.47000 1.49250
v -0.49250 1.47000 1.49250
v -0.49250 1.47000 2.50750
f 497 498 499
f 497 499 500
usemtl Grass
v -1.50750 1.59000 1.49250
v -1.50750 1.59000 2.50750
v -0.49250 1.59000 2.50750
v -0.49250 1.59000 1.49250
f 501 502 503
f 501 503 504
usemtl Grass
v -0.50750 2.08000 1.49250
v -0.50750 2.20000 1.49250
v 0.50750 2.20000 1.49250
v 0.50750 2.08000 1.49250
f 505 506 507
f 505 507 508
usemtl Grass
v 0.50750 2.08000 2.50750
v 0.50750 2.20000 2.50750
v -0.50750 2.20000 2.50750
v -0.50750 2.08000 2.50750
f 509 510 511
f 509 511 512
usemtl Grass
v -0.50750 2.08000 2.50750
v -0.50750 2.20000 2.50750
v -0.50750 2.20000 1.49250
v -0.50750 2.08000 1.49250
f 513 514 515
f 513 515 516
usemtl Grass
v 0.50750 2.08000 1.49250
v 0.50750 2.20000 1.49250
v 0.50750 2.20000 2.50750
v 0.50750 2.08000 2.50750
f 517 518 519
f 517 519 520
usemtl Grass
v -0.50750 2.08000 2.50750
v -0.50750 2.08000 1.49250
v 0.50750 2.08000 1.49250
v 0.50750 2.08000 2.50750
f 521 522 523
f 521 523 524
usemtl Grass
v -0.50750 2.20000 1.49250
v -0.50750 2.20000 2.50750
v 0.50750 2.20000 2.50750
v 0.50750 2.20000 1.49250
f 525 526 527
f 525 527 528
usemtl Grass
v 0.49250 2.08000 1.49250
v 0.49250 2.20000 1.49250
v 1.50750 2.20000 1.49250
v 1.50750 2.08000 1.49250
f 529 530 531
f 529 531 532
usemtl Grass
v 1.50750 2.08000 2.50750
v 1.50750 2.20000 2.50750
v 0.49250 2.20000 2.50750
v 0.49250 2.08000 2.50750
f 533 534 535
f 533 535 536
usemtl Grass
v 0.49250 2.08000 2.50750
v 0.49250 2.20000 2.50750
v 0.49250 2.20000 1.49250
v 0.49250 2.08000 1.49250
f 537 538 539
f 537 539 540
usemtl Grass
v 1.50750 2.08000 1.49250
v 1.50750 2.20000 1.49250
v 1.50750 2.20000 2.50750
v 1.50750 2.08000 2.50750
f 541 542 543
f 541 543 544
usemtl Grass
v 0.49250 2.08000 2.50750
v 0.49250 2.08000 1.49250
v 1.50750 2.08000 1.49250
v 1.50750 2.08000 2.50750
f 545 546 547
f 545 547 548
usemtl Grass
v 0.49250 2.20000 1.49250
v 0.49250 2.20000 2.50750
v 1.50750 2.20000 2.50750
v 1.50750 2.20000 1.49250
f 549 550 551
f 549 551 552
usemtl Grass
v 1.49250 1.47000 1.49250
v 1.49250 1.59000 1.49250
v 2.50750 1.59000 1.49250
v 2.50750 1.47000 1.49250
f 553 554 555
f 553 555 556
usemtl Grass
v 2.50750 1.47000 2.50750
v 2.50750 1.59000 2.50750
v 1.49250 1.59000 2.50750
v 1.49250 1.47000 2.50750
f 557 558 559
f 557 559 560
usemtl Grass
v 1.49250 1.47000 2.50750
v 1.49250 1.59000 2.50750
v 1.49250 1.59000 1.49250
v 1.49250 1.47000 1.49250
f 561 562 563
f 561 563 564
usemtl Grass
v 2.50750 1.47000 1.49250
v 2.50750 1.59000 1.49250
v 2.50750 1.59000 2.50750
v 2.50750 1.47000 2.50750
f 565 566 567
f 565 567 568
usemtl Grass
v 1.49250 1.47000 2.50750
v 1.49250 1.47000 1.49250
v 2.50750 1.47000 1.49250
v 2.50750 1.47000 2.50750
f 569 570 571
f 569 571 572
usemtl Grass
v 1.49250 1.59000 1.49250
v 1.49250 1.59000 2.50750
v 2.50750 1.59000 2.50750
v 2.50750 1.59000 1.49250
f 573 574 575
f 573 575 576
usemtl Grass
v 2.49250 0.86000 1.49250
v 2.49250 0.98000 1.49250
v 3.50750 0.98000 1.49250
v 3.50750 0.86000 1.49250
f 577 578 579
f 577 579 580
usemtl Grass
v 3.50750 0.86000 2.50750
v 3.50750 0.98000 2.50750
v 2.49250 0.98000 2.50750
v 2.49250 0.86000 2.50750
f 581 582 583
f 581 583 584
usemtl Grass
v 2.49250 0.86000 2.50750
v 2.49250 0.98000 2.50750
v 2.49250 0.98000 1.49250
v 2.49250 0.86000 1.49250
f 585 586 587
f 585 587 588
usemtl Grass
v 3.50750 0.86000 1.49250
v 3.50750 0.98000 1.49250
v 3.50750 0.98000 2.50750
v 3.50750 0.86000 2.50750
f 589 590 591
f 589 591 592
usemtl Grass
v 2.49250 0.86000 2.50750
v 2.49250 0.86000 1.49250
v 3.50750 0.86000 1.49250
v 3.50750 0.86000 2.50750
f 593 594 595
f 593 595 596
usemtl Grass
v 2.49250 0.98000 1.49250
v 2.49250 0.98000 2.50750
v 3.50750 0.98000 2.50750
v 3.50750 0.98000 1.49250
f 597 598 599
f 597 599 600
usemtl Grass
v -1.50750 0.86000 2.49250
v -1.50750 0.98000 2.49250
v -0.49250 0.98000 2.49250
v -0.49250 0.86000 2.49250
f 601 602 603
f 601 603 604
usemtl Grass
v -0.49250 0.86000 3.50750
v -0.49250 0.98000 3.50750
v -1.50750 0.98000 3.50750
v -1.50750 0.86000 3.50750
f 605 606 607
f 605 607 608
usemtl Grass
v -1.50750 0.86000 3.50750
v -1.50750 0.98000 3.50750
v -1.50750 0.98000 2.49250
v -1.50750 0.86000 2.49250
f 609 610 611
f 609 611 612
usemtl Grass
v -0.49250 0.86000 2.49250
v -0.49250 0.98000 2.49250
v -0.49250 0.98000 3.50750
v -0.49250 0.86000 3.50750
f 613 614 615
f 613 615 616
usemtl Grass
v -1.50750 0.86000 3.50750
v -1.50750 0.86000 2.49250
v -0.49250 0.86000 2.49250
v -0.49250 0.86000 3.50750
f 617 618 619
f 617 619 620
usemtl Grass
v -1.50750 0.98000 2.49250
v -1.50750 0.98000 3.50750
v -0.49250 0.98000 3.50750
v -0.49250 0.98000 2.49250
f 621 622 623
f 621 623 624
usemtl Grass
v -0.50750 1.47000 2.49250
v -0.50750 1.59000 2.49250
v 0.50750 1.59000 2.49250
v 0.50750 1.47000 2.49250
f 625 626 627
f 625 627 628
usemtl Grass
v 0.50750 1.47000 3.50750
v 0.50750 1.59000 3.50750
v -0.50750 1.59000 3.50750
v -0.50750 1.47000 3.50750
f 629 630 631
f 629 631 632
usemtl Grass
v -0.50750 1.47000 3.50750
v -0.50750 1.59000 3.50750
v -0.50750 1.59000 2.49250
v -0.50750 1.47000 2.49250
f 633 634 635
f 633 635 636
usemtl Grass
v 0.50750 1.47000 2.49250
v 0.50750 1.59000 2.49250
v 0.50750 1.59000 3.50750
v 0.50750 1.47000 3.50750
f 637 638 639
f 637 639 640
usemtl Grass
v -0.50750 1.47000 3.50750
v -0.50750 1.47000 2.49250
v 0.50750 1.47000 2.49250
v 0.50750 1.47000 3.50750
f 641 642 643
f 641 643 644
usemtl Grass
v -0.50750 1.59000 2.49250
v -0.50750 1.59000 3.50750
v 0.50750 1.59000 3.50750
v 0.50750 1.59000 2.49250
f 645 646 647
f 645 647 648
usemtl Grass
v 0.49250 1.47000 2.49250
v 0.49250 1.59000 2.49250
v 1.50750 1.59000 2.49250
v 1.50750 1.47000 2.49250
f 649 650 651
f 649 651 652
usemtl Grass
v 1.50750 1.47000 3.50750
v 1.50750 1.59000 3.50750
v 0.49250 1.59000 3.50750
v 0.49250 1.47000 3.50750
f 653 654 655
f 653 655 656
usemtl Grass
v 0.49250 1.47000 3.50750
v 0.49250 1.59000 3.50750
v 0.49250 1.59000 2.49250
v 0.49250 1.47000 2.49250
f 657 658 659
f 657 659 660
usemtl Grass
v 1.50750 1.47000 2.49250
v 1.50750 1.59000 2.49250
v 1.50750 1.59000 3.50750
v 1.50750 1.47000 3.50750
f 661 662 663
f 661 663 664
usemtl Grass
v 0.49250 1.47000 3.50750
v 0.49250 1.47000 2.49250
v 1.50750 1.47000 2.49250
v 1.50750 1.47000 3.50750
f 665 666 667
f 665 667 668
usemtl Grass
v 0.49250 1.59000 2.49250
v 0.49250 1.59000 3.50750
v 1.50750 1.59000 3.50750
v 1.50750 1.59000 2.49250
f 669 670 671
f 669 671 672
usemtl Grass
v 1.49250 0.86000 2.49250
v 1.49250 0.98000 2.49250
v 2.50750 0.98000 2.49250
v 2.50750 0.86000 2.49250
f 673 674 675
f 673 675 676
usemtl Grass
v 2.50750 0.86000 3.50750
v 2.50750 0.98000 3.50750
v 1.49250 0.98000 3.50750
v 1.49250 0.86000 3.50750
f 677 678 679
f 677 679 680
usemtl Grass
v 1.49250 0.86000 3.50750
v 1.49250 0.98000 3.50750
v 1.49250 0.98000 2.49250
v 1.49250 0.86000 2.49250
f 681 682 683
f 681 683 684
usemtl Grass
v 2.50750 0.86000 2.49250
v 2.50750 0.98000 2.49250
v 2.50750 0.98000 3.50750
v 2.50750 0.86000 3.50750
f 685 686 687
f 685 687 688
usemtl Grass
v 1.49250 0.86000 3.50750
v 1.49250 0.86000 2.49250
v 2.50750 0.86000 2.49250
v 2.50750 0.86000 3.50750
f 689 690 691
f 689 691 692
usemtl Grass
v 1.49250 0.98000 2.49250
v 1.49250 0.98000 3.50750
v 2.50750 0.98000 3.50750
v 2.50750 0.98000 2.49250
f 693 694 695
f 693 695 696
usemtl Grass
v -4.50750 2.69000 1.49250
v -4.50750 2.81000 1.49250
v -3.49250 2.81000 1.49250
v -3.49250 2.69000 1.49250
f 697 698 699
f 697 699 700
usemtl Grass
v -3.49250 2.69000 2.50750
v -3.49250 2.81000 2.50750
v -4.50750 2.81000 2.50750
v -4.50750 2.69000 2.50750
f 701 702 703
f 701 703 704
usemtl Grass
v -4.50750 2.69000 2.50750
v -4.50750 2.81000 2.50750
v -4.50750 2.81000 1.49250
v -4.50750 2.69000 1.49250
f 705 706 707
f 705 707 708
usemtl Grass
v -3.49250 2.69000 1.49250
v -3.49250 2.81000 1.49250
v -3.49250 2.81000 2.50750
v -3.49250 2.69000 2.50750
f 709 710 711
f 709 711 712
usemtl Grass
v -4.50750 2.69000 2.50750
v -4.50750 2.69000 1.49250
v -3.49250 2.69000 1.49250
v -3.49250 2.69000 2.50750
f 713 714 715
f 713 715 716
usemtl Grass
v -4.50750 2.81000 1.49250
v -4.50750 2.81000 2.50750
v -3.49250 2.81000 2.50750
v -3.49250 2.81000 1.49250
f 717 718 719
f 717 719 720
usemtl Grass
v -4.50750 2.69000 2.49250
v -4.50750 2.81000 2.49250
v -3.49250 2.81000 2.49250
v -3.49250 2.69000 2.49250
f 721 722 723
f 721 723 724
usemtl Grass
v -3.49250 2.69000 3.50750
v -3.49250 2.81000 3.50750
v -4.50750 2.81000 3.50750
v -4.50750 2.69000 3.50750
f 725 726 727
f 725 727 728
usemtl Grass
v -4.50750 2.69000 3.50750
v -4.50750 2.81000 3.50750
v -4.50750 2.81000 2.49250
v -4.50750 2.69000 2.49250
f 729 730 731
f 729 731 732
usemtl Grass
v -3.49250 2.69000 2.49250
v -3.49250 2.81000 2.49250
v -3.49250 2.81000 3.50750
v -3.49250 2.69000 3.50750
f 733 734 735
f 733 735 736
usemtl Grass
v -4.50750 2.69000 3.50750
v -4.50750 2.69000 2.49250
v -3.49250 2.69000 2.49250
v -3.49250 2.69000 3.50750
f 737 738 739
f 737 739 740
usemtl Grass
v -4.50750 2.81000 2.49250
v -4.50750 2.81000 3.50750
v -3.49250 2.81000 3.50750
v -3.49250 2.81000 2.49250
f 741 742 743
f 741 743 744
usemtl Grass
v -3.50750 1.47000 2.49250
v -3.50750 1.59000 2.49250
v -2.49250 1.59000 2.49250
v -2.49250 1.47000 2.49250
f 745 746 747
f 745 747 748
usemtl Grass
v -2.49250 1.47000 3.50750
v -2.49250 1.59000 3.50750
v -3.50750 1.59000 3.50750
v -3.50750 1.47000 3.50750
f 749 750 751
f 749 751 752
usemtl Grass
v -3.50750 1.47000 3.50750
v -3.50750 1.59000 3.50750
v -3.50750 1.59000 2.49250
v -3.50750 1.47000 2.49250
f 753 754 755
f 753 755 756
usemtl Grass
v -2.49250 1.47000 2.49250
v -2.49250 1.59000 2.49250
v -2.49250 1.59000 3.50750
v -2.49250 1.47000 3.50750
f 757 758 759
f 757 759 760
usemtl Grass
v -3.50750 1.47000 3.50750
v -3.50750 1.47000 2.49250
v -2.49250 1.47000 2.49250
v -2.49250 1.47000 3.50750
f 761 762 763
f 761 763 764
usemtl Grass
v -3.50750 1.59000 2.49250
v -3.50750 1.59000 3.50750
v -2.49250 1.59000 3.50750
v -2.49250 1.59000 2.49250
f 765 766 767
f 765 767 768
usemtl Grass
v 2.49250 2.08000 2.49250
v 2.49250 2.20000 2.49250
v 3.50750 2.20000 2.49250
v 3.50750 2.08000 2.49250
f 769 770 771
f 769 771 772
usemtl Grass
v 3.50750 2.08000 3.50750
v 3.50750 2.20000 3.50750
v 2.49250 2.20000 3.50750
v 2.49250 2.08000 3.50750
f 773 774 775
f 773 775 776
usemtl Grass
v 2.49250 2.08000 3.50750
v 2.49250 2.20000 3.50750
v 2.49250 2.20000 2.49250
v 2.49250 2.08000 2.49250
f 777 778 779
f 777 779 780
usemtl Grass
v 3.50750 2.08000 2.49250
v 3.50750 2.20000 2.49250
v 3.50750 2.20000 3.50750
v 3.50750 2.08000 3.50750
f 781 782 783
f 781 783 784
usemtl Grass
v 2.49250 2.08000 3.50750
v 2.49250 2.08000 2.49250
v 3.50750 2.08000 2.49250
v 3.50750 2.08000 3.50750
f 785 786 787
f 785 787 788
usemtl Grass
v 2.49250 2.20000 2.49250
v 2.49250 2.20000 3.50750
v 3.50750 2.20000 3.50750
v 3.50750 2.20000 2.49250
f 789 790 791
f 789 791 792
usemtl Grass
v 2.49250 2.08000 3.49250
v 2.49250 2.20000 3.49250
v 3.50750 2.20000 3.49250
v 3.50750 2.08000 3.49250
f 793 794 795
f 793 795 796
usemtl Grass
v 3.50750 2.08000 4.50750
v 3.50750 2.20000 4.50750
v 2.49250 2.20000 4.50750
v 2.49250 2.08000 4.50750
f 797 798 799
f 797 799 800
usemtl Grass
v 2.49250 2.08000 4.50750
v 2.49250 2.20000 4.50750
v 2.49250 2.20000 3.49250
v 2.49250 2.08000 3.49250
f 801 802 803
f 801 803 804
usemtl Grass
v 3.50750 2.08000 3.49250
v 3.50750 2.20000 3.49250
v 3.50750 2.20000 4.50750
v 3.50750 2.08000 4.50750
f 805 806 807
f 805 807 808
usemtl Grass
v 2.49250 2.08000 4.50750
v 2.49250 2.08000 3.49250
v 3.50750 2.08000 3.49250
v 3.50750 2.08000 4.50750
f 809 810 811
f 809 811 812
usemtl Grass
v 2.49250 2.20000 3.49250
v 2.49250 2.20000 4.50750
v 3.50750 2.20000 4.50750
v 3.50750 2.20000 3.49250
f 813 814 815
f 813 815 816
usemtl Grass
v 1.49250 2.08000 3.49250
v 1.49250 2.20000 3.49250
v 2.50750 2.20000 3.49250
v 2.50750 2.08000 3.49250
f 817 818 819
f 817 819 820
usemtl Grass
v 2.50750 2.08000 4.50750
v 2.50750 2.20000 4.50750
v 1.49250 2.20000 4.50750
v 1.49250 2.08000 4.50750
f 821 822 823
f 821 823 824
usemtl Grass
v 1.49250 2.08000 4.50750
v 1.49250 2.20000 4.50750
v 1.49250 2.20000 3.49250
v 1.49250 2.08000 3.49250
f 825 826 827
f 825 827 828
usemtl Grass
v 2.50750 2.08000 3.49250
v 2.50750 2.20000 3.49250
v 2.50750 2.20000 4.50750
v 2.50750 2.08000 4.50750
f 829 830 831
f 829 831 832
usemtl Grass
v 1.49250 2.08000 4.50750
v 1.49250 2.08000 3.49250
v 2.50750 2.08000 3.49250
v 2.50750 2.08000 4.50750
f 833 834 835
f 833 835 836
usemtl Grass
v 1.49250 2.20000 3.49250
v 1.49250 2.20000 4.50750
v 2.50750 2.20000 4.50750
v 2.50750 2.20000 3.49250
f 837 838 839
f 837 839 840
